SplineFontDB: 1.0
FontName: CMUSansSerif
FullName: CMU Sans Serif
FamilyName: CMU Sans Serif
Weight: Medium
Copyright: Converted by Andrey V. Panov from TeX fonts
Comments: 2007-3-15: Created.
Version: 0.6.3
ItalicAngle: 0
UnderlinePosition: -100
UnderlineWidth: 50
Ascent: 800
Descent: 200
NeedsXUIDChange: 1
XUID: [1067 8399944]
FSType: 0
OS2Version: 0
OS2_WeightWidthSlopeOnly: 0
OS2_UseTypoMetrics: 1
CreationTime: 1173935656
ModificationTime: 1173936006
PfmFamily: 33
TTFWeight: 500
TTFWidth: 5
LineGap: 200
VLineGap: 90
OS2TypoAscent: 0
OS2TypoAOffset: 1
OS2TypoDescent: 0
OS2TypoDOffset: 1
OS2TypoLinegap: 200
OS2WinAscent: 900
OS2WinAOffset: 0
OS2WinDescent: 250
OS2WinDOffset: 0
HheadAscent: 900
HheadAOffset: 0
HheadDescent: -250
HheadDOffset: 0
ScriptLang: 13
 1 latn 1 dflt 
 3 grek 1 dflt latn 1 dflt thai 1 dflt 
 2 cyrl 1 dflt latn 1 dflt 
 1 cyrl 1 dflt 
 3 cyrl 1 dflt grek 1 dflt latn 1 dflt 
 2 grek 1 dflt latn 1 dflt 
 1 grek 1 dflt 
 1 latn 5 AZE  NLD  TRK  VIT  dflt 
 1 cyrl 3 MKD  SRB  dflt 
 1 latn 3 NLD  VIT  dflt 
 1 latn 1 NLD  
 3 cyrl 3 MKD  SRB  dflt grek 1 dflt latn 5 AZE  NLD  TRK  VIT  dflt 
 1 latn 1 VIT  
Encoding: UnicodeBmp
UnicodeInterp: none
NameList: Adobe Glyph List
DisplaySize: -24
AntiAlias: 1
FitToEm: 1
AnchorClass: "ogonek" mark 0 7 4 0 "above-mark" mkmk 0 11 3 1 "below" mark 0 11 2 0 "above" mark 0 11 1 0 
BeginChars: 65540 1880
StartChar: .notdef
Encoding: 0 0 0
Width: 760
Flags: HW
HStem: 10 60<105 655> 705 60<105 655>
VStem: 10 60<112 663> 690 60<112 663>
Fore
10 10 m 1
 10 765 l 1
 750 765 l 1
 750 10 l 1
 10 10 l 1
70 112 m 1
 346 388 l 1
 70 663 l 1
 70 112 l 1
105 70 m 1
 655 70 l 1
 380 346 l 1
 105 70 l 1
105 705 m 1
 380 429 l 1
 655 705 l 1
 105 705 l 1
414 388 m 1
 690 112 l 1
 690 663 l 1
 414 388 l 1
EndSplineSet
EndChar
StartChar: uni262D
Encoding: 9773 9773 1
Width: 700
Flags: HW
TeX: 117 0 0 0
HStem: -1 21G<593 601> 39 76<282.1 452.4> 102 51<129.8 171.4>
VStem: 129 53<105 139.506> 556 82<194.9 526.4>
Fore
40 18 m 0
 40 64 129 102 129 128 c 0
 129 148 134 153 148 153 c 0xb8
 166 153 168 165 182 180 c 1
 229 156 307 115 390 115 c 0
 438 115 463 128 463 129 c 0
 463 135 406 186 240 363 c 1
 178 301 l 1
 123 357 l 1
 252 486 l 1
 347 470 l 1
 271 393 l 1
 484 190 l 1
 513 165 l 1
 519 165 556 218 556 295 c 0
 556 473 346 588 346 593 c 1
 394 593 638 478 638 267 c 0
 638 187 612 142 580 100 c 1
 636 44 637 42 637 38 c 0
 637 17 605 -1 597 -1 c 0xd8
 589 -1 543 48 529 62 c 1
 500 51 474 39 428 39 c 0xd8
 297 39 201 138 188 138 c 0
 183 138 182 134 182 130 c 0
 182 126 183 123 183 118 c 0
 183 108 178 102 168 102 c 0
 131 102 122 0 64 -0 c 0
 48 0 40 7 40 18 c 0
EndSplineSet
EndChar
StartChar: longs
Encoding: 383 383 2
Width: 305
Flags: HW
TeX: 108 0 0 0
HStem: 0 21G<101 176> 672 61<216.6 310.324>
VStem: 101 72<0 675.9>
AnchorPoint: "above" 268 722 basechar 0
AnchorPoint: "below" 138 0 basechar 0
Fore
101 0 m 1
 101 547 l 2
 101 653 168 733 268 733 c 0
 289 733 315 730 347 722 c 1
 347 655 l 1
 321 665 298 672 266 672 c 0
 228 672 173 654 173 581 c 0
 173 542 176 425 176 386 c 2
 176 0 l 1
 101 0 l 1
EndSplineSet
EndChar
StartChar: florin
Encoding: 402 402 3
Width: 620
Flags: HW
TeX: 102 0 0 0
HStem: -205 64<60.2 217.2> 386 59<234 296 380 482> 672 61<436.2 568.8>
Fore
6 -171 m 1
 40 -110 l 1
 50 -120 68 -141 108 -141 c 0
 192 -141 200 -62 200 -62 c 1
 296 386 l 1
 222 386 l 1
 234 445 l 1
 308 445 l 1
 334 568 335 575 350 607 c 0
 367 641 425 733 538 733 c 0
 568 733 596 727 614 722 c 1
 598 655 l 1
 570 666 558 671 522 672 c 0
 456 672 426.076 624.966 418 607 c 0
 413.046 595.979 410 583 380 445 c 1
 494 445 l 1
 482 386 l 1
 372 386 l 1
 284 -27 l 2
 278 -55 274 -82 260 -107 c 0
 248 -134 202 -205 120 -205 c 0
 74 -205 38 -192 6 -171 c 1
EndSplineSet
EndChar
StartChar: uni03F5
Encoding: 1013 1013 4
Width: 430
Flags: HW
TeX: 117 0 0 0
HStem: -11 66<217.2 381> 199 64<124 326> 389 66<148.3 381>
Fore
48 225 m 0
 48 365 194 455 381 455 c 1
 381 389 l 1
 202 387 144 318 124 263 c 1
 326 263 l 1
 326 199 l 1
 121 199 l 1
 144 101 255 57 381 55 c 1
 381 -11 l 1
 199 -11 48 83 48 225 c 0
EndSplineSet
EndChar
StartChar: uni01EB
Encoding: 491 491 5
Width: 500
Flags: HW
TeX: 0 0 0 0
HStem: -218 70<241.6 328.7> -11 64<159.3 250> 400 61<164.5 340>
VStem: 30 78<72.7 387.3> 181 58<-134 -67.9> 391 78<103 383.4>
Fore
30 220 m 0
 30 351 127 461 250 461 c 0
 369 461 469 354 469 220 c 0
 469 130 421 53 351 15 c 0
 302 -13 239 -55 239 -108 c 0
 239 -128 253 -148 291 -148 c 0
 320 -148 357 -134 360 -134 c 1
 375 -193 l 1
 354 -203 317 -218 278 -218 c 0
 216 -218 181 -178 181 -129 c 0
 181 -82 211 -43 250 -11 c 1
 249 -11 l 2
 132 -11 30 88 30 220 c 0
108 230 m 0
 108 109 180 53 249 53 c 0
 323 53 391 112 391 230 c 0
 391 348 319 400 249 400 c 0
 184 400 108 351 108 230 c 0
EndSplineSet
EndChar
StartChar: grave
Encoding: 96 96 6
Width: 500
Flags: W
TeX: 638 0 32767 32767
HStem: 510 130<97 308>
VStem: 97 211<510 640>
Fore
97 640 m 1
 175 640 l 1
 308 510 l 1
 247 510 l 1
 97 640 l 1
EndSplineSet
EndChar
StartChar: acute
Encoding: 180 180 7
Width: 500
Flags: HW
TeX: 638 0 32767 32767
HStem: 510 130<252 401>
VStem: 190 211<510 640>
Fore
190 510 m 1
 323 640 l 1
 401 640 l 1
 252 510 l 1
 190 510 l 1
EndSplineSet
EndChar
StartChar: circumflex
Encoding: 710 710 8
Width: 500
Flags: HW
TeX: 638 0 32767 32767
HStem: 509 141<155 219>
VStem: 94 311<509 509>
Fore
94 509 m 1
 219 650 l 1
 280 650 l 1
 405 509 l 1
 344 509 l 1
 249 608 l 1
 155 509 l 1
 94 509 l 1
EndSplineSet
EndChar
StartChar: tilde
Encoding: 732 732 9
Width: 500
Flags: HW
TeX: 638 0 32767 32767
HStem: 529 109<116 144 355 384.3> 529 61<258.1 349.1> 577 61<164.2 240.9>
VStem: 83 61<529 582.799> 355 61<605.2 639>
Fore
83 529 m 1x58
 85 596 131 638 181 638 c 0x38
 233 638 271 590 314 590 c 0
 341 590 354 613 355 639 c 1
 416 639 l 1
 414 573 369 529 318 529 c 0x58
 267 529 228 577 185 577 c 0x38
 169 577 148 568 144 529 c 1x98
 83 529 l 1x58
EndSplineSet
EndChar
StartChar: ring
Encoding: 730 730 12
Width: 667
Flags: HW
TeX: 638 0 32767 32767
HStem: 476 33<274.8 389.2> 606 33<287.8 389.2>
VStem: 221 56<532.3 596> 387 56<532 582.7>
Fore
221 558 m 0
 221 596 262 639 332 639 c 0
 391 639 443 604 443 557 c 0
 443 519 402 476 332 476 c 0
 257 476 221 524 221 558 c 0
277 557 m 0
 277 538 288 509 332 509 c 0
 376 509 387 538 387 558 c 0
 387 577 376 606 332 606 c 0
 298 606 277 587 277 557 c 0
EndSplineSet
EndChar
StartChar: caron
Encoding: 711 711 13
Width: 500
Flags: HW
TeX: 638 0 32767 32767
VStem: 88 323<638 639>
Fore
88 639 m 1
 150 639 l 1
 250 571 l 1
 349 639 l 1
 384 639 l 1
 411 638 l 1
 281 545 285 545 268 545 c 2
 232 545 l 2
 212 545 186 568 88 639 c 1
EndSplineSet
EndChar
StartChar: breve
Encoding: 728 728 14
Width: 500
Flags: HW
TeX: 638 0 32767 32767
HStem: 498 67<211.446 287.745>
VStem: 80 61<596.1 639> 357 62<552.954 643.684>
Fore
80 639 m 1
 141 639 l 1
 147 573 223 565 250 565 c 0
 276 565 352 573 357 639 c 1
 419 639 l 1
 415 546 330 498 249 498 c 0
 168 498 83 547 80 639 c 1
EndSplineSet
EndChar
StartChar: macron
Encoding: 175 175 15
Width: 500
Flags: W
TeX: 657 0 32767 32767
HStem: 618 64<69 429>
Fore
69 618 m 1
 69 682 l 1
 429 682 l 1
 429 618 l 1
 69 618 l 1
EndSplineSet
EndChar
StartChar: cedilla
Encoding: 184 184 17
Width: 444
Flags: HW
TeX: 0 170 32767 32767
HStem: -192 169<187 252>
VStem: 117 135<-192 -23>
Fore
117 -192 m 1
 191 -23 l 1
 252 -23 l 1
 187 -192 l 1
 117 -192 l 1
EndSplineSet
EndChar
StartChar: ogonek
Encoding: 731 731 18
Width: 278
Flags: HW
TeX: 0 194 32767 32767
HStem: -214 74<60 136.7>
VStem: -29 83<-131 -61.4>
Fore
-29 -131 m 0
 -29 -67 63 -11 89 7 c 2
 119 30 l 1
 139 48 l 1
 166 -0 l 1
 119 -43 54 -74 54 -116 c 0
 54 -119 54 -122 55 -126 c 1
 59 -131 66 -140 86 -140 c 0
 125 -140 153 -93 155 -91 c 1
 206 -126 l 1
 172 -182 127 -214 74 -214 c 0
 23 -214 -29 -180 -29 -131 c 0
EndSplineSet
EndChar
StartChar: guilsinglleft
Encoding: 8249 8249 20
Width: 444
Flags: HW
TeX: 441 0 32767 32767
HStem: -0 439<271 271>
VStem: 110 222<220 439>
Fore
110 220 m 1
 271 439 l 1
 332 439 l 1
 188 219 l 1
 332 -0 l 1
 271 -0 l 1
 110 220 l 1
EndSplineSet
EndChar
StartChar: guilsinglright
Encoding: 8250 8250 21
Width: 444
Flags: HW
TeX: 441 0 32767 32767
HStem: -0 439<171 171>
VStem: 110 222<0 219>
Fore
110 -0 m 1
 254 220 l 1
 110 439 l 1
 171 439 l 1
 332 219 l 1
 171 -0 l 1
 110 -0 l 1
EndSplineSet
EndChar
StartChar: guillemotleft.lat
Encoding: 61696 61696 25
Width: 667
Flags: HW
TeX: 441 0 32767 32767
HStem: -0 439<504 565>
VStem: 110 455<220 439>
Fore
110 220 m 1
 337 439 l 1
 399 439 l 1
 188 219 l 1
 399 -0 l 1
 337 -0 l 1
 110 220 l 1
276 220 m 1
 504 439 l 1
 565 439 l 1
 355 219 l 1
 565 -0 l 1
 504 -0 l 1
 276 220 l 1
EndSplineSet
EndChar
StartChar: guillemotright.lat
Encoding: 61697 61697 26
Width: 667
Flags: HW
TeX: 441 0 32767 32767
HStem: -0 439<266 266>
VStem: 100 455<0 219>
Fore
100 -0 m 1
 310 220 l 1
 100 439 l 1
 161 439 l 1
 389 219 l 1
 161 -0 l 1
 100 -0 l 1
266 -0 m 1
 477 220 l 1
 266 439 l 1
 328 439 l 1
 555 219 l 1
 328 -0 l 1
 266 -0 l 1
EndSplineSet
KernsSLIFO: 49 -83 11 0 51 -83 11 0
EndChar
StartChar: endash
Encoding: 8211 8211 27
Width: 500
Flags: W
TeX: 441 0 32767 32767
HStem: 244 61<0 500>
Fore
0 244 m 1
 0 305 l 1
 500 305 l 1
 500 244 l 1
 0 244 l 1
EndSplineSet
Position: 0 0 'ITLC' dx=0 dy=0 dh=27 dv=0
EndChar
StartChar: emdash
Encoding: 8212 8212 28
Width: 1000
Flags: W
TeX: 441 0 32767 32767
HStem: 244 61<0 999>
Fore
0 244 m 1
 0 305 l 1
 999 305 l 1
 999 244 l 1
 0 244 l 1
EndSplineSet
Substitution: 0 8 'locl' emdash.cyr
Substitution: 0 8 'salt' emdash.cyr
Position: 0 0 'ITLC' dx=0 dy=0 dh=27 dv=0
EndChar
StartChar: dotlessi
Encoding: 305 305 30
Width: 239
Flags: W
TeX: 441 0 32767 32767
HStem: 0 21G<81 156> 425 20G<81 156>
VStem: 81 75<0 445>
AnchorPoint: "below" 118 0 basechar 0
AnchorPoint: "above" 118 461 basechar 0
Fore
81 0 m 1
 81 445 l 1
 156 445 l 1
 156 0 l 1
 81 0 l 1
EndSplineSet
EndChar
StartChar: dotlessj
Encoding: 567 567 31
Width: 267
Flags: HW
TeX: 441 194 32767 32767
HStem: -205 64<-3.4 88.6> 425 20G<110 185>
VStem: 110 75<-97.0116 445>
AnchorPoint: "below" 92 -195 basechar 0
AnchorPoint: "above" 148 461 basechar 0
Fore
-61 -171 m 1
 -41 -110 l 1
 -17 -130 4 -141 34 -141 c 0
 76 -141 103 -116 108 -90 c 0
 110 -82 110 -73 110 -65 c 2
 110 445 l 1
 185 445 l 1
 185 -50 l 2
 185 -172 110 -205 59 -205 c 0
 11 -205 -30 -189 -61 -171 c 1
EndSplineSet
EndChar
StartChar: ff
Encoding: 64256 64256 32
Width: 583
Flags: HW
TeX: 722 0 32767 32767
HStem: 0 21G<101 176 378 454> 386 59<27 101 176 286 454 564> 672 61<217.9 308.009 495.9 585.949>
VStem: 100 73<0 386 445 675.9> 378 73<0 386 445 675.9>
Fore
378 0 m 1
 378 542 l 2
 378 674 465 733 544 733 c 0
 568 733 593 730 624 722 c 1
 624 655 l 1
 602 664 576 672 544 672 c 0
 507 672 451 654 451 581 c 2
 451 445 l 1
 564 445 l 1
 564 386 l 1
 454 386 l 1
 454 0 l 1
 378 0 l 1
EndSplineSet
Refer: 107 102 S 1 0 0 1 0 0 2
KernsSLIFO: 1726 69 11 0 98 69 11 0 46 69 11 0 38 69 11 0 68 69 11 0 23 69 11 0 22 69 11 0 101 69 11 0 44 69 11 0
Ligature: 0 7 'liga' f f
Position: 0 0 'ITLC' dx=0 dy=0 dh=69 dv=0
EndChar
StartChar: fi
Encoding: 64257 64257 33
Width: 536
Flags: HW
TeX: 722 0 32767 32767
HStem: 0 21G<101 176 378 453> 386 59<27 101 176 294> 425 20<378 453> 639 84<374 458> 672 61<203.8 267.5>
VStem: 101 72<0 386 445 678.5> 374 84<639 723> 378 75<0 445>
Fore
27 386 m 1
 27 445 l 1
 101 445 l 1
 101 544 l 2xc4
 101 686 181 733 235 733 c 0
 264 733 282 725 294 722 c 1
 294 654 l 1
 276 663 260 672 235 672 c 0
 211 672 173 656 173 581 c 2
 173 445 l 1xac
 294 445 l 1
 294 386 l 1
 176 386 l 1
 176 0 l 1
 101 0 l 1
 101 386 l 1
 27 386 l 1
EndSplineSet
Refer: 51 46 S 1 0 0 1 278 639 2
Refer: 30 305 S 1 0 0 1 297 -0 2
Ligature: 0 9 'liga' f i
EndChar
StartChar: fl
Encoding: 64258 64258 34
Width: 536
Flags: HW
TeX: 722 0 32767 32767
HStem: 0 21G<101 176 378 453> 386 59<27 101 176 294> 672 61<203.8 266.2> 702 20<378 453>
VStem: 101 72<0 386 445 679.8> 378 75<0 722>
Fore
27 386 m 1
 27 445 l 1
 101 445 l 1
 101 544 l 2xec
 101 686 181 733 235 733 c 0xec
 264 733 282 725 294 722 c 1xdc
 294 655 l 1
 278 663 259 672 235 672 c 0
 211 672 173 657 173 581 c 2
 173 445 l 1
 294 445 l 1
 294 386 l 1
 176 386 l 1
 176 0 l 1
 101 0 l 1
 101 386 l 1
 27 386 l 1
EndSplineSet
Refer: 113 108 S 1 0 0 1 297 0 2
Ligature: 0 7 'liga' f l
EndChar
StartChar: ffi
Encoding: 64259 64259 35
Width: 814
Flags: HW
TeX: 722 0 32767 32767
HStem: 0 21G<101 176 378 454 656 731> 386 59<27 101 176 294 454 572> 425 20<656 731> 639 84<652 736> 672 61<211 286.4 480.5 542.9>
VStem: 101 72<0 386 445 678.5> 378 73<0 386 445 678.5> 652 84<639 723> 656 75<0 445>
Fore
27 386 m 1
 27 445 l 1
 101 445 l 1
 101 542 l 2
 101 670 173 733 251 733 c 0
 278 733 299 728 319 722 c 1
 319 655 l 1
 300 663 278 672 250 672 c 0
 220 672 173 656 173 581 c 2
 173 445 l 1xae
 294 445 l 1
 294 386 l 1
 176 386 l 1
 176 0 l 1
 101 0 l 1
 101 386 l 1
 27 386 l 1
378 0 m 1
 378 539 l 2xc6
 378 688 458 733 512 733 c 0xce
 530 733 549 730 572 723 c 1x96
 572 654 l 1
 556 663 536 672 513 672 c 0
 488 672 451 656 451 581 c 2
 451 445 l 1xae
 572 445 l 1
 572 386 l 1
 454 386 l 1
 454 0 l 1
 378 0 l 1
EndSplineSet
Refer: 51 46 S 1 0 0 1 556 639 2
Refer: 30 305 S 1 0 0 1 575 0 2
Ligature: 0 9 'liga' ff i
Ligature: 0 9 'liga' f f i
EndChar
StartChar: ffl
Encoding: 64260 64260 36
Width: 814
Flags: HW
TeX: 722 0 32767 32767
HStem: 0 21G<101 176 378 454 656 731> 386 59<27 101 176 294 454 572> 672 61<211 286.4 481.8 542.9> 702 20<656 731>
VStem: 101 72<0 386 445 678.5> 378 73<0 386 445 679.8> 656 75<0 722>
Fore
27 386 m 1
 27 445 l 1
 101 445 l 1
 101 542 l 2
 101 670 173 733 251 733 c 0xee
 278 733 299 728 319 722 c 1xde
 319 655 l 1
 300 663 278 672 250 672 c 0
 220 672 173 656 173 581 c 2
 173 445 l 1
 294 445 l 1
 294 386 l 1
 176 386 l 1
 176 0 l 1
 101 0 l 1
 101 386 l 1
 27 386 l 1
378 0 m 1
 378 539 l 2xee
 378 689 459 733 513 733 c 0xee
 542 733 560 725 572 722 c 1xde
 572 655 l 1
 556 663 536 672 513 672 c 0
 489 672 451 657 451 581 c 2
 451 445 l 1
 572 445 l 1
 572 386 l 1
 454 386 l 1
 454 0 l 1
 378 0 l 1
EndSplineSet
Refer: 113 108 S 1 0 0 1 575 0 2
Ligature: 0 7 'liga' ff l
Ligature: 0 7 'liga' f f l
EndChar
StartChar: uni2423
Encoding: 9251 9251 37
Width: 500
Flags: HW
TeX: 441 97 32767 32767
HStem: -119 44<84 414>
VStem: 41 43<-75 235.7> 414 43<-75 234.276>
Fore
41 -89 m 2
 41 211 l 2
 41 236 54 240 63 240 c 0
 83 240 84 223 84 211 c 2
 84 -75 l 1
 414 -75 l 1
 414 211 l 2
 414 223 416 240 435 240 c 0
 444 240 457 236 457 212 c 2
 457 -88 l 2
 457 -107 451 -119 427 -119 c 2
 72 -119 l 2
 52 -119 41 -113 41 -89 c 2
EndSplineSet
EndChar
StartChar: exclam
Encoding: 33 33 38
Width: 319
Flags: W
TeX: 722 0 32767 32767
HStem: 0 84<117 201> 702 20G<117 201>
VStem: 117 84<0 84 539.667 722> 125 67<175 357.333>
Fore
117 722 m 1xe0
 201 722 l 1xe0
 192 175 l 1
 125 175 l 1xd0
 118 671 l 1
 117 722 l 1xe0
EndSplineSet
Refer: 51 46 S 1 0 0 1 21 0 2
EndChar
StartChar: quotedbl
Encoding: 34 34 39
Width: 500
Flags: HW
TeX: 722 0 32767 32767
HStem: 702 20G<126 204 294 372>
VStem: 126 78<602 722> 135 61<362 482> 294 78<602 722> 302 61<362 482>
Fore
126 722 m 1
 204 722 l 1xc0
 196 363 l 1
 196 362 l 1xa0
 135 362 l 1xa0
 126 722 l 1
294 722 m 1
 372 722 l 1x90
 363 362 l 1
 302 362 l 1x88
 302 363 l 1x88
 294 722 l 1
EndSplineSet
EndChar
StartChar: numbersign
Encoding: 35 35 40
Width: 833
Flags: HW
TeX: 722 222 32767 32767
HStem: 119 61<66.845 242 321 461 540 770> 320 61<61 291 370 511 590 756.877> 702 20G<402 424 621.5 643.5>
Fore
56 150 m 0
 56 162 62 180 93 180 c 2
 258 180 l 1
 291 320 l 1
 91 320 l 2
 59 320 56 343 56 350 c 0
 56 363 61 381 96 381 c 2
 307 381 l 1
 382 683 l 2
 384 691 388 722 416 722 c 0
 432 722 445 708 446 693 c 0
 446 685 444 677 442 670 c 2
 370 381 l 1
 527 381 l 1
 601 683 l 2
 603 691 608 722 635 722 c 0
 652 722 665 708 665 692 c 1
 666 685 663 677 662 670 c 2
 590 381 l 1
 726 381 l 2
 744 380 754 381 763 375 c 0
 771 369 776 360 776 350 c 0
 776 338 770 320 739 320 c 2
 574 320 l 1
 540 180 l 1
 741 180 l 2
 772 180 776 157 776 150 c 0
 776 137 770 119 736 119 c 2
 525 119 l 1
 450 -183 l 2
 448 -191 444 -222 416 -222 c 0
 400 -222 386 -208 386 -192 c 0
 386 -185 388 -177 390 -170 c 2
 461 119 l 1
 305 119 l 1
 230 -183 l 2
 228 -191 224 -222 196 -222 c 0
 180 -222 167 -208 166 -192 c 0
 166 -185 169 -177 170 -170 c 2
 242 119 l 1
 105 119 l 2
 87 119 56 118 56 150 c 0
321 180 m 1
 477 180 l 1
 511 320 l 1
 355 320 l 1
 321 180 l 1
EndSplineSet
EndChar
StartChar: dollar
Encoding: 36 36 41
Width: 500
Flags: HW
TeX: 746 27 32767 32767
VStem: 55 73<491.1 599> 220 59<-28 -10 58 322 430 665 732 750> 370 73<135.4 245.9>
Fore
44 61 m 1
 56 130 l 1
 76 114 119 70 220 55 c 1
 220 337 l 1
 219 337 l 1
 97 365 55 459 55 534 c 0
 55 616 106 710 220 731 c 1
 220 750 l 1
 279 750 l 1
 279 732 l 1
 339 726 377 711 427 675 c 1
 415 609 l 1
 369 644 335 662 279 667 c 1
 279 414 l 1
 409 383 443 275 443 203 c 0
 443 96 372 7 279 -8 c 1
 279 -28 l 1
 220 -28 l 1
 220 -10 l 1
 163 -4 103 15 44 61 c 1
128 547 m 0
 128 504 151 449 220 430 c 1
 220 665 l 1
 219 665 l 1
 148 642 128 587 128 547 c 0
279 58 m 1
 352 81 370 148 370 190 c 0
 370 233 353 296 279 322 c 1
 279 58 l 1
EndSplineSet
EndChar
StartChar: percent
Encoding: 37 37 42
Width: 833
Flags: HW
TeX: 746 27 32767 32767
HStem: 300 61<605.2 683.2> 689 61<161.2 239.2>
VStem: 55 75<402.6 693.8> 263 70<454.6 662.6> 499 75<13.6 303.5> 707 70<65.6 273.6>
Fore
176 -7 m 0
 176 1 183 11 185 13 c 1
 620 737 l 2
 623.003 741.998 630 749 639 749 c 0
 649 749 658 741 658 730 c 0
 658 721 650 710 646 702 c 2
 221 -5 l 2
 215 -14 209 -27 196 -27 c 0
 185 -27 176 -18 176 -7 c 0
499 167 m 0
 499 272 561 361 639 361 c 0
 717 361 777 272 777 166 c 0
 777 58 715 -28 639 -28 c 0
 570 -28 499 49 499 167 c 0
574 167 m 0
 574 27.076 637.859 35.0333 642 34 c 1
 676 38 707 89 707 167 c 0
 707 249 673 300 639 300 c 0
 613 300 574 274 574 167 c 0
EndSplineSet
Refer: 684 8320 S 1 0 0 1 -28 389 2
EndChar
StartChar: ampersand
Encoding: 38 38 43
Width: 758
Flags: HW
TeX: 722 0 32767 32767
HStem: -22 64<135 285.8 528.5 647.401> 683 61<261.3 362.7>
VStem: 41 78<83.9 245.1> 161 65<503.2 681.3> 360 69<542.1 630.5>
Fore
41 150 m 0
 41 246 110 286 194 365 c 1
 177 414 161 476 161 541 c 0
 161 658 217 744 300 744 c 0
 378 744 429 665 429 584 c 0
 429 539 410 477 277 358 c 1
 335 239 427 137 436 125 c 1
 530 206 577 314 602 405 c 1
 666 389 l 1
 638 284 584 174 484 81 c 1
 520 57 542 42 587 42 c 0
 647 42 695 60 701 60 c 1
 701 -7 l 1
 679 -12 633 -22 587 -22 c 0
 522 -22 473 -1 426 37 c 1
 425 37 l 1
 379 7 304 -22 224 -22 c 0
 125 -22 41 51 41 150 c 0
119 158 m 0
 119 101 156 42 226 42 c 0
 272 42 323 54 376 83 c 1
 349 114 268 208 220 305 c 1
 160 251 119 225 119 158 c 0
226 576 m 0
 226 520 238 467 253 420 c 1
 342 500 360 552 360 585 c 0
 360 620 348 683 299 683 c 0
 270 683 226 657 226 576 c 0
EndSplineSet
EndChar
StartChar: parenleft
Encoding: 40 40 45
Width: 389
Flags: W
TeX: 746 249 32767 32767
VStem: 80 78<-145.2 428.1>
Fore
80 250 m 0
 80 550 203 689 271 750 c 1
 333 750 l 1
 304 719 281.087 696.948 252 648 c 0
 181.211 528.874 158 387 158 250 c 0
 158 -115 321 -231 333 -250 c 1
 271 -250 l 1
 207 -192 80 -54 80 250 c 0
EndSplineSet
EndChar
StartChar: parenright
Encoding: 41 41 46
Width: 389
Flags: HW
TeX: 746 249 32767 32767
VStem: 230 78<71.9 639.7>
Fore
55 -250 m 1
 84 -219 105.985 -196.991 135 -149 c 0
 206.962 -29.9769 230 113 230 250 c 0
 230 615 67 731 55 750 c 1
 116 750 l 1
 184 689 308 550 308 251 c 0
 308 -51 184 -189 116 -250 c 1
 55 -250 l 1
EndSplineSet
EndChar
StartChar: asterisk
Encoding: 42 42 47
Width: 500
Flags: HW
TeX: 746 0 32767 32767
HStem: 635 20G<89.5 107 393 410>
VStem: 215 69<315.6 408.18 644.216 750.7>
Fore
64 435 m 0
 64 456 81 465 92 470 c 2
 199 527 l 1
 199 528 l 1
 76 593 64 594 64 620 c 0
 64 639 80 655 99 655 c 0
 115 655 128 641 223 576 c 1
 220 621 215 708 215 713 c 0
 215 742 238 750 250 750 c 0
 260 750 284 743 284 716 c 0
 284 706 282 680 276 576 c 1
 381 649 387 655 399 655 c 0
 421 655 435 638 435 620 c 0
 435 599 418 591 408 585 c 2
 300 528 l 1
 300 527 l 1
 423 462 435 461 435 435 c 0
 435 416 419 400 400 400 c 0
 382 400 375 412 276 480 c 1
 279 434 284 347 284 343 c 0
 284 313 262 306 250 306 c 0
 231 306 215 321 215 339 c 0
 215 347 217 371 223 480 c 1
 119 407 113 400 100 400 c 0
 79 400 64 418 64 435 c 0
EndSplineSet
EndChar
StartChar: plus
Encoding: 43 43 48
Width: 778
Flags: HW
TeX: 583 83 32767 32767
HStem: 219 62<69.9884 358 419 702>
VStem: 358 61<-59.6719 220 281 563.244>
Fore
55 250 m 0
 56 267 69 277 77 279 c 0
 85 281 94 281 102 281 c 2
 358 281 l 1
 358 538 l 2
 358 561 362 583 388 583 c 0
 423 583 419 543 419 538 c 2
 419 281 l 1
 675 281 l 2
 702 281 720 275 721 250 c 0
 720 221 696 220 681 220 c 2
 419 220 l 1
 419 -38 l 2
 419 -56 419 -65 407 -76 c 0
 401 -81 394 -83 389 -83 c 0
 371 -83 362 -69 359 -60 c 0
 357 -53 358 -46 358 -38 c 2
 358 220 l 1
 100 220 l 2
 99 220 96 219 92 219 c 0
 64 219 56 237 55 250 c 0
EndSplineSet
EndChar
StartChar: comma
Encoding: 44 44 49
Width: 278
Flags: W
TeX: 83 124 32767 32767
HStem: -20 20G<96 122>
VStem: 96 84<0 84>
Fore
96 0 m 1
 96 84 l 1
 180 84 l 1
 180 14 l 1
 179 -0 l 1
 138 -125 l 1
 96 -125 l 1
 122 0 l 1
 96 0 l 1
EndSplineSet
EndChar
StartChar: hyphen
Encoding: 45 45 50
Width: 333
Flags: W
TeX: 441 0 32767 32767
HStem: 193 59<10 276>
Fore
10 193 m 1
 10 252 l 1
 276 252 l 1
 276 193 l 1
 10 193 l 1
EndSplineSet
EndChar
StartChar: period
Encoding: 46 46 51
Width: 278
Flags: W
TeX: 83 0 32767 32767
HStem: 0 84<96 180>
VStem: 96 84<0 84>
Fore
96 0 m 1
 96 84 l 1
 180 84 l 1
 180 0 l 1
 96 0 l 1
EndSplineSet
EndChar
StartChar: slash
Encoding: 47 47 52
Width: 500
Flags: HW
TeX: 746 249 32767 32767
VStem: 56 387<-219 719>
Fore
56 -219 m 0
 56 -210 62 -197 65 -186 c 2
 381 720 l 2
 384 731 391 749 413 749 c 0
 428 749 443 738 443 719 c 0
 443 711 439 700 436 691 c 2
 118 -220 l 2
 106.848 -251.947 92 -247 87 -250 c 1
 86 -250 l 2
 70 -250 56 -236 56 -219 c 0
EndSplineSet
EndChar
StartChar: zero
Encoding: 48 48 53
Width: 500
Flags: HW
TeX: 657 0 32767 32767
HStem: -22 61<182.4 294.337> 616 62<207.18 316.6>
VStem: 41 78<76 456.4> 380 78<61.1 429.155>
Fore
41 310 m 2
 41 329 l 2
 41 427 48 615 186 666 c 0
 204 673 224 678 249 678 c 0
 301 678 350.828 654.849 385 616 c 0
 455.644 535.687 458 390 458 325 c 0
 458 122 407 24 312 -11 c 0
 295 -18 275 -22 249 -22 c 0
 166 -22 42 26 41 310 c 2
119 308 m 2
 119 76 198 39 250 39 c 0
 302 39 380 77 380 309 c 2
 380 370 l 2
 380 584 302 616 249 616 c 0
 197 616 119 583 119 370 c 2
 119 308 l 2
EndSplineSet
Substitution: 0 11 'onum' zerooldstyle
EndChar
StartChar: one
Encoding: 49 49 54
Width: 500
Flags: HW
TeX: 657 0 32767 32767
HStem: -0 59<95 220 300 425> 554 58<90 168>
VStem: 220 80<59 577>
Fore
90 554 m 1
 90 612 l 1
 205 612 254 653 281 678 c 1
 300 678 l 1
 300 59 l 1
 425 59 l 1
 425 -0 l 1
 95 -0 l 1
 95 59 l 1
 220 59 l 1
 220 577 l 1
 185 563 150 554 90 554 c 1
EndSplineSet
Substitution: 0 11 'onum' oneoldstyle
EndChar
StartChar: two
Encoding: 50 50 55
Width: 500
Flags: HW
TeX: 657 0 32767 32767
HStem: -0 70<49 449> 613 65<161 301.5>
VStem: 366 83<407.5 520.5>
Fore
41 514 m 1
 66 598 119 678 235 678 c 0
 368 678 449 577 449 464 c 0
 449 367 386.371 312.72 282 221 c 0
 249 192 201 146 121 70 c 1
 449 71 l 1
 449 -0 l 1
 49 -0 l 1
 49 65 l 1
 179 194 l 2
 275 283 366 354 366 461 c 0
 366 545 308 613 222 613 c 0
 100 613 88 461 84 459 c 1
 41 514 l 1
EndSplineSet
Substitution: 0 11 'onum' twooldstyle
EndChar
StartChar: three
Encoding: 51 51 56
Width: 500
Flags: HW
TeX: 657 0 32767 32767
HStem: -22 62<199.025 340.2> 323 62<166 222.55> 618 60<197.3 324>
VStem: 347 82<469.1 597.8> 367 90<76.7 269.7>
Fore
41 81 m 1
 52 142 l 1
 122 47 216 40 244 40 c 0
 318 40 367 101 367 182 c 0xe8
 367 257 324 323 239 323 c 2
 166 323 l 1
 166 385 l 1
 224 389 231 390 238 391 c 0
 304 403 347 464 347 525 c 0
 347 581 306 618 246 618 c 0
 190 618 138.116 589.923 107 543 c 0
 101.022 533.985 96 524 91 514 c 1
 55 569 l 1
 118 668 209 678 248 678 c 0
 341 678 429 616 429 525 c 0xf0
 429 482 413 408 318 354 c 1
 414 320 457 249 457 180 c 0
 457 84 378 -22 245 -22 c 0
 215 -22 118 -17 41 81 c 1
EndSplineSet
Substitution: 0 11 'onum' threeoldstyle
EndChar
StartChar: four
Encoding: 52 52 57
Width: 500
Flags: HW
TeX: 657 0 32767 32767
HStem: -0 21G<292 372> 171 61<105 292 372 471> 635 20G<280 372>
VStem: 292 80<0 171> 298 74<232 302.615>
Fore
27 171 m 1
 27 219 l 0
 27 232 28 234 38 250 c 2
 280 655 l 1
 372 655 l 1
 372 232 l 1xe8
 471 232 l 1
 471 171 l 1
 372 171 l 1
 372 -0 l 1
 292 -0 l 1
 292 171 l 1xf0
 27 171 l 1
105 232 m 1
 298 232 l 1xe8
 298 618 l 1
 285 538 233 449 105 232 c 1
EndSplineSet
Substitution: 0 11 'onum' fouroldstyle
EndChar
StartChar: five
Encoding: 53 53 58
Width: 500
Flags: HW
TeX: 657 0 32767 32767
HStem: -22 62<186.4 295.6> 366 61<197.9 310.3> 591 64<152 416>
VStem: 79 73<386 591> 359 90<42.8 369.1>
Fore
38 76 m 1
 72 132 l 1
 121 50 196 40 228 40 c 0
 280 40 359 74 359 205 c 0
 359 333 298 366 257 366 c 0
 178 366 147 286 147 286 c 1
 79 286 l 1
 79 655 l 1
 416 655 l 1
 416 591 l 1
 152 591 l 1
 152 386 l 1
 185 411 212 427 259 427 c 0
 360 427 449 331 449 204 c 0
 449 80 353 -22 229 -22 c 0
 153 -22 81 16 38 76 c 1
EndSplineSet
Substitution: 0 11 'onum' fiveoldstyle
EndChar
StartChar: six
Encoding: 54 54 59
Width: 500
Flags: HW
TeX: 657 0 32767 32767
HStem: -22 62<204.5 289> 401 61<217.5 320.5> 619 59<232 334>
VStem: 42 86<179.5 422> 375 82<185 257>
Fore
42 323 m 0
 42 521 155 678 309 678 c 0
 359 678 390 667 416 658 c 1
 416 598 l 1
 389 607 359 619 309 619 c 0
 188 619 131 483 126 380 c 1
 168 433 232 462 295 462 c 0
 346 462 376 439 404 401 c 0
 444 344 457 290 457 224 c 0
 457 146 437.814 93.1746 388 40 c 0
 347.85 -2.85926 306 -22 252 -22 c 0
 168 -22 42 36 42 323 c 0
128 247 m 0
 128 238 128 229 129 220 c 0
 137 146 158 40 251 40 c 0
 327 40 360 107 370 151 c 0
 374 173 375 195 375 218 c 0
 375 278 370 312 347 349 c 0
 317 396 279 401 256 401 c 0
 179 401 128 330 128 247 c 0
EndSplineSet
Substitution: 0 11 'onum' sixoldstyle
EndChar
StartChar: seven
Encoding: 55 55 60
Width: 500
Flags: HW
TeX: 657 0 32767 32767
HStem: -11 21G<151 236> 585 70<41 389>
VStem: 151 85<-11 247.7>
Fore
41 585 m 1
 41 656 l 1
 457 655 l 1
 457 590 l 1
 316 428 236 208 236 -11 c 1
 151 -11 l 1
 151 188 219 404 389 585 c 1
 41 585 l 1
EndSplineSet
Substitution: 0 11 'onum' sevenoldstyle
EndChar
StartChar: eight
Encoding: 56 56 61
Width: 500
Flags: HW
TeX: 657 0 32767 32767
HStem: -22 62<150.2 325.7> 323 62<177.8 345.5> 619 59<152.8 343.9>
VStem: 41 81<70.5 269.7> 55 70<418.8 593> 373 70<425 594.3> 376 81<48.1 289.9>
Fore
41 180 m 0xf2
 41 249 82 319 180 354 c 1
 102 377 55 438 55 502 c 0
 55 595 138 678 249 678 c 0
 354 678 443 600 443 503 c 0xec
 443 443 406 385 318 354 c 1
 382 334 457 276 457 179 c 0
 457 74 367 -22 249 -22 c 0
 131 -22 41 73 41 180 c 0xf2
122 181 m 0
 122 96 173 40 249 40 c 0
 308 40 376 79 376 182 c 0xf2
 376 265 325 323 248 323 c 0
 194 323 122 286 122 181 c 0
125 502 m 0
 125 431 177 385 248 385 c 0
 323 385 373 433 373 502 c 0
 373 573 322 619 249 619 c 0xec
 175 619 125 572 125 502 c 0
EndSplineSet
Substitution: 0 11 'onum' eightoldstyle
EndChar
StartChar: nine
Encoding: 57 57 62
Width: 500
Flags: HW
TeX: 657 0 32767 32767
HStem: -22 62<174 273.5> 193 62<178 281.5> 618 60<214 298.5>
VStem: 42 82<400.5 471.5> 371 86<229 477.5>
Fore
42 435 m 0
 42 508 61 563 114 618 c 0
 156 660 197 678 252 678 c 0
 334 678 457 622 457 333 c 0
 457 125 342 -22 205 -22 c 0
 143 -22 108 -3 72 24 c 1
 103 78 l 1
 126 62 151 40 207 40 c 0
 291 40 362 125 373 276 c 1
 329 224 272 193 204 193 c 0
 152 193 123.17 216.122 96 254 c 0
 54.2615 312.188 42 366 42 435 c 0
124 435 m 0
 124 381 127 343 156 301 c 0
 175 274 201 255 243 255 c 0
 320 255 371 326 371 410 c 0
 371 476.478 352.101 618 253 618 c 0
 175 618 140 550 130 507 c 0
 124 483 124 460 124 435 c 0
EndSplineSet
Substitution: 0 11 'onum' nineoldstyle
EndChar
StartChar: less
Encoding: 60 60 65
Width: 778
Flags: HW
TeX: 544 47 32767 32767
Fore
83 250 m 1
 86 266 88 271 117 286 c 2
 643 552 l 2
 649 555 656 558 663 558 c 0
 681 558 693 543 693 528 c 0
 693 506 672.971 498.059 659 491 c 2
 182 250 l 1
 659 9 l 2
 672.971 1.94148 693 -6 693 -28 c 0
 693 -44 680 -58 663 -58 c 0
 652 -58 636 -48 624 -42 c 2
 117 214 l 2
 78 233 86 242 83 250 c 1
EndSplineSet
EndChar
StartChar: equal
Encoding: 61 61 66
Width: 778
Flags: HW
TeX: 369 -129 32767 32767
HStem: 119 62<54.3 715> 320 61<51.8 714>
Fore
56 150 m 0
 56 162 63 181 92 181 c 0
 95 181 99 180 102 180 c 2
 683 180 l 2
 717 180 721 160 721 150 c 0
 721 138 715 119 680 119 c 2
 95 119 l 2
 62 119 56 138 56 150 c 0
EndSplineSet
Refer: 291 8722 S 1 0 0 1 0 100 2
EndChar
StartChar: greater
Encoding: 62 62 67
Width: 778
Flags: HW
TeX: 544 47 32767 32767
Fore
83 -28 m 0
 83 -6 104.029 1.94148 118 9 c 2
 595 250 l 1
 118 491 l 2
 104.029 498.059 83 506 83 528 c 0
 83 543 96 558 114 558 c 0
 125 558 141 548 153 542 c 2
 660 286 l 2
 699 266 691 258 693 250 c 1
 691 234 689 229 660 214 c 2
 135 -51 l 2
 128 -55 121 -58 114 -58 c 0
 96 -58 83 -43 83 -28 c 0
EndSplineSet
EndChar
StartChar: question
Encoding: 63 63 68
Width: 472
Flags: HW
TeX: 722 0 32767 32767
HStem: 0 84<180 264> 672 61<134 299.1>
VStem: 180 84<0 84> 188 67<175 279.077> 338 78<522.6 655.5>
Fore
55 677 m 1
 96 707 150 733 223 733 c 0
 382 733 416 636 416 571 c 0
 416 484 363 450 347 434 c 0
 253 343 255 246 255 215 c 2
 255 175 l 1
 188 175 l 1
 188 207 l 2
 188 414 293 476 318 508 c 0
 322 513 338 534 338 572 c 0
 338 652 282 672 225 672 c 0xd8
 155 672 111 642 78 614 c 1
 55 677 l 1
EndSplineSet
Refer: 51 46 S 1 0 0 1 84 0 2
EndChar
StartChar: at
Encoding: 64 64 69
Width: 667
Flags: HW
TeX: 722 0 32767 32767
HStem: -11 62<203.8 492> 126 61<349.6 490> 535 62<353.8 486.1> 672 61<222.2 451>
VStem: 55 75<134.8 604.1> 240 75<229.4 497.2> 535 75<217 499.1>
Fore
55 362 m 0
 55 575 214 733 385 733 c 0
 606 733 610 476 610 368 c 0
 610 209 513 126 425 126 c 0
 324 126 240 229 240 361 c 0
 240 492 323 597 425 597 c 0
 472 597 495 578 510 570 c 1
 483 645 436 672 386 672 c 0
 260 672 130 548 130 361 c 0
 130 187 247 51 391 51 c 0
 476 51 533 85 546 87 c 0
 554 89 562 88 570 88 c 2
 610 88 l 1
 551 22 468 -11 388 -11 c 0
 211 -11 55 148 55 362 c 0
315 362 m 0
 315 260 367 187 425 187 c 0
 475 187 535 250 535 360 c 0
 535 467 480 535 424 535 c 0
 370 535 315 466 315 362 c 0
EndSplineSet
EndChar
StartChar: A
Encoding: 65 65 70
Width: 667
Flags: HW
TeX: 694 0 32767 32767
HStem: -0 21G<27 102 545 637> 204 56<199 447> 674 20G<288 377>
AnchorPoint: "below" 332 0 basechar 0
AnchorPoint: "above" 332 716 basechar 0
Fore
27 -0 m 1
 288 694 l 1
 377 694 l 1
 637 -0 l 1
 545 -0 l 1
 468 204 l 1
 178 204 l 1
 102 -0 l 1
 27 -0 l 1
199 260 m 1
 447 260 l 1
 357 512 329 587 323 624 c 1
 308 551 212 300 199 260 c 1
EndSplineSet
KernsSLIFO: 1748 -28 11 0 1747 -28 11 0 1746 -28 11 0 92 -111 11 0 91 -111 11 0 226 -83 11 0 157 -83 11 0 94 -83 11 0 154 -83 11 0 153 -83 11 0 89 -83 11 0 225 -28 11 0 224 -28 11 0 223 -28 11 0 222 -28 11 0 156 -28 11 0 155 -28 11 0 90 -28 11 0 221 -28 11 0 220 -28 11 0 219 -28 11 0 218 -28 11 0 217 -28 11 0 216 -28 11 0 215 -28 11 0 147 -28 11 0 84 -28 11 0 86 -28 11 0 204 -28 11 0 140 -28 11 0 136 -28 11 0 135 -28 11 0 76 -28 11 0 72 -28 11 0 186 -28 11 0 185 -28 11 0 121 -28 11 0 118 -28 11 0 253 -28 11 0 252 -28 11 0 251 -28 11 0 250 -28 11 0 249 -28 11 0 248 -28 11 0 247 -28 11 0 179 -28 11 0 116 -28 11 0 240 -28 11 0 239 -28 11 0 238 -28 11 0 237 -28 11 0 171 -28 11 0 170 -28 11 0 106 -28 11 0 245 -28 11 0 163 -28 11 0 169 -28 11 0 105 -28 11 0 236 -28 11 0 168 -28 11 0 167 -28 11 0 104 -28 11 0 124 -28 11 0 123 -28 11 0 258 -28 11 0 189 -28 11 0 126 -28 11 0
EndChar
StartChar: B
Encoding: 66 66 71
Width: 667
Flags: HW
TeX: 694 0 32767 32767
HStem: 0 56<180 387.828> 330 62<181 388.05> 638 56<181 495.2>
VStem: 96 85<56 330 392 638> 503 79<441 581.4> 528 82<103.2 267>
AnchorPoint: "below" 331 0 basechar 0
AnchorPoint: "above" 331 716 basechar 0
Fore
96 0 m 1
 96 694 l 1
 318 694 l 2
 512 694 582 590 582 520 c 0xf8
 582 457 529 392 414 363 c 1
 515 347 610 282 610 188 c 0
 610 88 509 13 395 2 c 0
 378 0 361 0 344 0 c 2
 96 0 l 1
180 56 m 1
 322 56 l 2
 458 56 528 123 528 189 c 0xf4
 528 249 465 317 351 329 c 0
 334 330 317 330 300 330 c 2
 181 330 l 1
 180 293 l 1
 180 56 l 1
180 392 m 1
 300 392 l 2
 433 392 503 459 503 519 c 0xf8
 503 567 449 638 295 638 c 2
 181 638 l 1
 180 603 l 1
 180 392 l 1
EndSplineSet
EndChar
StartChar: C
Encoding: 67 67 72
Width: 639
Flags: W
TeX: 694 0 32767 32767
HStem: -22 64<207.8 503.2> 652 64<208.7 488.3>
VStem: 66 90<137.7 552.4>
AnchorPoint: "below" 394 0 basechar 0
AnchorPoint: "above" 396 716 basechar 0
Fore
66 347 m 0
 66 541 198 716 396 716 c 0
 467 716 525 701 577 682 c 1
 562 599 l 1
 508 632 467 652 392 652 c 0
 251 652 156 505 156 347 c 0
 156 186 251 42 395 42 c 0
 497 42 532 70 582 103 c 1
 588 33 l 1
 518 -8 478 -22 394 -22 c 0
 197 -22 66 155 66 347 c 0
EndSplineSet
EndChar
StartChar: D
Encoding: 68 68 73
Width: 722
Flags: HW
TeX: 694 0 32767 32767
HStem: 0 56<182 370.429> 638 56<182 391.3>
VStem: 95 87<56 638> 579 87<251.3 498>
AnchorPoint: "below" 358 0 basechar 0
AnchorPoint: "above" 358 716 basechar 0
Fore
95 0 m 1
 95 694 l 1
 341 694 l 2
 404 694 454 686 513 647 c 0
 611 582 666 462 666 342 c 0
 666 166 548 20 391 2 c 0
 375 0 359 0 343 0 c 2
 95 0 l 1
182 56 m 1
 325 56 l 2
 357 56 450.602 56.3008 520 148 c 0
 561.761 203.181 579 272 579 341 c 0
 579 494 504.95 567.93 466 596 c 0
 418.939 629.916 376 638 325 638 c 2
 182 638 l 1
 182 56 l 1
EndSplineSet
KernsSLIFO: 226 -28 11 0 157 -28 11 0 94 -28 11 0 91 -28 11 0 203 -28 11 0 202 -28 11 0 201 -28 11 0 200 -28 11 0 199 -28 11 0 198 -28 11 0 197 -28 11 0 134 -28 11 0 133 -28 11 0 70 -28 11 0 92 -28 11 0 93 -28 11 0
EndChar
StartChar: E
Encoding: 69 69 74
Width: 597
Flags: HW
TeX: 694 0 32767 32767
HStem: 0 70<94 555> 329 61<184 514> 625 66<94 541>
VStem: 94 90<0 691>
AnchorPoint: "ogonek" 324 0 basechar 0
AnchorPoint: "below" 324 0 basechar 0
AnchorPoint: "above" 324 716 basechar 0
Fore
94 0 m 1
 94 691 l 1
 541 691 l 1
 541 625 l 1
 184 627 l 1
 184 390 l 1
 514 390 l 1
 514 329 l 1
 184 329 l 1
 184 70 l 1
 555 72 l 5
 555 0 l 1
 94 0 l 1
EndSplineSet
EndChar
StartChar: F
Encoding: 70 70 75
Width: 569
Flags: HW
TeX: 694 0 32767 32767
HStem: 0 21G<94 184> 315 61<184 485> 625 66<94 527>
VStem: 94 90<0 691>
AnchorPoint: "below" 310 0 basechar 0
AnchorPoint: "above" 310 716 basechar 0
Fore
94 0 m 1
 94 691 l 1
 527 691 l 1
 527 625 l 1
 184 627 l 5
 184 376 l 1
 485 376 l 1
 485 315 l 1
 184 315 l 1
 184 0 l 1
 94 0 l 1
EndSplineSet
KernsSLIFO: 1747 -28 11 0 1746 -28 11 0 86 -28 11 0 204 -28 11 0 140 -28 11 0 136 -28 11 0 135 -28 11 0 76 -28 11 0 72 -28 11 0 221 -28 11 0 220 -28 11 0 219 -28 11 0 218 -28 11 0 217 -28 11 0 216 -28 11 0 215 -28 11 0 147 -28 11 0 84 -28 11 0 203 -83 11 0 202 -83 11 0 201 -83 11 0 200 -83 11 0 199 -83 11 0 198 -83 11 0 197 -83 11 0 134 -83 11 0 133 -83 11 0 70 -83 11 0 253 -28 11 0 235 -28 11 0 127 -28 11 0 124 -28 11 0 117 -28 11 0 115 -28 11 0 114 -28 11 0 108 -28 11 0 105 -28 11 0 104 -28 11 0 120 -28 11 0 123 -28 11 0 119 -28 11 0 122 -28 11 0 126 -28 11 0 106 -28 11 0 102 -28 11 0 116 -28 11 0
EndChar
StartChar: G
Encoding: 71 71 76
Width: 667
Flags: HW
TeX: 694 0 32767 32767
HStem: -22 64<220.4 472.9> 237 62<388 521> 652 64<208.4 500.9>
VStem: 66 90<124.4 553.4> 521 78<63 237>
AnchorPoint: "below" 391 0 basechar 0
AnchorPoint: "above" 391 716 basechar 0
Fore
66 347 m 0
 66 541 200 716 391 716 c 0
 478 716 533 697 591 668 c 1
 576 585 l 1
 520 627 476 652 393 652 c 0
 251 652 156 506 156 348 c 0
 156 176 260 42 392 42 c 0
 466 42 514 62 521 63 c 1
 521 237 l 1
 388 237 l 1
 388 299 l 1
 599 299 l 1
 599 26 l 1
 523 -9 454 -22 391 -22 c 0
 208 -22 66 144 66 347 c 0
EndSplineSet
EndChar
StartChar: H
Encoding: 72 72 77
Width: 708
Flags: W
TeX: 694 0 32767 32767
HStem: 0 21G<94 184 524 614> 330 62<184 524> 674 20G<94 184 524 614>
VStem: 94 90<0 330 392 694> 524 90<0 330 392 694>
AnchorPoint: "below" 354 0 basechar 0
AnchorPoint: "above" 354 716 basechar 0
Fore
94 0 m 1
 94 694 l 1
 184 694 l 1
 184 392 l 1
 524 392 l 1
 524 694 l 1
 614 694 l 1
 614 0 l 1
 524 0 l 1
 524 330 l 1
 184 330 l 1
 184 0 l 1
 94 0 l 1
EndSplineSet
EndChar
StartChar: I
Encoding: 73 73 78
Width: 278
Flags: W
TeX: 694 0 32767 32767
HStem: 0 21G<94 184> 674 20G<94 184>
VStem: 94 90<0 694>
AnchorPoint: "ogonek" 139 0 basechar 0
AnchorPoint: "below" 139 0 basechar 0
AnchorPoint: "above" 139 716 basechar 0
Fore
94 0 m 1
 94 694 l 1
 184 694 l 1
 184 0 l 1
 94 0 l 1
EndSplineSet
KernsSLIFO: 1443 28 11 0 78 28 11 0
EndChar
StartChar: J
Encoding: 74 74 79
Width: 472
Flags: HW
TeX: 694 0 32767 32767
HStem: -22 62<145.7 257.1> 674 20G<301 388>
VStem: 301 87<34.8 694>
AnchorPoint: "below" 214 0 basechar 0
AnchorPoint: "above" 344 716 basechar 0
Fore
41 20 m 1
 54 95 l 1
 63 88 106 40 183 40 c 0
 240 40 301 63 301 157 c 2
 301 694 l 1
 388 694 l 1
 388 155 l 2
 388 13 293 -22 212 -22 c 0
 161 -22 102 -11 41 20 c 1
EndSplineSet
EndChar
StartChar: K
Encoding: 75 75 80
Width: 694
Flags: HW
TeX: 694 0 32767 32767
HStem: -0 21G<95 181 557 651> 674 20G<95 181 544 637>
VStem: 95 86<0 228 323 694>
AnchorPoint: "below" 373 0 basechar 0
AnchorPoint: "above" 373 716 basechar 0
Fore
95 -0 m 1
 95 694 l 1
 181 694 l 1
 181 323 l 1
 544 694 l 1
 637 694 l 1
 369 420 l 1
 369 419 l 1
 651 -0 l 1
 557 -0 l 1
 314 363 l 1
 181 228 l 1
 181 -0 l 1
 95 -0 l 1
EndSplineSet
KernsSLIFO: 86 -28 11 0 204 -28 11 0 140 -28 11 0 136 -28 11 0 135 -28 11 0 76 -28 11 0 72 -28 11 0 253 -28 11 0 252 -28 11 0 251 -28 11 0 250 -28 11 0 249 -28 11 0 248 -28 11 0 247 -28 11 0 179 -28 11 0 116 -28 11 0 123 -28 11 0
EndChar
StartChar: L
Encoding: 76 76 81
Width: 542
Flags: HW
TeX: 694 0 32767 32767
HStem: 0 66<94 499> 674 20G<94 184>
VStem: 94 90<0 694>
AnchorPoint: "below" 296 0 basechar 0
AnchorPoint: "above" 296 716 basechar 0
Fore
94 0 m 1
 94 694 l 1
 184 694 l 1
 184 65 l 1
 499 66 l 1
 499 0 l 1
 94 0 l 1
EndSplineSet
KernsSLIFO: 92 -111 11 0 91 -111 11 0 226 -83 11 0 157 -83 11 0 94 -83 11 0 154 -83 11 0 153 -83 11 0 89 -83 11 0
EndChar
StartChar: M
Encoding: 77 77 82
Width: 875
Flags: HW
TeX: 694 0 32767 32767
HStem: -0 21G<100 178 697 775> 674 20G<100 214 660 775>
VStem: 100 78<-0 694> 697 78<-0 694>
AnchorPoint: "below" 438 0 basechar 0
AnchorPoint: "above" 438 716 basechar 0
Fore
100 -0 m 1
 100 694 l 1
 214 694 l 1
 368 293 l 2
 409 181 433 116 437 92 c 1
 438 92 l 1
 443 126 499 268 506 292 c 2
 660 694 l 1
 775 694 l 1
 775 -0 l 1
 697 -0 l 1
 697 592 l 2
 697 612 696 624 696 624 c 1
 696 624 693 606 686 587 c 2
 626 423 l 25
 472 22 l 1
 400 22 l 1
 250 411 l 2
 212 517 187 580 178 624 c 1
 178 -0 l 1
 100 -0 l 1
EndSplineSet
EndChar
StartChar: N
Encoding: 78 78 83
Width: 708
Flags: W
TeX: 694 0 32767 32767
HStem: -0 21G<95 173 486 611> 674 20G<95 220 533 611>
VStem: 95 78<0 624> 533 78<70 694>
AnchorPoint: "below" 353 0 basechar 0
AnchorPoint: "above" 353 716 basechar 0
Fore
95 -0 m 1
 95 694 l 1
 220 694 l 1
 494 150 l 1
 533 70 l 1
 533 694 l 1
 611 694 l 1
 611 -0 l 1
 486 -0 l 1
 212 544 l 1
 173 624 l 1
 173 -0 l 1
 95 -0 l 1
EndSplineSet
EndChar
StartChar: O
Encoding: 79 79 84
Width: 736
Flags: HW
TeX: 694 0 32767 32767
HStem: -22 65<194.1 532.1> 652 64<207.1 517.8>
VStem: 55 90<139.3 582.6> 590 89<128.9 594.3>
AnchorPoint: "ogonek" 367 0 basechar 0
AnchorPoint: "below" 367 0 basechar 0
AnchorPoint: "above" 368 716 basechar 0
Fore
55 345 m 0
 55 554 199 716 368 716 c 0
 534 716 679 555 679 345 c 0
 679 143 542 -22 367 -22 c 0
 204 -22 55 132 55 345 c 0
145 359 m 0
 145 190 234 43 367 43 c 0
 494 43 590 182 590 359 c 0
 590 540 483 652 367 652 c 0
 244 652 145 531 145 359 c 0
EndSplineSet
KernsSLIFO: 226 -28 11 0 157 -28 11 0 94 -28 11 0 91 -28 11 0 203 -28 11 0 202 -28 11 0 201 -28 11 0 200 -28 11 0 199 -28 11 0 198 -28 11 0 197 -28 11 0 134 -28 11 0 133 -28 11 0 70 -28 11 0 92 -28 11 0 93 -28 11 0
EndChar
StartChar: P
Encoding: 80 80 85
Width: 639
Flags: HW
TeX: 694 0 32767 32767
HStem: 0 21G<95 185> 289 58<185 508.7> 638 56<182 401.2>
VStem: 95 87<0 289 347 638> 501 81<416.3 567.1>
AnchorPoint: "below" 316 0 basechar 0
AnchorPoint: "above" 316 716 basechar 0
Fore
95 0 m 1
 95 694 l 1
 331 694 l 2
 385 694 434 688 485 655 c 0
 546 618 582 558 582 493 c 0
 582 409 513 288 335 288 c 0
 324 288 313 289 302 289 c 2
 185 289 l 1
 185 0 l 1
 95 0 l 1
182 347 m 1
 315 347 l 2
 464 347 501 434 501 493 c 0
 501 550 464 638 315 638 c 2
 182 638 l 1
 182 347 l 1
EndSplineSet
KernsSLIFO: 49 -83 11 0 51 -83 11 0 235 -28 11 0 234 -28 11 0 233 -28 11 0 232 -28 11 0 231 -28 11 0 230 -28 11 0 229 -28 11 0 166 -28 11 0 165 -28 11 0 102 -28 11 0 240 -28 11 0 239 -28 11 0 238 -28 11 0 237 -28 11 0 171 -28 11 0 170 -28 11 0 106 -28 11 0 253 -28 11 0 252 -28 11 0 251 -28 11 0 250 -28 11 0 249 -28 11 0 248 -28 11 0 247 -28 11 0 179 -28 11 0 116 -28 11 0 203 -83 11 0 202 -83 11 0 201 -83 11 0 200 -83 11 0 199 -83 11 0 198 -83 11 0 197 -83 11 0 134 -83 11 0 133 -83 11 0 70 -83 11 0
EndChar
StartChar: Q
Encoding: 81 81 86
Width: 736
Flags: HW
TeX: 694 124 32767 32767
HStem: -22 64<201.6 406.922> 652 64<314.898 529.8>
VStem: 55 87<120.4 563.4> 593 87<145.1 578>
AnchorPoint: "below" 367 -195 basechar 0
AnchorPoint: "above" 367 716 basechar 0
Fore
55 345 m 0
 55 513 153 674 310 710 c 0
 329 714 348 716 367 716 c 0
 536 716 680 554 680 345 c 0
 680 152 565 58 533 33 c 1
 652 -125 l 1
 547 -125 l 1
 463 -5 l 1
 436 -13 411 -22 367 -22 c 0
 199 -22 55 137 55 345 c 0
142 344 m 0
 142 172 240 42 368 42 c 0
 396 42 413 49 424 51 c 1
 323 195 l 1
 412 195 l 1
 490 90 l 1
 491 90 l 1
 523 119 593 191 593 344 c 0
 593 524 492 652 366 652 c 2
 365 652 l 2
 246 650 142 530 142 344 c 0
EndSplineSet
EndChar
StartChar: R
Encoding: 82 82 87
Width: 646
Flags: HW
TeX: 694 0 32767 32767
HStem: 0 21G<95 182 527 617> 316 62<182 340> 638 56<182 515.9>
VStem: 95 87<0 316 378 638> 508 81<447.2 575.9>
AnchorPoint: "below" 316 0 basechar 0
AnchorPoint: "above" 316 716 basechar 0
Fore
95 0 m 1
 95 694 l 1
 321 694 l 2
 523 694 589 579 589 508 c 0
 589 437 536 360 418 326 c 1
 617 0 l 1
 527 0 l 1
 340 316 l 1
 182 316 l 1
 182 0 l 1
 95 0 l 1
182 378 m 1
 296 378 l 2
 331 378 369.963 376.107 413 391 c 0
 479.943 414.166 508 461 508 507 c 0
 508 560 470 638 317 638 c 2
 182 638 l 1
 182 378 l 1
EndSplineSet
EndChar
StartChar: S
Encoding: 83 83 88
Width: 555
Flags: HW
TeX: 694 0 32767 32767
HStem: -22 69<153.4 386.1> 649 67<161.7 382.7>
VStem: 55 80<467 607.7> 419 80<89.3 247.9>
AnchorPoint: "below" 273 0 basechar 0
AnchorPoint: "above" 281 716 basechar 0
Fore
44 47 m 1
 59 130 l 1
 107 91 175 47 273 47 c 0
 360 47 419 110 419 179 c 0
 419 232 384 279 333 299 c 0
 264 327 150 320 84 421 c 0
 67 448 56 479 55 519 c 0
 55 616 140 716 281 716 c 0
 361 716 412 696 464 668 c 1
 450 585 l 1
 401 624 359 649 280 649 c 0
 189 649 135 590 135 531 c 0
 135 481 171 442 215 424 c 0
 244 413 330 397 365 382 c 0
 429 356 499 289 499 189 c 0
 499 81 410 -22 273 -22 c 0
 181 -22 107 7 44 47 c 1
EndSplineSet
EndChar
StartChar: T
Encoding: 84 84 89
Width: 680
Flags: HW
TeX: 694 0 32767 32767
HStem: 0 21G<295 384> 623 66<35 643>
VStem: 295 89<0 624>
AnchorPoint: "below" 340 0 basechar 0
AnchorPoint: "above" 340 716 basechar 0
Fore
35 623 m 1
 35 689 l 5
 643 689 l 1
 643 623 l 1
 384 624 l 1
 384 0 l 1
 295 0 l 1
 295 624 l 1
 35 623 l 1
EndSplineSet
KernsSLIFO: 1747 -83 11 0 1746 -83 11 0 203 -83 11 0 202 -83 11 0 201 -83 11 0 200 -83 11 0 199 -83 11 0 198 -83 11 0 197 -83 11 0 134 -83 11 0 133 -83 11 0 70 -83 11 0 127 -83 11 0 125 -83 11 0 124 -83 11 0 123 -83 11 0 120 -83 11 0 117 -83 11 0 108 -83 11 0 105 -83 11 0 104 -83 11 0 30 -83 11 0 115 -83 11 0 122 -83 11 0 102 -83 11 0 119 -83 11 0 116 -83 11 0 106 -83 11 0 126 -83 11 0
EndChar
StartChar: U
Encoding: 85 85 90
Width: 687
Flags: HW
TeX: 694 0 32767 32767
HStem: -22 56<281 385> 674 20G<94 184 514 593>
VStem: 94 90<257 694> 514 79<212 694>
AnchorPoint: "ogonek" 346 0 basechar 0
AnchorPoint: "below" 346 0 basechar 0
AnchorPoint: "above" 344 716 basechar 0
Fore
94 257 m 2
 94 694 l 1
 184 694 l 1
 184 279 l 2
 184 252 182 224 186 197 c 0
 195 117 248 34 346 34 c 0
 421 34 505 87 514 212 c 2
 514 694 l 1
 593 694 l 1
 593 266 l 2
 593 242 603 136 518 50 c 0
 484 16 424 -22 346 -22 c 0
 216 -22 113 75 96 196 c 0
 94 217 94 237 94 257 c 2
EndSplineSet
EndChar
StartChar: V
Encoding: 86 86 91
Width: 667
Flags: W
TeX: 694 0 32767 32767
HStem: -0 21G<287 379> 674 20G<14 107 574 652>
AnchorPoint: "below" 333 0 basechar 0
AnchorPoint: "above" 332 716 basechar 0
Fore
14 694 m 1
 107 694 l 1
 260 300 l 2
 311 163 329 117 341 70 c 1
 347 112 408 260 419 295 c 2
 574 694 l 1
 652 694 l 1
 379 -0 l 1
 287 -0 l 1
 14 694 l 1
EndSplineSet
KernsSLIFO: 1747 -28 11 0 1746 -28 11 0 86 -28 11 0 204 -28 11 0 140 -28 11 0 136 -28 11 0 135 -28 11 0 76 -28 11 0 72 -28 11 0 221 -28 11 0 220 -28 11 0 219 -28 11 0 218 -28 11 0 217 -28 11 0 216 -28 11 0 215 -28 11 0 147 -28 11 0 84 -28 11 0 203 -83 11 0 202 -83 11 0 201 -83 11 0 200 -83 11 0 199 -83 11 0 198 -83 11 0 197 -83 11 0 134 -83 11 0 133 -83 11 0 70 -83 11 0 253 -28 11 0 235 -28 11 0 127 -28 11 0 124 -28 11 0 117 -28 11 0 115 -28 11 0 114 -28 11 0 108 -28 11 0 105 -28 11 0 104 -28 11 0 120 -28 11 0 123 -28 11 0 119 -28 11 0 122 -28 11 0 126 -28 11 0 106 -28 11 0 102 -28 11 0 116 -28 11 0
Position: 0 0 'ITLC' dx=0 dy=0 dh=13 dv=0
EndChar
StartChar: W
Encoding: 87 87 92
Width: 944
Flags: HW
TeX: 694 0 32767 32767
HStem: 0 21G<218 298 639 726> 674 20G<14 101 435 517 857 929>
AnchorPoint: "below" 472 0 basechar 0
AnchorPoint: "above" 472 716 basechar 0
Fore
14 694 m 1
 101 694 l 1
 217 287 l 2
 247 180 263 114 268 70 c 1
 272 115 302 225 320 290 c 2
 435 694 l 1
 517 694 l 1
 517 694 583 476 635 283 c 2
 664 175 l 26
 691 71 685 80 687 70 c 1
 690 104 724 229 740 289 c 2
 857 694 l 1
 929 694 l 1
 726 0 l 1
 639 0 l 1
 532 369 l 2
 476 577 483 549 469 624 c 1
 465 585 429 454 410 388 c 2
 298 0 l 1
 218 0 l 1
 14 694 l 1
EndSplineSet
KernsSLIFO: 1747 -28 11 0 1746 -28 11 0 86 -28 11 0 204 -28 11 0 140 -28 11 0 136 -28 11 0 135 -28 11 0 76 -28 11 0 72 -28 11 0 221 -28 11 0 220 -28 11 0 219 -28 11 0 218 -28 11 0 217 -28 11 0 216 -28 11 0 215 -28 11 0 147 -28 11 0 84 -28 11 0 203 -83 11 0 202 -83 11 0 201 -83 11 0 200 -83 11 0 199 -83 11 0 198 -83 11 0 197 -83 11 0 134 -83 11 0 133 -83 11 0 70 -83 11 0 253 -28 11 0 235 -28 11 0 127 -28 11 0 124 -28 11 0 117 -28 11 0 115 -28 11 0 114 -28 11 0 108 -28 11 0 105 -28 11 0 104 -28 11 0 120 -28 11 0 123 -28 11 0 119 -28 11 0 122 -28 11 0 126 -28 11 0 106 -28 11 0 102 -28 11 0 116 -28 11 0
Position: 0 0 'ITLC' dx=0 dy=0 dh=13 dv=0
EndChar
StartChar: X
Encoding: 88 88 93
Width: 667
Flags: HW
TeX: 694 0 32767 32767
HStem: -0 21G<14 110 547 652> 674 20G<28 133 514 610>
AnchorPoint: "below" 333 0 basechar 0
AnchorPoint: "above" 333 716 basechar 0
Fore
14 -0 m 1
 282 365 l 1
 282 366 l 1
 28 694 l 1
 133 694 l 1
 326 433 l 1
 514 694 l 1
 610 694 l 1
 369 366 l 1
 369 365 l 1
 652 -0 l 1
 547 -0 l 1
 326 305 l 1
 110 -0 l 1
 14 -0 l 1
EndSplineSet
KernsSLIFO: 86 -28 11 0 204 -28 11 0 140 -28 11 0 136 -28 11 0 135 -28 11 0 76 -28 11 0 72 -28 11 0 221 -28 11 0 220 -28 11 0 219 -28 11 0 218 -28 11 0 217 -28 11 0 216 -28 11 0 215 -28 11 0 147 -28 11 0 84 -28 11 0
EndChar
StartChar: Y
Encoding: 89 89 94
Width: 667
Flags: HW
TeX: 694 0 32767 32767
HStem: -0 21G<289 376> 674 20G<2 107 574 662>
VStem: 289 87<0 278>
AnchorPoint: "below" 332 0 basechar 0
AnchorPoint: "above" 332 716 basechar 0
Fore
2 694 m 1
 107 694 l 1
 254 481 l 2
 298 415 326 376 341 348 c 1
 368 397 572 691 574 694 c 1
 662 694 l 1
 376 278 l 1
 376 -0 l 1
 289 -0 l 1
 289 278 l 1
 2 694 l 1
EndSplineSet
KernsSLIFO: 1747 -83 11 0 1746 -83 11 0 203 -83 11 0 202 -83 11 0 201 -83 11 0 200 -83 11 0 199 -83 11 0 198 -83 11 0 197 -83 11 0 134 -83 11 0 133 -83 11 0 70 -83 11 0 127 -83 11 0 125 -83 11 0 124 -83 11 0 123 -83 11 0 120 -83 11 0 117 -83 11 0 108 -83 11 0 105 -83 11 0 104 -83 11 0 30 -83 11 0 115 -83 11 0 122 -83 11 0 102 -83 11 0 119 -83 11 0 116 -83 11 0 106 -83 11 0
Position: 0 0 'ITLC' dx=0 dy=0 dh=24 dv=0
EndChar
StartChar: Z
Encoding: 90 90 95
Width: 611
Flags: HW
TeX: 694 0 32767 32767
HStem: -0 65<55 560> 631 63<69 555>
AnchorPoint: "below" 308 0 basechar 0
AnchorPoint: "above" 308 716 basechar 0
Fore
55 -0 m 1
 55 25 l 2
 55 44 55 44 68 63 c 2
 440 632 l 1
 69 631 l 1
 69 694 l 5
 555 694 l 1
 555 670 l 2
 555 651 554 652 542 633 c 2
 170 65 l 1
 560 66 l 1
 560 -0 l 1
 55 -0 l 1
EndSplineSet
EndChar
StartChar: bracketleft
Encoding: 91 91 96
Width: 289
Flags: W
TeX: 746 249 32767 32767
HStem: -250 61<175 266> 689 61<175 266>
VStem: 100 75<-189 689> 100 166<-250 -189 689 750>
Fore
100 -250 m 1xd0
 100 750 l 1
 266 750 l 1
 266 689 l 1xd0
 175 689 l 1
 175 -189 l 1xe0
 266 -189 l 1
 266 -250 l 1
 100 -250 l 1xd0
EndSplineSet
EndChar
StartChar: backslash
Encoding: 92 92 97
Width: 500
Flags: HW
TeX: 746 249 32767 32767
VStem: 56 387<-219 719>
Fore
56 719 m 0
 56 737 71 749 86 749 c 0
 110 749 117 724 121 711 c 2
 438 -197 l 2
 440 -204 443 -211 443 -219 c 0
 443 -233 431 -250 413 -250 c 0
 387 -250 381 -220 376 -206 c 2
 57 709 l 2
 56 712 56 716 56 719 c 0
EndSplineSet
EndChar
StartChar: bracketright
Encoding: 93 93 98
Width: 289
Flags: W
TeX: 746 249 32767 32767
HStem: -250 61<21 111> 689 61<21 111>
VStem: 21 166<-250 -189 689 750> 111 76<-189 689>
Fore
21 -189 m 1xe0
 111 -189 l 1
 111 689 l 1xd0
 21 689 l 1
 21 750 l 1
 187 750 l 1
 187 -250 l 1
 21 -250 l 1
 21 -189 l 1xe0
EndSplineSet
EndChar
StartChar: asciicircum
Encoding: 94 94 99
Width: 611
Flags: HW
TeX: 722 0 32767 32767
HStem: 445 185<194 274>
VStem: 133 344<445 445>
Fore
133 445 m 1
 274 630 l 1
 336 630 l 1
 477 445 l 1
 416 445 l 1
 305 581 l 1
 194 445 l 1
 133 445 l 1
EndSplineSet
EndChar
StartChar: underscore
Encoding: 95 95 100
Width: 778
Flags: W
TeX: 0 247 32767 32767
HStem: -248 40<111.5 660 118 660 660 665>
Fore
84 -228 m 0
 84 -206 107 -208 118 -208 c 2
 660 -208 l 2
 671 -208 693 -206 693 -228 c 0
 693 -236 689 -248 665 -248 c 2
 118 -248 l 2
 105 -248 84 -248 84 -228 c 0
EndSplineSet
EndChar
StartChar: a
Encoding: 97 97 102
Width: 480
Flags: HW
TeX: 441 0 32767 32767
HStem: -11 62<141.1 219.1> 193 52<227.1 322> 401 60<148.9 263.253>
VStem: 44 73<65.9 195.9> 322 78<0 35 46.8 193>
AnchorPoint: "ogonek" 362 0 basechar 0
AnchorPoint: "below" 236 0 basechar 0
AnchorPoint: "above" 236 461 basechar 0
Fore
44 113 m 0
 44 219 219 244 322 245 c 1
 322 279 l 2
 321 311 320 341 296 371 c 0
 272 400 246 401 233 401 c 0
 159 401 117 373 83 350 c 1
 77 417 l 1
 124 444 169 461 236 461 c 0
 330 461 394 387 400 305 c 2
 400 0 l 1
 324 0 l 1
 324 35 l 1
 271 -2 205 -11 158 -11 c 0
 74 -11 44 67 44 113 c 0
117 114 m 0
 117 77 157 51 210 51 c 0
 256 51 322 66 322 130 c 2
 322 193 l 1
 249 192 117 177 117 114 c 0
EndSplineSet
KernsSLIFO: 124 -28 11 0 258 -28 11 0 189 -28 11 0 126 -28 11 0 119 -28 11 0
EndChar
StartChar: b
Encoding: 98 98 103
Width: 517
Flags: HW
TeX: 722 0 32767 32767
HStem: -11 61<220.3 332.1> 394 61<266 336.2> 702 20G<81 156>
VStem: 81 78<0 46 107 368.1 397 722> 401 79<53.7 380>
AnchorPoint: "below" 280 0 basechar 0
AnchorPoint: "above" 280 722 basechar 0
Fore
81 0 m 1
 81 722 l 1
 156 722 l 1
 156 397 l 1
 221 448 285 455 316 455 c 0
 415 455 480 344 480 224 c 0
 480 93 398 -11 293 -11 c 0
 234 -11 193 16 159 46 c 1
 159 0 l 1
 81 0 l 1
159 133 m 2
 159 107 163 108 176 90 c 0
 199 61 229 50 258 50 c 0
 315 50 401 92 401 223 c 0
 401 356 320 394 266 394 c 0
 215 394 159 357 159 320 c 2
 159 133 l 2
EndSplineSet
KernsSLIFO: 1747 28 11 0 1746 28 11 0 124 -28 11 0 258 -28 11 0 189 -28 11 0 126 -28 11 0 119 -28 11 0 118 28 11 0 236 28 11 0 168 28 11 0 167 28 11 0 104 28 11 0 105 28 11 0 125 -28 11 0 253 28 11 0 252 28 11 0 251 28 11 0 250 28 11 0 249 28 11 0 248 28 11 0 247 28 11 0 179 28 11 0 116 28 11 0 240 28 11 0 239 28 11 0 238 28 11 0 237 28 11 0 171 28 11 0 170 28 11 0 106 28 11 0
EndChar
StartChar: c
Encoding: 99 99 104
Width: 444
Flags: HW
TeX: 441 0 32767 32767
HStem: -11 64<143.8 341.7> 397 64<129.2 335.6>
VStem: 35 78<96.9 336.1>
AnchorPoint: "below" 252 0 basechar 0
AnchorPoint: "above" 255 461 basechar 0
Fore
35 223 m 0
 35 339 115 461 255 461 c 0
 317 461 349 452 410 417 c 1
 398 351 l 1
 359 375 333 397 254 397 c 0
 158 397 113 310 113 223 c 0
 113 126 169 53 253 53 c 0
 331 53 378 85 410 107 c 1
 415 40 l 1
 370 10 321 -11 252 -11 c 0
 129 -11 35 94 35 223 c 0
EndSplineSet
EndChar
StartChar: d
Encoding: 100 100 105
Width: 517
Flags: HW
TeX: 722 0 32767 32767
HStem: -11 62<177.8 292.8> 394 62<200 274.3> 702 20G<358 434>
VStem: 35 78<57.2 392.3> 355 79<0 52 91.1 343.071>
AnchorPoint: "below" 234 0 basechar 0
AnchorPoint: "above" 234 722 basechar 0
Fore
35 221 m 0
 35 353 113 456 213 456 c 0
 275 456 323 429 358 401 c 1
 358 722 l 1
 434 722 l 1
 434 0 l 1
 355 0 l 1
 355 52 l 1
 321 20 273 -11 207 -11 c 0
 109 -11 35 95 35 221 c 0
113 222 m 0
 113 90 194 51 248 51 c 0
 307 51 355 101 355 134 c 2
 355 325 l 2
 355 341 353 347 334 364 c 0
 304 393 271 394 260 394 c 2
 258 394 l 2
 200 394 113 353 113 222 c 0
EndSplineSet
EndChar
StartChar: e
Encoding: 101 101 106
Width: 444
Flags: HW
TeX: 441 0 32767 32767
HStem: -11 62<144.1 333.9> 220 55<109 357> 399 62<137.2 273.7>
VStem: 34 70<127.375 226>
AnchorPoint: "ogonek" 252 0 basechar 0
AnchorPoint: "below" 252 0 basechar 0
AnchorPoint: "above" 236 461 basechar 0
Fore
34 226 m 0
 34 351 121 461 236 461 c 0
 307 461 405 420 414 249 c 2
 414 220 l 1
 104 220 l 1
 108 125 169 51 252 51 c 0
 320 51 367 79 404 106 c 1
 410 40 l 1
 367 11 315 -11 252 -11 c 0
 121 -11 34 102 34 226 c 0
109 275 m 1
 357 275 l 1
 341 387 265 399 236 399 c 0
 160 399 120 325 109 275 c 1
EndSplineSet
KernsSLIFO: 91 -83 11 0
EndChar
StartChar: f
Encoding: 102 102 107
Width: 305
Flags: HW
TeX: 722 0 32767 32767
HStem: 0 21G<101 176> 386 59<27 101 176 286> 672 61<217.9 308.009>
VStem: 100 73<0 386 445 675.9>
AnchorPoint: "above" 268 722 basechar 0
AnchorPoint: "below" 138 0 basechar 0
Fore
27 386 m 1
 27 445 l 1
 101 445 l 1
 101 518 l 2
 101 526 100 534 100 542 c 0
 100 666 178 733 268 733 c 0
 299 733 324 728 347 722 c 1
 347 655 l 1
 324 664 298 672 266 672 c 0
 229 672 173 654 173 581 c 2
 173 445 l 1
 286 445 l 1
 286 386 l 1
 176 386 l 1
 176 0 l 1
 101 0 l 1
 101 386 l 1
 27 386 l 1
EndSplineSet
KernsSLIFO: 1726 69 11 0 98 69 11 0 46 69 11 0 38 69 11 0 68 69 11 0 23 69 11 0 22 69 11 0 101 69 11 0 44 69 11 0
Position: 0 0 'ITLC' dx=0 dy=0 dh=69 dv=0
EndChar
StartChar: g
Encoding: 103 103 108
Width: 500
Flags: HW
TeX: 441 194 32767 32767
HStem: -206 57<176.8 352.3> -3 72<136.5 335.8> 129 58<151.8 267.5> 392 63<409.518 485> 398 57<174.2 270.4>
VStem: 27 70<-143.8 -34.6> 62 70<251.619 399.9> 66 53<90.8 145.04> 311 70<182.5 347.9> 401 70<-131.8 -40.9997>
AnchorPoint: "below" 249 -195 basechar 0
AnchorPoint: "above" 221 461 basechar 0
Fore
27 -71 m 0xf4c0
 27 -30 52 9 91 32 c 1
 75 55 66 76 66 108 c 0xf1c0
 66 140 77 168 95 192 c 1
 95 193 l 1
 65 233 62 272 62 292 c 0
 62 375 126 455 221 455 c 0xeac0
 259 455 286 444 319 422 c 1
 317 424 l 1
 367 445 420 455 474 455 c 1
 485 392 l 1
 465 394 446 395 426 395 c 0
 400 395 368 392 351 391 c 1
 342 399 l 1
 369 364 381 335 381 292 c 0
 381 207 314 129 221 129 c 0
 165 129 133 158 130 159 c 1
 120 139 119 129 119 122 c 0xf1c0
 119 98 131 69 175 69 c 0
 250 69 l 0
 316 69 437 67 466 -33 c 0
 469 -45 471 -57 471 -70 c 0
 471 -148 371 -206 249 -206 c 0
 126 -206 27 -148 27 -71 c 0xf4c0
97 -71 m 0xe4c0
 97 -127 193 -149 247 -149 c 0
 328 -149 401 -118 401 -72 c 0
 401 -31 360 -3 252 -3 c 0
 189 -3 l 2
 160 -4 l 2
 119 -7 97 -43 97 -71 c 0xe4c0
132 292 m 0
 132 226 168 187 222 187 c 0
 257 187 311 208 311 293 c 0
 311 358 275 398 221 398 c 0xeac0
 185 398 132 377 132 292 c 0
EndSplineSet
KernsSLIFO: 111 28 11 0
Position: 0 0 'ITLC' dx=0 dy=0 dh=13 dv=0
EndChar
StartChar: h
Encoding: 104 104 109
Width: 517
Flags: HW
TeX: 722 0 32767 32767
HStem: -0 21G<80 158 358 436> 394 61<209.3 373.1> 702 20G<80 155>
VStem: 80 78<0 336.2 384 722> 358 78<0 357.7>
AnchorPoint: "below" 258 0 basechar 0
AnchorPoint: "above" 258 722 basechar 0
Fore
80 -0 m 1
 80 722 l 1
 155 722 l 1
 155 384 l 1
 188 422 230 455 299 455 c 0
 432 455 436 349 436 288 c 2
 436 -0 l 1
 358 -0 l 1
 358 281 l 2
 358 340 347 394 260 394 c 0
 184 394 158 314 158 240 c 2
 158 -0 l 1
 80 -0 l 1
EndSplineSet
EndChar
StartChar: j
Encoding: 106 106 111
Width: 267
Flags: HW
TeX: 677 194 32767 32767
HStem: -205 64<-3.4 85.3> 425 20G<110 185> 590 89<96 186>
VStem: 96 90<590 679> 110 75<-98.3115 445>
AnchorPoint: "below" 92 -195 basechar 0
Fore
-61 -171 m 1
 -46 -110 l 1
 -21 -130 1 -141 32 -141 c 0
 73 -141 101 -117 108 -91 c 0
 110 -83 110 -74 110 -65 c 2
 110 445 l 1
 185 445 l 1
 185 -50 l 2xe8
 185 -172 110 -205 59 -205 c 0
 11 -205 -30 -189 -61 -171 c 1
EndSplineSet
Refer: 361 183 S 1 0 0 1 23 415 2
EndChar
StartChar: k
Encoding: 107 107 112
Width: 489
Flags: HW
TeX: 722 0 32767 32767
HStem: 0 21G<83 153 389 471> 425 20G<359 449> 702 20G<83 155>
VStem: 83 70<0 142 236 722>
AnchorPoint: "below" 277 0 basechar 0
AnchorPoint: "above" 277 722 basechar 0
Fore
83 0 m 1
 83 722 l 1
 155 722 l 1
 155 236 l 1
 359 445 l 1
 449 445 l 1
 281 273 l 1
 471 0 l 1
 389 0 l 1
 233 224 l 1
 153 142 l 1
 153 0 l 1
 83 0 l 1
EndSplineSet
KernsSLIFO: 236 -28 11 0 168 -28 11 0 167 -28 11 0 104 -28 11 0 253 -28 11 0 252 -28 11 0 251 -28 11 0 250 -28 11 0 249 -28 11 0 248 -28 11 0 247 -28 11 0 179 -28 11 0 116 -28 11 0 235 -28 11 0 234 -28 11 0 233 -28 11 0 232 -28 11 0 231 -28 11 0 230 -28 11 0 229 -28 11 0 166 -28 11 0 165 -28 11 0 102 -28 11 0 240 -28 11 0 239 -28 11 0 238 -28 11 0 237 -28 11 0 171 -28 11 0 170 -28 11 0 106 -28 11 0 91 -83 11 0 92 -83 11 0
EndChar
StartChar: l
Encoding: 108 108 113
Width: 239
Flags: W
TeX: 722 0 32767 32767
HStem: 0 21G<81 156> 702 20G<81 156>
VStem: 81 75<0 722>
AnchorPoint: "below" 118 0 basechar 0
AnchorPoint: "above" 118 722 basechar 0
Fore
81 0 m 1
 81 722 l 1
 156 722 l 1
 156 0 l 1
 81 0 l 1
EndSplineSet
EndChar
StartChar: m
Encoding: 109 109 114
Width: 794
Flags: HW
TeX: 441 0 32767 32767
HStem: 0 21G<80 158 358 436 635 714> 394 61<184.6 373.1 458.7 651.1>
VStem: 80 73<380 450> 80 78<0 336.2> 358 78<0 336.2> 635 79<0 357.7>
AnchorPoint: "below" 397 0 basechar 0
AnchorPoint: "above" 397 461 basechar 0
Fore
80 0 m 1xdc
 80 450 l 1
 153 450 l 1
 153 380 l 1
 167 398 211 455 299 455 c 0
 383 455 412 412 426 374 c 1
 441 394 486 455 577 455 c 0
 710 455 714 348 714 288 c 2
 714 0 l 1
 635 0 l 1
 635 281 l 2
 635 340 625 394 538 394 c 0
 462 394 436 314 436 240 c 2
 436 0 l 1
 358 0 l 1
 358 281 l 2
 358 340 347 394 260 394 c 0xec
 184 394 158 314 158 240 c 2
 158 0 l 1
 80 0 l 1xdc
EndSplineSet
EndChar
StartChar: n
Encoding: 110 110 115
Width: 517
Flags: HW
TeX: 441 0 32767 32767
HStem: -0 21G<80 158 358 436> 394 61<184.6 373.1>
VStem: 80 73<380 450> 80 78<0 336.2> 358 78<0 357.7>
AnchorPoint: "below" 258 0 basechar 0
AnchorPoint: "above" 258 461 basechar 0
Fore
80 -0 m 1xd8
 80 450 l 1
 153 450 l 1
 153 380 l 1
 167 398 211 455 299 455 c 0
 427 455 436 358 436 288 c 2
 436 -0 l 1
 358 -0 l 1
 358 281 l 2
 358 340 347 394 260 394 c 0xe8
 184 394 158 314 158 240 c 2
 158 -0 l 1
 80 -0 l 1xd8
EndSplineSet
EndChar
StartChar: o
Encoding: 111 111 116
Width: 500
Flags: HW
TeX: 441 0 32767 32767
HStem: -11 64<147.6 336.1> 399 62<165.8 351.7>
VStem: 30 78<85.4 370.5> 390 79<68.5 368.8>
AnchorPoint: "ogonek" 249 0 basechar 0
AnchorPoint: "below" 249 0 basechar 0
AnchorPoint: "above" 249 461 basechar 0
Fore
30 221 m 0
 30 336 114 461 249 461 c 0
 368 461 469 355 469 220 c 0
 469 84 363 -11 249 -11 c 0
 135 -11 30 84 30 221 c 0
108 231 m 0
 108 119 171 53 249 53 c 0
 316 53 390 106 390 231 c 0
 390 337 328 399 249 399 c 0
 185 399 108 352 108 231 c 0
EndSplineSet
KernsSLIFO: 1747 28 11 0 1746 28 11 0 124 -28 11 0 258 -28 11 0 189 -28 11 0 126 -28 11 0 119 -28 11 0 118 28 11 0 236 28 11 0 168 28 11 0 167 28 11 0 104 28 11 0 105 28 11 0 125 -28 11 0 253 28 11 0 252 28 11 0 251 28 11 0 250 28 11 0 249 28 11 0 248 28 11 0 247 28 11 0 179 28 11 0 116 28 11 0 240 28 11 0 239 28 11 0 238 28 11 0 237 28 11 0 171 28 11 0 170 28 11 0 106 28 11 0
EndChar
StartChar: p
Encoding: 112 112 117
Width: 517
Flags: HW
TeX: 441 194 32767 32767
HStem: -195 21G<81 159> -11 61<217.3 347> 391 64<265 371.6>
VStem: 81 78<-195 46 94.8 334 396 445> 401 79<85.5 336.4>
AnchorPoint: "below" 280 -195 basechar 0
AnchorPoint: "above" 280 461 basechar 0
Fore
81 -195 m 1
 81 445 l 1
 156 445 l 1
 156 396 l 1
 221 448 288 455 322 455 c 0
 416 455 480 344 480 224 c 0
 480 101 405 -11 294 -11 c 0
 235 -11 192 16 159 46 c 1
 159 -195 l 1
 81 -195 l 1
159 126 m 2
 159 102 197 50 256 50 c 0
 326 50 401 117 401 222 c 0
 401 310 347 391 265 391 c 0
 195 391 160 334 159 334 c 1
 159 126 l 2
EndSplineSet
KernsSLIFO: 1747 28 11 0 1746 28 11 0 124 -28 11 0 258 -28 11 0 189 -28 11 0 126 -28 11 0 119 -28 11 0 118 28 11 0 236 28 11 0 168 28 11 0 167 28 11 0 104 28 11 0 105 28 11 0 125 -28 11 0 253 28 11 0 252 28 11 0 251 28 11 0 250 28 11 0 249 28 11 0 248 28 11 0 247 28 11 0 179 28 11 0 116 28 11 0 240 28 11 0 239 28 11 0 238 28 11 0 237 28 11 0 171 28 11 0 170 28 11 0 106 28 11 0
EndChar
StartChar: q
Encoding: 113 113 118
Width: 517
Flags: HW
TeX: 441 194 32767 32767
HStem: -195 21G<355 434> -11 62<150.2 282> 392 63<180 305.5>
VStem: 35 78<101.4 367.9> 355 79<-195 50> 358 76<82.1 314 388 455>
AnchorPoint: "below" 234 -195 basechar 0
AnchorPoint: "above" 234 461 basechar 0
Fore
35 221 m 0
 35 352 117 455 221 455 c 0
 286 455 329 421 358 388 c 1
 358 455 l 1
 434 455 l 1xf4
 434 -195 l 1
 355 -195 l 1
 355 50 l 1xf8
 316 14 264 -11 204 -11 c 0
 108 -11 35 93 35 221 c 0
113 221 m 0
 113 129 173 51 249 51 c 0
 303 51 358 95 358 138 c 2
 358 285 l 2
 358 314 330 392 258 392 c 0xf4
 198 392 113 334 113 221 c 0
EndSplineSet
EndChar
StartChar: r
Encoding: 114 114 119
Width: 342
Flags: HW
TeX: 441 0 32767 32767
HStem: 0 21G<81 156> 388 67<250.6 326>
VStem: 81 70<360 450> 81 75<0 394.5>
AnchorPoint: "below" 118 0 basechar 0
AnchorPoint: "above" 204 461 basechar 0
Fore
81 0 m 1xd0
 81 450 l 1
 151 450 l 1
 151 360 l 1xe0
 168 384 220 454 326 455 c 1
 326 388 l 1
 268 386 156 351 156 206 c 2xd0
 156 0 l 1
 81 0 l 1xd0
EndSplineSet
Position: 0 0 'ITLC' dx=0 dy=0 dh=13 dv=0
EndChar
StartChar: s
Encoding: 115 115 120
Width: 383
Flags: HW
TeX: 441 0 32767 32767
HStem: -11 63<139.663 293.5> 401 60<98.3 269.8>
VStem: 33 71<245.1 371.2> 289 71<84.9 170.7>
AnchorPoint: "below" 197 0 basechar 0
AnchorPoint: "above" 197 461 basechar 0
Fore
27 34 m 1
 39 102 l 1
 82 77 121 52 196 52 c 0
 271 52 289 93 289 120 c 0
 289 159 253 178 233 184 c 0
 211 191 168 196 137 206 c 0
 93 219 33 259 33 329 c 0
 33 382 61 461 197 461 c 0
 253 461 289 453 343 430 c 1
 332 364 l 1
 292 383 260 401 188 401 c 0
 119 401 104 364 104 340 c 0
 104 267 216.157 278.342 273 252 c 0
 314 233 360 192 360 127 c 0
 360 72 330 -11 197 -11 c 0
 163 -11 102 -7 27 34 c 1
EndSplineSet
EndChar
StartChar: t
Encoding: 116 116 121
Width: 361
Flags: HW
TeX: 571 0 32767 32767
HStem: -11 64<163 241.2> 386 59<18 102 174 315>
VStem: 102 72<91.8193 386 445 571>
AnchorPoint: "below" 162 0 basechar 0
AnchorPoint: "above" 138 571 basechar 0
Fore
18 386 m 1
 18 445 l 1
 104 445 l 1
 104 571 l 1
 174 571 l 1
 174 445 l 1
 315 445 l 1
 315 386 l 1
 174 386 l 1
 174 140 l 2
 174 106 178 53 228 53 c 0
 275 53 305 80 316 86 c 1
 332 27 l 1
 280 -1 228 -11 184 -11 c 0
 151 -11 103 7 102 117 c 2
 102 386 l 1
 18 386 l 1
EndSplineSet
KernsSLIFO: 124 -28 11 0 258 -28 11 0 189 -28 11 0 126 -28 11 0
EndChar
StartChar: u
Encoding: 117 117 122
Width: 517
Flags: HW
TeX: 441 0 32767 32767
HStem: -11 56<149.6 255.2> 425 20G<80 158 358 436>
VStem: 80 78<54.4 445> 358 78<0 48 127.909 445>
AnchorPoint: "ogonek" 398 0 basechar 0
AnchorPoint: "below" 258 0 basechar 0
AnchorPoint: "above" 258 461 basechar 0
Fore
80 122 m 2
 80 445 l 1
 158 445 l 1
 158 110 l 2
 159 67 170 45 238 45 c 0
 313 45 352 94 357 136 c 0
 358 146 358 156 358 165 c 2
 358 445 l 1
 436 445 l 1
 436 -0 l 1
 360 -0 l 1
 360 48 l 1
 309 3 239 -11 185 -11 c 0
 80 -11 80 70 80 122 c 2
EndSplineSet
KernsSLIFO: 124 -28 11 0
EndChar
StartChar: v
Encoding: 118 118 123
Width: 461
Flags: W
TeX: 441 0 32767 32767
HStem: 0 21G<186 274> 425 20G<14 91 372 446>
VStem: 14 432<445 445>
AnchorPoint: "below" 230 0 basechar 0
AnchorPoint: "above" 230 461 basechar 0
Fore
14 445 m 1
 91 445 l 1
 184 201 l 2
 221 97 227 81 232 50 c 1
 241 116 359 406 372 445 c 1
 446 445 l 1
 274 0 l 1
 186 0 l 1
 14 445 l 1
EndSplineSet
Position: 0 0 'ITLC' dx=0 dy=0 dh=13 dv=0
EndChar
StartChar: w
Encoding: 119 119 124
Width: 683
Flags: HW
TeX: 441 0 32767 32767
HStem: 0 21G<152 231 444 531> 425 20G<14 89 303 374 596 669>
AnchorPoint: "below" 342 0 basechar 0
AnchorPoint: "above" 341 461 basechar 0
Fore
14 445 m 1
 89 445 l 1
 193 114 190 90 197 50 c 1
 200 125 299 427 303 445 c 1
 374 445 l 1
 447 201 l 2
 477 96 481 81 485 50 c 1
 491 116 589 419 596 445 c 1
 669 445 l 1
 531 0 l 1
 444 0 l 1
 332 372 348 328 337 394 c 1
 333 315 236 24 231 0 c 1
 152 0 l 1
 14 445 l 1
EndSplineSet
KernsSLIFO: 236 -28 11 0 168 -28 11 0 167 -28 11 0 104 -28 11 0 253 -28 11 0 252 -28 11 0 251 -28 11 0 250 -28 11 0 249 -28 11 0 248 -28 11 0 247 -28 11 0 179 -28 11 0 116 -28 11 0 235 -28 11 0 234 -28 11 0 233 -28 11 0 232 -28 11 0 231 -28 11 0 230 -28 11 0 229 -28 11 0 166 -28 11 0 165 -28 11 0 102 -28 11 0 240 -28 11 0 239 -28 11 0 238 -28 11 0 237 -28 11 0 171 -28 11 0 170 -28 11 0 106 -28 11 0
Position: 0 0 'ITLC' dx=0 dy=0 dh=13 dv=0
EndChar
StartChar: x
Encoding: 120 120 125
Width: 461
Flags: HW
TeX: 441 0 32767 32767
HStem: -0 21G<0 83 377 460> 425 20G<6 89 361 444>
AnchorPoint: "below" 230 0 basechar 0
AnchorPoint: "above" 230 461 basechar 0
Fore
0 -0 m 1
 194 228 l 1
 194 230 l 1
 6 445 l 1
 89 445 l 1
 227 280 l 1
 228 280 l 1
 361 445 l 1
 444 445 l 1
 260 230 l 1
 260 229 l 1
 460 -0 l 1
 377 -0 l 1
 227 188 l 1
 83 -0 l 1
 0 -0 l 1
EndSplineSet
EndChar
StartChar: y
Encoding: 121 121 126
Width: 461
Flags: HW
TeX: 441 194 32767 32767
HStem: -205 56<77.8551 157.1> 425 20G<14 93 371 446>
VStem: 14 432<445 445>
AnchorPoint: "below" 230 -195 basechar 0
AnchorPoint: "above" 233 461 basechar 0
Fore
14 445 m 1
 93 445 l 1
 244 98 226 105 238 50 c 1
 240 141 366 427 371 445 c 1
 446 445 l 1
 229 -90 l 2
 189 -182 160 -205 114 -205 c 0
 95 -205 65 -203 41 -197 c 1
 36 -132 l 1
 69 -143 92 -149 109 -149 c 0
 146 -149 160 -125 202 -15 c 0
 205 -8 206 -3 206 1 c 0
 206 6 204 10 201 18 c 2
 14 445 l 1
EndSplineSet
KernsSLIFO: 49 -83 11 0 51 -83 11 0 235 -28 11 0 234 -28 11 0 233 -28 11 0 232 -28 11 0 231 -28 11 0 230 -28 11 0 229 -28 11 0 166 -28 11 0 165 -28 11 0 102 -28 11 0 240 -28 11 0 239 -28 11 0 238 -28 11 0 237 -28 11 0 171 -28 11 0 170 -28 11 0 106 -28 11 0 253 -28 11 0 252 -28 11 0 251 -28 11 0 250 -28 11 0 249 -28 11 0 248 -28 11 0 247 -28 11 0 179 -28 11 0 116 -28 11 0
Position: 0 0 'ITLC' dx=0 dy=0 dh=13 dv=0
EndChar
StartChar: z
Encoding: 122 122 127
Width: 435
Flags: HW
TeX: 441 0 32767 32767
HStem: 0 62<27 401> 385 60<41 398>
AnchorPoint: "below" 214 0 basechar 0
AnchorPoint: "above" 214 461 basechar 0
Fore
27 0 m 1
 27 41 l 1
 293 386 l 1
 41 385 l 1
 41 445 l 1
 398 445 l 1
 398 405 l 1
 133 62 l 1
 401 63 l 5
 401 0 l 1
 27 0 l 1
EndSplineSet
EndChar
StartChar: braceleft
Encoding: 123 123 128
Width: 500
Flags: HW
TeX: 746 249 32767 32767
HStem: -250 61<329.514 446> 219 62<52 135.2> 689 61<393 446>
VStem: 210 78<-151.935 138.456 504.625 664.454>
CounterMasks: 1 e0
Fore
52 219 m 1
 52 281 l 1
 121 281 202 314 210 389 c 2
 210 619 l 2
 211 641 209 653 220 674 c 0
 245 726 314 750 393 750 c 2
 446 750 l 1
 446 689 l 1
 422 689 l 2
 292 689 288 655 288 621 c 2
 288 410 l 2
 288 282 176 254 127 250 c 1
 177 246 288 218 288 90 c 2
 288 -125 l 2
 288 -163 307 -189 422 -189 c 0
 446 -189 l 1
 446 -250 l 1
 401 -250 l 2
 365 -250 325.068 -248.852 282 -229 c 0
 201.128 -191.722 212 -133 210 -119 c 1
 210 88 l 2
 210 109 210 121 203 140 c 0
 180 192 116 219 52 219 c 1
EndSplineSet
EndChar
StartChar: bar
Encoding: 124 124 129
Width: 278
Flags: HW
TeX: 746 249 32767 32767
VStem: 118 40<-244.212 737.959>
Fore
118 -220 m 2
 118 720 l 2
 118 746 130 749 138 749 c 0
 158 749 158 726 158 720 c 2
 158 -220 l 2
 158 -246 146 -249 138 -249 c 0
 119 -249 118 -231 118 -220 c 2
EndSplineSet
EndChar
StartChar: braceright
Encoding: 125 125 130
Width: 500
Flags: HW
TeX: 746 249 32767 32767
HStem: -250 61<52 150.879> 219 62<362.8 446> 689 61<52 215.8>
VStem: 210 78<-150.552 124.75 364.537 663.7>
CounterMasks: 1 e0
Fore
52 -189 m 1
 106 -188 196 -191 209 -143 c 0
 211 -134 210 -125 210 -116 c 2
 210 90 l 2
 210 218 321 246 371 250 c 1
 321 254 210 282 210 410 c 2
 210 623 l 2
 210 676 178 688 52 689 c 1
 52 750 l 1
 105 750 l 2
 276 750 289 655 289 626 c 0
 289 622 288 619 288 619 c 1
 288 412 l 2
 289 391 288 379 296 360 c 0
 319 307 382 281 446 281 c 1
 446 219 l 1
 377 219 296 186 289 111 c 2
 288 88 l 1
 288 -119 l 2
 288 -141 288 -154 279 -174 c 0
 253 -226 184 -250 105 -250 c 2
 52 -250 l 1
 52 -189 l 1
EndSplineSet
EndChar
StartChar: asciitilde
Encoding: 126 126 131
Width: 611
Flags: HW
TeX: 677 0 32767 32767
HStem: 557 62<315.8 443.2> 615 61<166.8 294.2>
VStem: 83 61<557 613.059> 466 61<626.327 682.386>
Fore
83 557 m 1xb0
 86 632 145 676 210 676 c 0x70
 278 676 335 619 399 619 c 0xb0
 433 619 462 638 466 676 c 1
 527 676 l 1x70
 524 602 465 557 400 557 c 0xb0
 332 557 275 615 211 615 c 0x70
 177 615 148 595 144 557 c 1
 83 557 l 1xb0
EndSplineSet
EndChar
StartChar: Abreve
Encoding: 258 258 133
Width: 667
Flags: HW
TeX: 888 0 32767 32767
HStem: 0 21<27 102 545 637> 204 56<199 447> 674 20<288 377> 727 67<263.9 395.2>
VStem: 156 61<823.675 889> 433 62<809.7 889>
Fore
156 889 m 1
 217 889 l 1
 221 822 278 794 325 794 c 0
 379 794 430 828 433 889 c 1
 495 889 l 1
 492 789 411 727 325 727 c 0
 237 727 158 790 156 889 c 1
EndSplineSet
Refer: 70 65 S 1 0 0 1 -0 0 2
KernsSLIFO: 1748 -28 11 0 1747 -28 11 0 1746 -28 11 0 92 -111 11 0 91 -111 11 0 226 -83 11 0 157 -83 11 0 94 -83 11 0 154 -83 11 0 153 -83 11 0 89 -83 11 0 225 -28 11 0 224 -28 11 0 223 -28 11 0 222 -28 11 0 156 -28 11 0 155 -28 11 0 90 -28 11 0 221 -28 11 0 220 -28 11 0 219 -28 11 0 218 -28 11 0 217 -28 11 0 216 -28 11 0 215 -28 11 0 147 -28 11 0 84 -28 11 0 86 -28 11 0 204 -28 11 0 140 -28 11 0 136 -28 11 0 135 -28 11 0 76 -28 11 0 72 -28 11 0 186 -28 11 0 185 -28 11 0 121 -28 11 0 118 -28 11 0 253 -28 11 0 252 -28 11 0 251 -28 11 0 250 -28 11 0 249 -28 11 0 248 -28 11 0 247 -28 11 0 179 -28 11 0 116 -28 11 0 240 -28 11 0 239 -28 11 0 238 -28 11 0 237 -28 11 0 171 -28 11 0 170 -28 11 0 106 -28 11 0 245 -28 11 0 163 -28 11 0 169 -28 11 0 105 -28 11 0 236 -28 11 0 168 -28 11 0 167 -28 11 0 104 -28 11 0 124 -28 11 0 123 -28 11 0 258 -28 11 0 189 -28 11 0 126 -28 11 0
Substitution: 0 7 'ss01' Abreve.vn
Substitution: 0 7 'salt' Abreve.vn
Substitution: 0 12 'locl' Abreve.vn
EndChar
StartChar: Aogonek
Encoding: 260 260 134
Width: 667
Flags: HW
TeX: 694 194 32767 32767
HStem: -217 70<531 595.138> -0 21G<27 102 609 637> 204 56<199 447> 674 20G<288 377>
VStem: 459 60<-139.5 -61.7>
AnchorPoint: "above" 332 716 basechar 0
Fore
27 -0 m 1
 288 694 l 1
 377 694 l 1
 637 -0 l 1
 609 -0 l 1
 604 -3 519 -49 519 -107 c 0
 519 -132 540 -147 570 -147 c 0
 596 -147 622 -137 637 -133 c 1
 653 -192 l 1
 599 -217 565 -217 556 -217 c 0
 498 -217 459 -181 459 -128 c 0
 459 -77 497 -29 544 -0 c 1
 468 204 l 1
 178 204 l 1
 102 -0 l 1
 27 -0 l 1
199 260 m 1
 447 260 l 1
 357 512 329 587 323 624 c 1
 308 551 212 300 199 260 c 1
EndSplineSet
Ligature: 0 7 'liga' A uni0328
EndChar
StartChar: Cacute
Encoding: 262 262 135
Width: 639
Flags: HW
TeX: 850 0 32767 32767
HStem: -22 64<207.8 503.2> 652 64<208.7 488.3>
VStem: 66 90<137.7 552.4> 235 267<760 850>
Fore
235 760 m 1
 391 850 385 850 404 850 c 2
 502 850 l 1
 344 771 l 1
 322 761 l 1
 307 760 l 1
 235 760 l 1
EndSplineSet
Refer: 72 67 S 1 0 0 1 -0 0 2
KernsSLIFO: 1748 -28 11 0 1747 -28 11 0 1746 -28 11 0 92 -111 11 0 91 -111 11 0 226 -83 11 0 157 -83 11 0 94 -83 11 0 154 -83 11 0 153 -83 11 0 89 -83 11 0 225 -28 11 0 224 -28 11 0 223 -28 11 0 222 -28 11 0 156 -28 11 0 155 -28 11 0 90 -28 11 0 221 -28 11 0 220 -28 11 0 219 -28 11 0 218 -28 11 0 217 -28 11 0 216 -28 11 0 215 -28 11 0 147 -28 11 0 84 -28 11 0 86 -28 11 0 204 -28 11 0 140 -28 11 0 136 -28 11 0 135 -28 11 0 76 -28 11 0 72 -28 11 0 186 -28 11 0 185 -28 11 0 121 -28 11 0 118 -28 11 0 253 -28 11 0 252 -28 11 0 251 -28 11 0 250 -28 11 0 249 -28 11 0 248 -28 11 0 247 -28 11 0 179 -28 11 0 116 -28 11 0 240 -28 11 0 239 -28 11 0 238 -28 11 0 237 -28 11 0 171 -28 11 0 170 -28 11 0 106 -28 11 0 245 -28 11 0 163 -28 11 0 169 -28 11 0 105 -28 11 0 236 -28 11 0 168 -28 11 0 167 -28 11 0 104 -28 11 0 124 -28 11 0 123 -28 11 0
EndChar
StartChar: Ccaron
Encoding: 268 268 136
Width: 639
Flags: HW
TeX: 888 0 32767 32767
HStem: -22 64<207.8 503.2> 652 64<208.7 488.3> 727 162<424 546>
VStem: 66 90<137.7 552.4> 230 316<889 889>
Fore
230 889 m 1
 291 889 l 1
 388 778 l 1
 485 889 l 1
 546 889 l 1
 424 727 l 1
 352 727 l 1
 230 889 l 1
EndSplineSet
Refer: 72 67 S 1 0 0 1 0 0 2
EndChar
StartChar: Dcaron
Encoding: 270 270 137
Width: 722
Flags: HW
TeX: 888 0 32767 32767
HStem: 0 56<182 370.429> 638 56<182 391.3> 727 162<321 444>
VStem: 95 87<56 638> 127 317<889 889> 579 87<251.3 498>
Fore
127 889 m 1
 188 889 l 1
 285 778 l 1
 382 889 l 1
 444 889 l 1xec
 321 727 l 1
 250 727 l 1
 127 889 l 1
EndSplineSet
Refer: 73 68 S 1 0 0 1 -0 0 2
KernsSLIFO: 226 -28 11 0 157 -28 11 0 94 -28 11 0 91 -28 11 0 203 -28 11 0 202 -28 11 0 201 -28 11 0 200 -28 11 0 199 -28 11 0 198 -28 11 0 197 -28 11 0 134 -28 11 0 133 -28 11 0 70 -28 11 0 92 -28 11 0 93 -28 11 0
EndChar
StartChar: Ecaron
Encoding: 282 282 138
Width: 597
Flags: HW
TeX: 888 0 32767 32767
HStem: 0 70<184 555> 329 61<184 514> 625 66<184 541> 727 162<334 457>
VStem: 94 90<70 329 390 627> 140 317<889 889>
Fore
140 889 m 1
 201 889 l 1
 299 778 l 1
 395 889 l 1
 457 889 l 1xf4
 334 727 l 1
 263 727 l 1
 140 889 l 1
EndSplineSet
Refer: 74 69 S 1 0 0 1 -0 0 2
EndChar
StartChar: Eogonek
Encoding: 280 280 139
Width: 597
Flags: HW
TeX: 694 194 32767 32767
HStem: -217 70<414.3 478.112> 0 72<184 426 487 555> 329 61<184 514> 625 66<184 541>
VStem: 94 90<70 329 390 627> 341 60<-142.4 -94.2>
AnchorPoint: "above" 318 716 basechar 0
Fore
94 0 m 1
 94 691 l 1
 541 691 l 1
 541 625 l 1
 484 625 l 1
 459 626 l 1
 219 626 l 1
 184 627 l 1
 184 390 l 1
 514 390 l 1
 514 329 l 1
 184 329 l 1
 184 70 l 1
 269 70 l 1
 293 71 l 1
 487 71 l 1
 509 72 l 1
 555 72 l 1
 555 0 l 1
 507 0 l 0
 469 0 401 -62 401 -106 c 0
 401 -134 423 -147 452 -147 c 0
 477 -147 504 -137 520 -133 c 1
 535 -192 l 1
 482 -217 448 -217 438 -217 c 0
 380 -217 341 -181 341 -128 c 0
 341 -102 351 -49 426 0 c 1
 94 0 l 1
EndSplineSet
EndChar
StartChar: Gbreve
Encoding: 286 286 140
Width: 667
Flags: HW
TeX: 888 0 32767 32767
HStem: -22 64<220.4 472.9> 237 62<388 521> 652 64<208.4 500.9> 727 67<328.2 458.2>
VStem: 66 90<124.4 553.4> 219 61<823.675 889> 496 62<809.7 889> 521 78<63 237>
Fore
219 889 m 1
 280 889 l 1
 284 822 342 794 388 794 c 0xfe
 442 794 493 828 496 889 c 1
 558 889 l 1
 555 789 474 727 388 727 c 0
 300 727 221 790 219 889 c 1
EndSplineSet
Refer: 76 71 S 1 0 0 1 0 0 2
EndChar
StartChar: Lacute
Encoding: 313 313 141
Width: 542
Flags: HW
TeX: 850 0 32767 32767
HStem: 0 66<184 499> 674 20<94 184>
VStem: 9 268<760 850> 94 90<65 694>
Fore
9 760 m 1
 165 850 159 850 178 850 c 2xe0
 277 850 l 1
 119 771 l 1
 97 761 l 1
 82 760 l 1
 9 760 l 1
EndSplineSet
Refer: 81 76 S 1 0 0 1 0 0 2
KernsSLIFO: 92 -111 11 0 91 -111 11 0 226 -83 11 0 157 -83 11 0 94 -83 11 0 154 -83 11 0 153 -83 11 0 89 -83 11 0
EndChar
StartChar: Lcaron
Encoding: 317 317 142
Width: 542
Flags: HW
TeX: 888 0 32767 32767
HStem: 0 66<184 499> 674 20G<94 184 334 360>
VStem: 94 90<65 694> 334 84<694 778>
Fore
334 611 m 1
 360 694 l 1
 334 694 l 1
 334 778 l 1
 418 778 l 1
 418 709 l 2
 416 681 409 680 376 611 c 1
 334 611 l 1
EndSplineSet
Refer: 81 76 S 1 0 0 1 -0 0 2
KernsSLIFO: 92 -111 11 0 91 -111 11 0 226 -83 11 0 157 -83 11 0 94 -83 11 0 154 -83 11 0 153 -83 11 0 89 -83 11 0
EndChar
StartChar: Lslash
Encoding: 321 321 143
Width: 625
Flags: HW
TeX: 694 0 32767 32767
HStem: -0 65<267 582> 674 20G<177 267>
VStem: 177 90<65 282 440 694>
Fore
77 278 m 1
 177 363 l 1
 177 694 l 1
 267 694 l 1
 267 440 l 1
 393 547 l 1
 433 500 l 1
 267 359 l 1
 267 65 l 1
 462 65 l 1
 582 66 l 1
 582 -0 l 1
 177 -0 l 1
 177 282 l 1
 117 231 l 1
 77 278 l 1
EndSplineSet
KernsSLIFO: 92 -111 11 0 91 -111 11 0 226 -83 11 0 157 -83 11 0 94 -83 11 0 154 -83 11 0 153 -83 11 0 89 -83 11 0
EndChar
StartChar: Nacute
Encoding: 323 323 144
Width: 708
Flags: HW
TeX: 850 0 32767 32767
HStem: 0 21<95 173 486 611> 674 20<95 220 533 611>
VStem: 95 78<0 624> 227 268<760 850> 533 78<70 694>
Fore
227 760 m 1
 384 850 377 850 397 850 c 2
 495 850 l 1
 337 771 l 1
 315 761 l 1
 300 760 l 1
 227 760 l 1
EndSplineSet
Refer: 83 78 S 1 0 0 1 -0 0 2
EndChar
StartChar: Ncaron
Encoding: 327 327 145
Width: 708
Flags: HW
TeX: 888 0 32767 32767
HStem: 0 21<95 173 486 611> 674 20<95 220 533 611> 727 162<389 511>
VStem: 95 78<0 624> 195 316<889 889> 533 78<70 694>
CounterMasks: 1 1c
Fore
195 889 m 1
 256 889 l 1
 353 778 l 1
 450 889 l 1
 511 889 l 1
 389 727 l 1
 317 727 l 1
 195 889 l 1
EndSplineSet
Refer: 83 78 S 1 0 0 1 0 0 2
EndChar
StartChar: Eng
Encoding: 330 330 146
Width: 750
Flags: HW
TeX: 694 0 32767 32767
HStem: -22 62<471.9 581> 677 78<272.2 526.2>
VStem: 94 90<0 610.9 667 694> 604 90<112.875 512.218>
Fore
94 0 m 1
 94 694 l 1
 184 694 l 1
 184 667 l 1
 232 714 301 755 397 755 c 0
 541 755 694 650 694 451 c 2
 694 149 l 2
 694 74 664 -22 546 -22 c 0
 489 -22 439 -3 403 20 c 1
 416 95 l 1
 424 85 455 40 516 40 c 0
 566 40 590 73 599 103 c 0
 604 122 604 142 604 161 c 2
 604 449 l 2
 604 477 603 508 589 542 c 0
 563 607 495 677 391 677 c 0
 276 677 184 583 184 490 c 2
 184 0 l 1
 94 0 l 1
EndSplineSet
EndChar
StartChar: Ohungarumlaut
Encoding: 336 336 147
Width: 736
Flags: HW
TeX: 850 0 32767 32767
HStem: -22 65<194.1 532.1> 652 64<207.1 517.8>
VStem: 55 90<139.3 582.6> 200 268<760 850> 366 268<760 850> 590 89<128.9 594.3>
Fore
200 760 m 1
 356 850 350 850 369 850 c 2xf0
 468 850 l 1
 310 771 l 1
 287 761 l 1
 273 760 l 1
 200 760 l 1
EndSplineSet
Refer: 262 63177 S 1 0 0 1 201 250 2
Refer: 84 79 S 1 0 0 1 -0 0 2
KernsSLIFO: 226 -28 11 0 157 -28 11 0 94 -28 11 0 91 -28 11 0 203 -28 11 0 202 -28 11 0 201 -28 11 0 200 -28 11 0 199 -28 11 0 198 -28 11 0 197 -28 11 0 134 -28 11 0 133 -28 11 0 70 -28 11 0 92 -28 11 0 93 -28 11 0
EndChar
StartChar: Racute
Encoding: 340 340 148
Width: 646
Flags: HW
TeX: 850 0 32767 32767
HStem: 0 21<95 182 527 617> 316 62<182 340> 638 56<182 515.9>
VStem: 95 87<0 316 378 638> 183 267<760 850> 508 81<447.2 575.9>
Fore
183 760 m 1
 339 850 333 850 352 850 c 2
 450 850 l 1
 292 771 l 1
 270 761 l 1
 255 760 l 1
 183 760 l 1
EndSplineSet
Refer: 87 82 S 1 0 0 1 0 0 2
EndChar
StartChar: Rcaron
Encoding: 344 344 149
Width: 646
Flags: HW
TeX: 888 0 32767 32767
HStem: 0 21<95 182 527 617> 316 62<182 340> 638 56<182 515.9> 727 162<342 465>
VStem: 95 87<0 316 378 638> 148 317<889 889> 508 81<447.2 575.9>
Fore
148 889 m 1
 209 889 l 1
 306 778 l 1
 403 889 l 1
 465 889 l 1xf6
 342 727 l 1
 270 727 l 1
 148 889 l 1
EndSplineSet
Refer: 87 82 S 1 0 0 1 -0 0 2
EndChar
StartChar: Sacute
Encoding: 346 346 150
Width: 555
Flags: HW
TeX: 850 0 32767 32767
HStem: -22 69<153.4 386.1> 649 67<161.7 382.7>
VStem: 55 80<467 607.7> 138 267<760 850> 419 80<89.3 247.9>
Fore
138 760 m 1
 294 850 288 850 307 850 c 2
 405 850 l 1
 247 771 l 1
 225 761 l 1
 210 760 l 1
 138 760 l 1
EndSplineSet
Refer: 88 83 S 1 0 0 1 -0 0 2
EndChar
StartChar: Scaron
Encoding: 352 352 151
Width: 555
Flags: HW
TeX: 888 0 32767 32767
HStem: -22 69<153.4 386.1> 649 67<161.7 382.7> 727 162<313 435>
VStem: 55 80<467 607.7> 119 316<889 889> 419 80<89.3 247.9>
Fore
119 889 m 1
 180 889 l 1
 277 778 l 1
 374 889 l 1
 435 889 l 1xe8
 313 727 l 1
 241 727 l 1
 119 889 l 1
EndSplineSet
Refer: 88 83 S 1 0 0 1 0 0 2
EndChar
StartChar: Scedilla
Encoding: 350 350 152
Width: 555
Flags: HW
TeX: 694 170 32767 32767
HStem: -192 169<243 308> -22 69<154.7 386.1> 649 67<170.8 382.7>
VStem: 55 80<467 615.8> 173 135<-192 -23> 419 80<89.3 247.9>
Fore
44 47 m 1
 59 130 l 1
 106 92 175 47 273 47 c 0
 360 47 419 110 419 179 c 0
 419 232 384 279 333 299 c 0
 264 327 150 320 84 421 c 0
 67 448 56 479 55 519 c 0
 55 615 138 716 281 716 c 0
 362 716 413 696 464 668 c 1
 450 585 l 1
 401 624 359 649 280 649 c 0
 196 649 135 596 135 530 c 0
 135 481 171 442 215 424 c 0
 244 413 330 397 365 382 c 0
 427 357 499 290 499 189 c 0
 499 84 414 -22 273 -22 c 0
 182 -22 107 7 44 47 c 1
EndSplineSet
Refer: 17 184 S 1 0 0 1 56 0 2
EndChar
StartChar: Tcaron
Encoding: 356 356 153
Width: 680
Flags: HW
TeX: 888 0 32767 32767
HStem: 0 21<295 384> 623 66<35 295 384 643> 727 162<375 498>
VStem: 181 317<889 889> 295 89<0 624>
Fore
181 889 m 1
 242 889 l 1
 340 778 l 1
 436 889 l 1
 498 889 l 1xf0
 375 727 l 1
 304 727 l 1
 181 889 l 1
EndSplineSet
Refer: 89 84 S 1 0 0 1 -0 -0 2
KernsSLIFO: 1747 -83 11 0 1746 -83 11 0 203 -83 11 0 202 -83 11 0 201 -83 11 0 200 -83 11 0 199 -83 11 0 198 -83 11 0 197 -83 11 0 134 -83 11 0 133 -83 11 0 70 -83 11 0 127 -83 11 0 125 -83 11 0 124 -83 11 0 123 -83 11 0 120 -83 11 0 117 -83 11 0 108 -83 11 0 105 -83 11 0 104 -83 11 0 30 -83 11 0 115 -83 11 0 122 -83 11 0 102 -83 11 0 119 -83 11 0 116 -83 11 0 106 -83 11 0 126 -83 11 0
EndChar
StartChar: Uring
Encoding: 366 366 156
Width: 687
Flags: HW
TeX: 888 0 32767 32767
HStem: -22 56<266.7 426.6> 666 61<288.8 403.2> 674 20<94 184 514 593> 827 61<288.5 402.9>
VStem: 94 89<27.9 694> 235 56<747.1 806.9> 401 56<747.1 806.9> 515 78<24.2 694>
Fore
235 777 m 0
 235 842 289 888 346 888 c 0
 410 888 457 836 457 777 c 0
 457 720 412 666 346 666 c 0
 281 666 235 719 235 777 c 0
291 777 m 0
 291 754 302 727 346 727 c 0
 390 727 401 754 401 777 c 0
 401 800 390 827 347 827 c 0xdf
 302 827 291 800 291 777 c 0
EndSplineSet
Refer: 90 85 S 1 0 0 1 0 0 2
EndChar
StartChar: Zacute
Encoding: 377 377 158
Width: 611
Flags: HW
TeX: 850 0 32767 32767
HStem: 0 65<170 560> 631 63<69 440>
VStem: 193 268<760 850>
Fore
193 760 m 1
 350 850 343 850 363 850 c 2
 461 850 l 1
 303 771 l 1
 280 761 l 1
 266 760 l 1
 193 760 l 1
EndSplineSet
Refer: 95 90 S 1 0 0 1 -0 0 2
EndChar
StartChar: Zcaron
Encoding: 381 381 159
Width: 611
Flags: HW
TeX: 888 0 32767 32767
HStem: 0 65<170 560> 631 63<69 440> 727 162<342 465>
VStem: 148 317<889 889>
Fore
148 889 m 1
 209 889 l 1
 306 778 l 1
 403 889 l 1
 465 889 l 1
 342 727 l 1
 270 727 l 1
 148 889 l 1
EndSplineSet
Refer: 95 90 S 1 0 0 1 -0 0 2
EndChar
StartChar: IJ
Encoding: 306 306 161
Width: 722
Flags: HW
TeX: 694 0 32767 32767
HStem: -22 62<372.3 506.8> 0 21<66 156> 674 20G<66 156 551 638>
VStem: 66 90<0 694> 551 87<34.8 694>
Fore
291 20 m 1
 299 66 l 1
 305 95 l 1
 339 61 382 40 434 40 c 0
 490 40 551 63 551 157 c 2
 551 694 l 1
 638 694 l 1
 638 155 l 2xb8
 638 13 544 -22 462 -22 c 0
 393 -22 339 -3 291 20 c 1
EndSplineSet
Refer: 78 73 S 1 0 0 1 -28 0 2
Ligature: 0 10 'liga' I J
Ligature: 0 0 'dlig' I J
EndChar
StartChar: dcroat
Encoding: 273 273 163
Width: 517
Flags: HW
TeX: 722 0 32767 32767
HStem: -11 62<177.8 292.8> 394 62<200 274.3> 551 59<167 358 434 535> 702 20G<358 434>
VStem: 35 78<57.2 392.3> 355 79<0 52 91.1 343.071> 358 76<401 551 610 722>
Fore
35 221 m 0
 35 353 113 456 213 456 c 0
 275 456 323 429 358 401 c 1
 358 551 l 1
 167 551 l 1
 167 610 l 1
 358 610 l 1
 358 722 l 1
 434 722 l 1
 434 610 l 1
 535 610 l 1
 535 551 l 1
 434 551 l 1xfa
 434 0 l 1
 355 0 l 1
 355 52 l 1
 321 20 273 -11 207 -11 c 0
 109 -11 35 95 35 221 c 0
113 222 m 0
 113 90 194 51 248 51 c 0xfc
 307 51 355 101 355 134 c 2
 355 325 l 2
 355 341 353 347 334 364 c 0
 304 393 271 394 260 394 c 2
 258 394 l 2
 200 394 113 353 113 222 c 0
EndSplineSet
Substitution: 0 7 'ss01' dcroat.vn
Substitution: 0 7 'salt' dcroat.vn
Substitution: 0 12 'locl' dcroat.vn
EndChar
StartChar: section
Encoding: 167 167 164
Width: 444
Flags: HW
TeX: 722 194 32767 32767
HStem: -205 61<110.4 298.9> 672 61<145.4 313.7>
VStem: 69 79<157.6 347.4 473.3 613.4> 295 79<-85.4 56 179.3 370.4>
Fore
44 -133 m 1
 56 -65 l 1
 77 -88 120 -144 217 -144 c 0
 280 -144 295 -74 295 -36 c 0
 295 48 217 75 200 83 c 0
 173 98 69 158 69 271 c 0
 69 370 142 415 142 415 c 1
 105 450 69 494 69 563 c 0
 69 644 125 733 224 733 c 0
 293 733 332 710 371 675 c 1
 365 638 l 1
 359 609 l 1
 345 624 306 672 226 672 c 0
 164 672 148 602 148 564 c 0
 148 480 226 453 243 445 c 0
 270 430 374 370 374 257 c 0
 374 158 301 112 301 112 c 1
 337 79 374 35 374 -35 c 0
 374 -119 318 -205 217 -205 c 0
 135 -205 86 -173 44 -133 c 1
148 272 m 0
 148 184 236 154 243 154 c 0
 264 154 295 197 295 256 c 0
 295 344 207 373 200 373 c 0
 179 373 148 330 148 272 c 0
EndSplineSet
EndChar
StartChar: aogonek
Encoding: 261 261 166
Width: 480
Flags: HW
TeX: 441 194 32767 32767
HStem: -217 70<293.1 383.14> -11 62<141.1 217.8> 193 52<227.1 322> 401 60<148.9 263.253>
VStem: 44 73<65.9 195.9> 239 56<-128 -94.2> 322 78<0 35 46.8 193>
AnchorPoint: "above" 236 461 basechar 0
Fore
44 113 m 0
 44 219 219 244 322 245 c 1
 322 279 l 2
 321 311 320 341 296 371 c 0
 272 400 246 401 233 401 c 0
 158 401 116 372 83 350 c 1
 77 417 l 1
 124 444 169 461 236 461 c 0
 330 461 394 387 400 305 c 2
 400 0 l 1
 395 0 l 2
 361 0 295 -59 295 -104 c 0
 295 -121 306 -147 349 -147 c 0
 373 -147 395 -139 417 -133 c 1
 433 -192 l 1
 411 -202 373 -217 335 -217 c 0
 277 -217 239 -181 239 -128 c 0
 239 -102 249 -47 324 0 c 1
 324 35 l 1
 271 -2 204 -11 158 -11 c 0
 75 -11 44 66 44 113 c 0
117 114 m 0
 117 77 157 51 210 51 c 0
 256 51 322 66 322 130 c 2
 322 193 l 1
 249 192 117 177 117 114 c 0
EndSplineSet
KernsSLIFO: 124 -28 11 0
EndChar
StartChar: dcaron
Encoding: 271 271 169
Width: 633
Flags: HW
TeX: 722 0 32767 32767
HStem: -11 62<177.8 292.8> 394 62<200 274.3> 702 20G<358 434>
VStem: 35 78<57.2 392.3> 355 79<0 52 73.7 343.071> 489 84<680 764>
Fore
35 221 m 0
 35 353 113 456 213 456 c 0
 275 456 323 429 358 401 c 1
 358 722 l 1
 434 722 l 1
 434 0 l 1
 355 0 l 1
 355 52 l 1
 321 20 273 -11 207 -11 c 0
 109 -11 35 95 35 221 c 0
113 222 m 0
 113 90 194 51 248 51 c 0
 297 51 355 89 355 140 c 2
 355 325 l 2
 355 341 353 347 334 364 c 0
 304 393 271 394 260 394 c 2
 258 394 l 2
 200 394 113 353 113 222 c 0
489 597 m 1
 515 680 l 1
 489 680 l 1
 489 764 l 1
 573 764 l 1
 573 695 l 2
 571 667 564 666 531 597 c 1
 489 597 l 1
EndSplineSet
EndChar
StartChar: eogonek
Encoding: 281 281 171
Width: 444
Flags: HW
TeX: 441 194 32767 32767
HStem: -217 70<268.9 332.112> -11 61<146.7 265.41> 220 55<109 357> 399 62<137.2 273.7>
VStem: 34 70<125.425 226> 195 58<-143.7 -80>
AnchorPoint: "above" 236 461 basechar 0
Fore
34 226 m 0
 34 350 120 461 236 461 c 0
 307 461 414 421 414 220 c 1
 104 220 l 1
 108 123 171 50 252 50 c 0
 332 50 387 93 404 106 c 1
 410 40 l 1
 346 -0 308 -10 273 -56 c 0
 267 -64 253 -86 253 -106 c 0
 253 -135 277 -147 304 -147 c 0
 332 -147 374 -133 374 -133 c 1
 389 -192 l 1
 336 -217 302 -217 292 -217 c 0
 234 -217 195 -181 195 -128 c 0
 195 -78 228 -39 264 -10 c 1
 260 -11 255 -11 250 -11 c 0
 132 -11 34 91 34 226 c 0
109 275 m 1
 357 275 l 1
 341 387 265 399 236 399 c 0
 160 399 120 325 109 275 c 1
EndSplineSet
EndChar
StartChar: lacute
Encoding: 314 314 173
Width: 239
Flags: HW
TeX: 850 0 32767 32767
HStem: 0 21<81 156> 702 20<81 156>
VStem: 34 268<760 850> 81 75<0 722>
Fore
34 760 m 1
 190 850 184 850 203 850 c 2xe0
 302 850 l 1
 144 771 l 1
 122 761 l 1
 107 760 l 1
 34 760 l 1
EndSplineSet
Refer: 113 108 S 1 0 0 1 -0 -0 2
Position: 0 0 'ITLC' dx=0 dy=0 dh=91 dv=0
EndChar
StartChar: lcaron
Encoding: 318 318 174
Width: 355
Flags: HW
TeX: 722 0 32767 32767
HStem: 0 21<81 156> 702 20<81 156>
VStem: 81 75<0 722> 212 84<680 764>
Fore
212 597 m 1
 237 680 l 1
 212 680 l 1
 212 764 l 1
 296 764 l 1
 296 695 l 2
 293 667 287 666 254 597 c 1
 212 597 l 1
EndSplineSet
Refer: 113 108 S 1 0 0 1 -0 0 2
EndChar
StartChar: lslash
Encoding: 322 322 175
Width: 324
Flags: HW
TeX: 722 0 32767 32767
HStem: -0 21G<122 198> 702 20G<122 198>
VStem: 122 76<0 290 431 722>
AnchorPoint: "above" 160 722 basechar 0
Fore
27 286 m 1
 122 367 l 1
 122 722 l 1
 198 722 l 1
 198 431 l 1
 269 492 l 1
 307 447 l 1
 198 355 l 1
 198 -0 l 1
 122 -0 l 1
 122 290 l 1
 65 241 l 1
 27 286 l 1
EndSplineSet
KernsSLIFO: 1747 -28 11 0 1746 -28 11 0 1726 28 11 0 182 -28 11 0 120 -28 11 0 248 -28 11 0 116 -28 11 0 108 -28 11 0 171 -28 11 0 106 -28 11 0 105 -28 11 0 167 -28 11 0 104 -28 11 0 166 -28 11 0 102 -28 11 0 44 28 11 0
Position: 0 0 'ITLC' dx=0 dy=0 dh=11 dv=0
EndChar
StartChar: ncaron
Encoding: 328 328 177
Width: 517
Flags: HW
TeX: 638 0 32767 32767
HStem: 0 21G<79 157 357 435> 394 61<212.2 372.1>
VStem: 65 323<638 639> 79 73<380 450> 79 78<0 336.2> 357 78<0 357.7>
Fore
79 0 m 1xcc
 79 450 l 1
 152 450 l 1
 152 380 l 1
 187 423 232 455 298 455 c 0
 426 455 435 358 435 288 c 2
 435 0 l 1
 357 0 l 1
 357 281 l 2
 357 340 346 394 259 394 c 0xd4
 183 394 157 314 157 240 c 2
 157 0 l 1
 79 0 l 1xcc
EndSplineSet
Refer: 13 711 S 1 0 0 1 -23 0 2
EndChar
StartChar: eng
Encoding: 331 331 178
Width: 517
Flags: HW
TeX: 441 194 32767 32767
HStem: -205 64<261.5 322.3> -20 20G<358 359> -0 21G<80 158 435 436> 394 61<184.6 373.1>
VStem: 80 73<380 450> 80 78<0 336.2> 358 78<-120 0 0 0 0 357.7>
Fore
80 -0 m 1xf6
 80 450 l 1
 153 450 l 1
 153 380 l 1
 167 398 211 455 299 455 c 0
 429 455 436 353 436 288 c 2
 436 -0 l 1
 435 -0 l 1
 434 -110 384 -205 307 -205 c 0
 272 -205 230 -195 189 -171 c 1
 216 -110 l 1
 239 -132 262 -141 282 -141 c 0
 313 -141 359 -120 359 -27 c 2
 359 -0 l 1
 358 -0 l 1
 358 281 l 2
 358 340 347 394 260 394 c 0xfa
 184 394 158 314 158 240 c 2
 158 -0 l 1
 80 -0 l 1xf6
EndSplineSet
EndChar
StartChar: sacute
Encoding: 347 347 182
Width: 383
Flags: HW
TeX: 638 0 32767 32767
HStem: -11 63<104 299.7> 401 60<93.7 270.1> 510 130<172 321>
VStem: 33 71<292.3 372.2> 110 211<510 640> 289 71<83.9 161.9>
Fore
27 34 m 1
 39 102 l 1
 79 78 123 52 197 52 c 0
 276 52 289 92 289 119 c 0
 289 152 262 174 235 183 c 0
 192 198 105 193 55 262 c 0
 43 278 33 301 33 330 c 0xf4
 33 435 109 461 196 461 c 0
 253 461 288 453 343 430 c 1
 332 364 l 1
 291 383 258 401 186 401 c 0
 115 401 104 365 104 341 c 0
 104 267 216 277 272 252 c 0
 302 239 360 202 360 126 c 0
 360 16 283 -11 195 -11 c 0
 125 -11 73 8 27 34 c 1
EndSplineSet
Refer: 7 180 S 1 0 0 1 -80 0 2
EndChar
StartChar: scaron
Encoding: 353 353 183
Width: 383
Flags: HW
TeX: 638 0 32767 32767
HStem: -11 63<105 300.7> 401 60<93.7 270.1>
VStem: 27 323<638 639> 33 71<244.8 372.2> 289 71<84.9 214.4>
Fore
27 34 m 1xe0
 39 102 l 1
 79 78 124 52 198 52 c 0
 277 52 289 93 289 120 c 0
 289 193 190 188 136 206 c 0
 98 218 33 256 33 330 c 0xd8
 33 435 110 461 196 461 c 0
 253 461 288 453 344 430 c 1
 332 364 l 1
 292 383 259 401 186 401 c 0
 115 401 104 365 104 341 c 0
 104 267 210.172 279.403 269 254 c 0
 313 235 360 194 360 126 c 0xd8
 360 16 283 -11 196 -11 c 0
 126 -11 74 8 27 34 c 1xe0
EndSplineSet
Refer: 13 711 S 1 0 0 1 -61 0 2
EndChar
StartChar: scedilla
Encoding: 351 351 184
Width: 383
Flags: HW
TeX: 441 170 32767 32767
HStem: -192 169<162 227> -11 63<104 299.7> 401 60<93.7 270.1>
VStem: 33 71<292.3 372.2> 92 135<-192 -23> 289 71<83.9 161.9>
Fore
27 34 m 1
 39 102 l 1
 79 78 123 52 197 52 c 0
 276 52 289 92 289 119 c 0
 289 152 262 174 235 183 c 0
 192 198 105 193 55 262 c 0
 43 278 33 301 33 330 c 0xf4
 33 435 110 461 196 461 c 0
 253 461 288 453 343 430 c 1
 332 364 l 1
 291 383 259 401 186 401 c 0
 115 401 104 365 104 341 c 0
 104 267 216 278 273 252 c 0
 302 238 360 201 360 126 c 0
 360 16 283 -11 195 -11 c 0
 125 -11 73 8 27 34 c 1
EndSplineSet
Refer: 17 184 S 1 0 0 1 -25 0 2
EndChar
StartChar: tcaron
Encoding: 357 357 185
Width: 361
Flags: HW
TeX: 722 0 32767 32767
HStem: -11 64<178.9 241.5> 386 59<18 102 174 315> 635 20G<273 357>
VStem: 102 72<61.2 386 445 571> 273 84<571 655>
Fore
18 386 m 1
 18 445 l 1
 104 445 l 1
 104 571 l 1
 174 571 l 1
 174 445 l 1
 315 445 l 1
 315 386 l 1
 174 386 l 1
 174 134 l 2
 175 78 190 53 227 53 c 0
 278 53 308 83 316 86 c 1
 332 27 l 1
 280 -1 228 -11 183 -11 c 0
 115 -11 102 49 102 122 c 2
 102 386 l 1
 18 386 l 1
273 488 m 1
 299 571 l 1
 273 571 l 1
 273 655 l 1
 357 655 l 1
 357 586 l 2
 355 558 348 557 315 488 c 1
 273 488 l 1
EndSplineSet
KernsSLIFO: 124 -28 11 0 258 -28 11 0 189 -28 11 0 126 -28 11 0
EndChar
StartChar: tcommaaccent
Encoding: 355 355 186
Width: 361
Flags: HW
TeX: 571 170 32767 32767
HStem: -192 169<187 252> -11 64<178.9 241.5> 386 59<18 102 174 315>
VStem: 102 72<61.2 386 445 571> 117 135<-192 -23>
Fore
18 386 m 1
 18 445 l 1
 104 445 l 1
 104 571 l 1
 174 571 l 1
 174 445 l 1
 315 445 l 1
 315 386 l 1
 174 386 l 1
 174 134 l 2
 175 78 190 53 227 53 c 0xf0
 278 53 308 83 316 86 c 1
 332 27 l 1
 280 -1 228 -11 183 -11 c 0
 113 -11 102 54 102 122 c 2
 102 386 l 1
 18 386 l 1
EndSplineSet
Refer: 17 184 S 1 0 0 1 0 0 2
KernsSLIFO: 124 -28 11 0 258 -28 11 0 189 -28 11 0 126 -28 11 0
EndChar
StartChar: ij
Encoding: 307 307 193
Width: 544
Flags: HW
TeX: 677 194 32767 32767
HStem: -205 64<284.9 371> 0 21<88 163> 425 20G<88 163 393 469> 590 89<81 171 379 469>
VStem: 81 90<590 679> 88 75<0 445> 379 90<590 679> 393 76<-97.0116 445>
Fore
230 -171 m 1
 245 -110 l 1
 266 -128 287 -141 319 -141 c 0
 359 -141 387 -115 392 -90 c 0
 394 -82 393 -73 393 -65 c 2
 393 445 l 1
 469 445 l 1
 469 -51 l 2xf1
 469 -173 394 -205 346 -205 c 0
 299 -205 260 -189 230 -171 c 1
EndSplineSet
Refer: 30 305 S 1 0 0 1 7 0 2
Refer: 361 183 S 1 0 0 1 306 415 2
Refer: 361 183 S 1 0 0 1 8 415 2
Ligature: 0 10 'liga' i j
Ligature: 0 0 'dlig' i j
EndChar
StartChar: exclamdown
Encoding: 161 161 194
Width: 319
Flags: W
TeX: 527 194 32767 32767
HStem: -195 21G<117 201> 444 84<117 201>
VStem: 117 84<-195 10.5 444 528> 125 67<167 353>
Fore
117 -195 m 1xe0
 125 353 l 1
 192 353 l 1xd0
 200 -143 l 1
 201 -195 l 1
 117 -195 l 1xe0
EndSplineSet
Refer: 51 46 S 1 0 0 1 21 444 2
EndChar
StartChar: questiondown
Encoding: 191 191 195
Width: 472
Flags: HW
TeX: 527 194 32767 32767
HStem: -205 61<151.5 329.6> 444 84<180 264>
VStem: 55 78<-137.9 -3.70298> 180 84<444 528> 188 67<212.5 353>
Fore
55 -43 m 0
 55 43 93 70 115 95 c 0
 172 162 188 235 188 310 c 2
 188 353 l 1
 255 353 l 1
 255 323 l 2
 255 121 168 54 148 19 c 0
 135 -3 133 -27 133 -47 c 0
 133 -120 168 -144 223 -144 c 0
 308 -144 366 -105 393 -86 c 1
 416 -150 l 1
 370 -178 305 -205 223 -205 c 0xe8
 89 -205 55 -116 55 -43 c 0
EndSplineSet
Refer: 51 46 S 1 0 0 1 84 444 2
EndChar
StartChar: sterling
Encoding: 163 163 196
Width: 639
Flags: HW
TeX: 722 0 32767 32767
HStem: -11 62<130.121 177.172 405.9 534.6> 83 62<125.8 190.992> 332 58<166 238 316 416> 702 61<364 461.5>
VStem: 238 78<133.279 332 390 672> 504 78<541 620.5> 532 78<60.5 145>
Fore
55 58 m 0
 55 110 113 145 183 145 c 0
 203 145 219 142 234 138 c 1
 236 156 238 174 238 194 c 2
 238 332 l 1
 166 332 l 1
 166 390 l 1
 238 390 l 1
 238 528 l 2
 238 701 344 763 415 763 c 0
 549 763 582 604 582 549 c 0
 582 512 559 507 547 507 c 0
 514 507 512 541 512 541 c 1
 504 541 l 1xfc
 503 675 451 702 416 702 c 0
 376 702 316 672 316 533 c 2
 316 390 l 1
 416 390 l 1
 416 332 l 1
 316 332 l 1
 316 193 l 2
 316 162 314 144 305 112 c 1
 322 105 423 50 480 50 c 0
 522 50 532 80 532 145 c 1
 610 145 l 1xfa
 607 48 532 -11 453 -11 c 0
 402 -11 367 5 269 51 c 1
 218 -8 156 -11 140 -11 c 0
 94 -11 55 17 55 58 c 0
130 61 m 0
 130 54 136 51 144 51 c 0
 175 51 202 76 202 76 c 1
 182 81 167 83 157 83 c 0xf8
 133 83 130 68 130 61 c 0
EndSplineSet
EndChar
StartChar: Agrave
Encoding: 192 192 197
Width: 667
Flags: HW
TeX: 850 0 32767 32767
HStem: 0 21<27 102 545 637> 204 56<199 447> 674 20<288 377>
VStem: 190 268<760 850>
Fore
190 850 m 1
 289 850 l 2
 313 850 365 813 458 760 c 1
 380 760 l 2
 363 760 362 764 190 850 c 1
EndSplineSet
Refer: 70 65 S 1 0 0 1 -0 0 2
KernsSLIFO: 1748 -28 11 0 1747 -28 11 0 1746 -28 11 0 92 -111 11 0 91 -111 11 0 226 -83 11 0 157 -83 11 0 94 -83 11 0 154 -83 11 0 153 -83 11 0 89 -83 11 0 225 -28 11 0 224 -28 11 0 223 -28 11 0 222 -28 11 0 156 -28 11 0 155 -28 11 0 90 -28 11 0 221 -28 11 0 220 -28 11 0 219 -28 11 0 218 -28 11 0 217 -28 11 0 216 -28 11 0 215 -28 11 0 147 -28 11 0 84 -28 11 0 86 -28 11 0 204 -28 11 0 140 -28 11 0 136 -28 11 0 135 -28 11 0 76 -28 11 0 72 -28 11 0 186 -28 11 0 185 -28 11 0 121 -28 11 0 118 -28 11 0 253 -28 11 0 252 -28 11 0 251 -28 11 0 250 -28 11 0 249 -28 11 0 248 -28 11 0 247 -28 11 0 179 -28 11 0 116 -28 11 0 240 -28 11 0 239 -28 11 0 238 -28 11 0 237 -28 11 0 171 -28 11 0 170 -28 11 0 106 -28 11 0 245 -28 11 0 163 -28 11 0 169 -28 11 0 105 -28 11 0 236 -28 11 0 168 -28 11 0 167 -28 11 0 104 -28 11 0 124 -28 11 0 123 -28 11 0 258 -28 11 0 189 -28 11 0 126 -28 11 0
Substitution: 0 7 'ss01' Agrave.vn
Substitution: 0 7 'salt' Agrave.vn
Substitution: 0 12 'locl' Agrave.vn
EndChar
StartChar: Aacute
Encoding: 193 193 198
Width: 667
Flags: HW
TeX: 850 0 32767 32767
HStem: 0 21<27 102 545 637> 204 56<199 447> 674 20<288 377>
VStem: 207 267<760 850>
Fore
207 760 m 1
 363 850 357 850 376 850 c 2
 474 850 l 1
 316 771 l 1
 294 761 l 1
 279 760 l 1
 207 760 l 1
EndSplineSet
Refer: 70 65 S 1 0 0 1 0 0 2
KernsSLIFO: 1748 -28 11 0 1747 -28 11 0 1746 -28 11 0 92 -111 11 0 91 -111 11 0 226 -83 11 0 157 -83 11 0 94 -83 11 0 154 -83 11 0 153 -83 11 0 89 -83 11 0 225 -28 11 0 224 -28 11 0 223 -28 11 0 222 -28 11 0 156 -28 11 0 155 -28 11 0 90 -28 11 0 221 -28 11 0 220 -28 11 0 219 -28 11 0 218 -28 11 0 217 -28 11 0 216 -28 11 0 215 -28 11 0 147 -28 11 0 84 -28 11 0 86 -28 11 0 204 -28 11 0 140 -28 11 0 136 -28 11 0 135 -28 11 0 76 -28 11 0 72 -28 11 0 186 -28 11 0 185 -28 11 0 121 -28 11 0 118 -28 11 0 253 -28 11 0 252 -28 11 0 251 -28 11 0 250 -28 11 0 249 -28 11 0 248 -28 11 0 247 -28 11 0 179 -28 11 0 116 -28 11 0 240 -28 11 0 239 -28 11 0 238 -28 11 0 237 -28 11 0 171 -28 11 0 170 -28 11 0 106 -28 11 0 245 -28 11 0 163 -28 11 0 169 -28 11 0 105 -28 11 0 236 -28 11 0 168 -28 11 0 167 -28 11 0 104 -28 11 0 124 -28 11 0 123 -28 11 0 258 -28 11 0 189 -28 11 0 126 -28 11 0
Substitution: 0 7 'ss01' Aacute.vn
Substitution: 0 7 'salt' Aacute.vn
Substitution: 0 12 'locl' Aacute.vn
EndChar
StartChar: Acircumflex
Encoding: 194 194 199
Width: 667
Flags: HW
TeX: 888 0 32767 32767
HStem: 0 21<27 102 545 637> 204 56<199 447> 674 20<288 377> 727 173<232 294>
VStem: 170 311<727 727>
Fore
170 727 m 1
 294 900 l 1
 370 900 l 1
 481 727 l 1
 419 727 l 1
 325 849 l 1
 232 727 l 1
 170 727 l 1
EndSplineSet
Refer: 70 65 S 1 0 0 1 0 0 2
KernsSLIFO: 1748 -28 11 0 1747 -28 11 0 1746 -28 11 0 92 -111 11 0 91 -111 11 0 226 -83 11 0 157 -83 11 0 94 -83 11 0 154 -83 11 0 153 -83 11 0 89 -83 11 0 225 -28 11 0 224 -28 11 0 223 -28 11 0 222 -28 11 0 156 -28 11 0 155 -28 11 0 90 -28 11 0 221 -28 11 0 220 -28 11 0 219 -28 11 0 218 -28 11 0 217 -28 11 0 216 -28 11 0 215 -28 11 0 147 -28 11 0 84 -28 11 0 86 -28 11 0 204 -28 11 0 140 -28 11 0 136 -28 11 0 135 -28 11 0 76 -28 11 0 72 -28 11 0 186 -28 11 0 185 -28 11 0 121 -28 11 0 118 -28 11 0 253 -28 11 0 252 -28 11 0 251 -28 11 0 250 -28 11 0 249 -28 11 0 248 -28 11 0 247 -28 11 0 179 -28 11 0 116 -28 11 0 240 -28 11 0 239 -28 11 0 238 -28 11 0 237 -28 11 0 171 -28 11 0 170 -28 11 0 106 -28 11 0 245 -28 11 0 163 -28 11 0 169 -28 11 0 105 -28 11 0 236 -28 11 0 168 -28 11 0 167 -28 11 0 104 -28 11 0 124 -28 11 0 123 -28 11 0 258 -28 11 0 189 -28 11 0 126 -28 11 0
Substitution: 0 7 'ss01' Acircumflex.vn
Substitution: 0 7 'salt' Acircumflex.vn
Substitution: 0 12 'locl' Acircumflex.vn
EndChar
StartChar: Atilde
Encoding: 195 195 200
Width: 667
Flags: HW
TeX: 888 0 32767 32767
HStem: 0 21<27 102 545 637> 204 56<199 447> 674 20<288 377> 727 63<317.5 415.596> 827 62<220.8 341.7>
VStem: 166 61<727 795.9> 437 62<779.8 889>
Fore
166 727 m 1
 167 823 204 889 262 889 c 0
 330 889 335 790 399 790 c 0
 403 790 407 790 412 791 c 1
 425 800 437 805 437 889 c 1
 499 889 l 1
 497 763 442 727 402 727 c 0
 337 727 324 827 265 827 c 0
 231 827 227 780 227 727 c 1
 166 727 l 1
EndSplineSet
Refer: 70 65 S 1 0 0 1 -0 0 2
KernsSLIFO: 1748 -28 11 0 1747 -28 11 0 1746 -28 11 0 92 -111 11 0 91 -111 11 0 226 -83 11 0 157 -83 11 0 94 -83 11 0 154 -83 11 0 153 -83 11 0 89 -83 11 0 225 -28 11 0 224 -28 11 0 223 -28 11 0 222 -28 11 0 156 -28 11 0 155 -28 11 0 90 -28 11 0 221 -28 11 0 220 -28 11 0 219 -28 11 0 218 -28 11 0 217 -28 11 0 216 -28 11 0 215 -28 11 0 147 -28 11 0 84 -28 11 0 86 -28 11 0 204 -28 11 0 140 -28 11 0 136 -28 11 0 135 -28 11 0 76 -28 11 0 72 -28 11 0 186 -28 11 0 185 -28 11 0 121 -28 11 0 118 -28 11 0 253 -28 11 0 252 -28 11 0 251 -28 11 0 250 -28 11 0 249 -28 11 0 248 -28 11 0 247 -28 11 0 179 -28 11 0 116 -28 11 0 240 -28 11 0 239 -28 11 0 238 -28 11 0 237 -28 11 0 171 -28 11 0 170 -28 11 0 106 -28 11 0 245 -28 11 0 163 -28 11 0 169 -28 11 0 105 -28 11 0 236 -28 11 0 168 -28 11 0 167 -28 11 0 104 -28 11 0 124 -28 11 0 123 -28 11 0 258 -28 11 0 189 -28 11 0 126 -28 11 0
Substitution: 0 7 'ss01' Atilde.vn
Substitution: 0 7 'salt' Atilde.vn
Substitution: 0 12 'locl' Atilde.vn
EndChar
StartChar: Aring
Encoding: 197 197 202
Width: 667
Flags: HW
TeX: 850 0 32767 32767
HStem: -0 21G<27 102 545 637> 204 56<199 447> 694 21G<314 336> 827 61<296.4 353.6>
VStem: 214 56<688.2 831.2> 381 55<689.8 832.8>
Fore
27 -0 m 1
 271 649 l 1
 255 662 214 693 214 761 c 0
 214 828 261 888 325 888 c 0
 391 888 436 827 436 760 c 0
 436 691 391 659 391 657 c 1
 637 -0 l 1
 545 -0 l 1
 468 204 l 1
 178 204 l 1
 102 -0 l 1
 27 -0 l 1
199 260 m 1
 447 260 l 1
 357 512 329 587 323 624 c 1
 308 551 212 300 199 260 c 1
270 761 m 0
 270 705 303 694 325 694 c 0
 347 694 381 706 381 760 c 0
 381 816 347 827 325 827 c 0
 303 827 270 815 270 761 c 0
EndSplineSet
KernsSLIFO: 1748 -28 11 0 1747 -28 11 0 1746 -28 11 0 92 -111 11 0 91 -111 11 0 226 -83 11 0 157 -83 11 0 94 -83 11 0 154 -83 11 0 153 -83 11 0 89 -83 11 0 225 -28 11 0 224 -28 11 0 223 -28 11 0 222 -28 11 0 156 -28 11 0 155 -28 11 0 90 -28 11 0 221 -28 11 0 220 -28 11 0 219 -28 11 0 218 -28 11 0 217 -28 11 0 216 -28 11 0 215 -28 11 0 147 -28 11 0 84 -28 11 0 86 -28 11 0 204 -28 11 0 140 -28 11 0 136 -28 11 0 135 -28 11 0 76 -28 11 0 72 -28 11 0 186 -28 11 0 185 -28 11 0 121 -28 11 0 118 -28 11 0 253 -28 11 0 252 -28 11 0 251 -28 11 0 250 -28 11 0 249 -28 11 0 248 -28 11 0 247 -28 11 0 179 -28 11 0 116 -28 11 0 240 -28 11 0 239 -28 11 0 238 -28 11 0 237 -28 11 0 171 -28 11 0 170 -28 11 0 106 -28 11 0 245 -28 11 0 163 -28 11 0 169 -28 11 0 105 -28 11 0 236 -28 11 0 168 -28 11 0 167 -28 11 0 104 -28 11 0 124 -28 11 0 123 -28 11 0 258 -28 11 0 189 -28 11 0 126 -28 11 0
EndChar
StartChar: AE
Encoding: 198 198 203
Width: 861
Flags: HW
TeX: 694 0 32767 32767
HStem: -0 70<507 818> 222 56<217 418> 330 62<507 777> 630 64<360 418 507 804>
VStem: 418 89<70 222 278 330 392 630>
AnchorPoint: "below" 422 0 basechar 0
AnchorPoint: "above" 422 716 basechar 0
Fore
27 -0 m 1
 311 694 l 1
 804 694 l 1
 804 628 l 1
 757 628 l 1
 734 629 l 1
 529 629 l 1
 507 630 l 1
 507 392 l 1
 777 392 l 1
 777 330 l 1
 507 330 l 1
 507 70 l 1
 572 70 l 1
 596 71 l 1
 758 71 l 1
 779 72 l 1
 818 72 l 1
 818 -0 l 1
 418 -0 l 1
 418 222 l 1
 193 222 l 1
 102 -0 l 1
 27 -0 l 1
217 278 m 1
 418 278 l 1
 418 630 l 1
 360 630 l 1
 217 278 l 1
EndSplineSet
EndChar
StartChar: Ccedilla
Encoding: 199 199 204
Width: 639
Flags: HW
TeX: 694 170 32767 32767
HStem: -192 169<354 419> -22 64<207.8 503.2> 652 65<217.8 490.8>
VStem: 66 90<137.7 565.4> 284 135<-192 -23>
AnchorPoint: "above" 398 716 basechar 0
Fore
66 347 m 0
 66 527 186 717 398 717 c 0
 478 717 534 698 577 682 c 1
 562 599 l 1
 509 632 468 652 392 652 c 0
 258 652 156 515 156 347 c 0
 156 186 251 42 395 42 c 0
 497 42 532 70 582 103 c 1
 588 33 l 1
 518 -8 478 -22 394 -22 c 0
 197 -22 66 155 66 347 c 0
EndSplineSet
Refer: 17 184 S 1 0 0 1 167 0 2
EndChar
StartChar: Eacute
Encoding: 201 201 206
Width: 597
Flags: HW
TeX: 850 0 32767 32767
HStem: 0 70<184 555> 329 61<184 514> 625 66<184 541>
VStem: 94 90<70 329 390 627> 200 268<760 850>
Fore
200 760 m 1
 357 850 350 850 370 850 c 2
 468 850 l 1
 310 771 l 1
 288 761 l 1
 273 760 l 1
 200 760 l 1
EndSplineSet
Refer: 74 69 S 1 0 0 1 -0 0 2
Substitution: 0 7 'ss01' Eacute.vn
Substitution: 0 7 'salt' Eacute.vn
Substitution: 0 12 'locl' Eacute.vn
EndChar
StartChar: Ecircumflex
Encoding: 202 202 207
Width: 597
Flags: HW
TeX: 888 0 32767 32767
HStem: 0 70<184 555> 329 61<184 514> 625 66<184 541> 727 173<190 254>
VStem: 94 90<70 329 390 627> 129 311<727 727>
Fore
129 727 m 1
 254 900 l 1
 315 900 l 1
 440 727 l 1
 379 727 l 1
 284 849 l 1xf4
 190 727 l 1
 129 727 l 1
EndSplineSet
Refer: 74 69 S 1 0 0 1 0 0 2
Substitution: 0 7 'ss01' Ecircumflex.vn
Substitution: 0 7 'salt' Ecircumflex.vn
Substitution: 0 12 'locl' Ecircumflex.vn
EndChar
StartChar: Igrave
Encoding: 204 204 209
Width: 278
Flags: HW
TeX: 850 0 32767 32767
HStem: 0 21<95 185> 674 20<95 185>
VStem: -16 267<760 850> 95 90<0 694>
Fore
-16 850 m 1
 82 850 l 2xe0
 106 850 157 814 251 760 c 1
 178 760 l 2
 176 760 174 759 173 759 c 0
 159 759 136 774 -16 850 c 1
EndSplineSet
Refer: 78 73 S 1 0 0 1 1 0 2
Substitution: 0 7 'ss01' Igrave.vn
Substitution: 0 7 'salt' Igrave.vn
Substitution: 0 12 'locl' Igrave.vn
EndChar
StartChar: Iacute
Encoding: 205 205 210
Width: 278
Flags: HW
TeX: 850 0 32767 32767
HStem: 0 21<94 184> 674 20<94 184>
VStem: 54 268<760 850> 94 90<0 694>
Fore
54 760 m 1
 210 850 204 850 223 850 c 2xe0
 322 850 l 1
 164 771 l 1
 142 761 l 1
 127 760 l 1
 54 760 l 1
EndSplineSet
Refer: 78 73 S 1 0 0 1 -0 -0 2
Substitution: 0 7 'ss01' Iacute.vn
Substitution: 0 7 'salt' Iacute.vn
Substitution: 0 12 'locl' Iacute.vn
Position: 0 0 'ITLC' dx=0 dy=0 dh=74 dv=0
EndChar
StartChar: Icircumflex
Encoding: 206 206 211
Width: 278
Flags: HW
TeX: 888 0 32767 32767
HStem: 0 21<95 185> 674 20<95 185> 727 173<46 109>
VStem: -16 311<727 727> 95 90<0 694>
Fore
-16 727 m 1
 109 900 l 1
 170 900 l 1
 295 727 l 1
 234 727 l 1
 139 849 l 1xf0
 46 727 l 1
 -16 727 l 1
EndSplineSet
Refer: 78 73 S 1 0 0 1 1 0 2
EndChar
StartChar: Eth
Encoding: 208 208 213
Width: 722
Flags: HW
TeX: 694 0 32767 32767
HStem: -0 56<182 371.429> 311 59<0 95 182 361> 638 56<183 391.3>
VStem: 95 87<56 311 370 638> 580 86<251.3 498.3>
Fore
0 311 m 1
 0 370 l 1
 95 370 l 1
 95 694 l 1
 341 694 l 2
 359 694 377 694 395 692 c 0
 542 672 666 528 666 342 c 0
 666 198 591 86 493 33 c 0
 441 6 400 -0 344 -0 c 2
 95 -0 l 1
 95 311 l 1
 0 311 l 1
182 56 m 1
 326 56 l 2
 358 56 451.602 56.3008 521 148 c 0
 562.761 203.181 580 272 580 341 c 0
 580 462 532 549 466 596 c 0
 420 630 376 638 325 638 c 2
 183 638 l 1
 182 601 l 1
 182 370 l 1
 361 370 l 1
 361 311 l 1
 182 311 l 1
 182 56 l 1
EndSplineSet
KernsSLIFO: 226 -28 11 0 157 -28 11 0 94 -28 11 0 91 -28 11 0 203 -28 11 0 202 -28 11 0 201 -28 11 0 200 -28 11 0 199 -28 11 0 198 -28 11 0 197 -28 11 0 134 -28 11 0 133 -28 11 0 70 -28 11 0 92 -28 11 0 93 -28 11 0
EndChar
StartChar: Ntilde
Encoding: 209 209 214
Width: 708
Flags: HW
TeX: 888 0 32767 32767
HStem: -0 21<95 173 486 611> 674 20<95 220 533 611> 727 162<207.6 248 339.8 370.1 458 498.4> 727 63<339.8 436.896> 826 62<267.785 322.2>
VStem: 95 78<0 624> 186 62<727 823.2> 458 62<779.8 889> 533 78<70 694>
Fore
186 727 m 1
 187 825 225 888 283 888 c 0xdf80
 350 888 356 790 419 790 c 0xdf80
 424 790 428 790 433 791 c 1
 446 800 458 805 458 889 c 1
 520 889 l 1xe780
 519 791 481 727 423 727 c 0
 359 727 347 819 291 826 c 0xdf80
 281 828 276 825 273 824 c 1
 266 819 l 1
 255 807 248 801 248 727 c 1xe780
 186 727 l 1
EndSplineSet
Refer: 83 78 S 1 0 0 1 0 -0 2
EndChar
StartChar: Oacute
Encoding: 211 211 216
Width: 736
Flags: HW
TeX: 850 0 32767 32767
HStem: -22 65<194.1 532.1> 652 64<207.1 517.8>
VStem: 55 90<139.3 582.6> 242 268<760 850> 590 89<128.9 594.3>
Fore
242 760 m 1
 398 850 392 850 411 850 c 2
 510 850 l 1
 351 771 l 1
 329 761 l 1
 315 760 l 1
 242 760 l 1
EndSplineSet
Refer: 84 79 S 1 0 0 1 -0 0 2
KernsSLIFO: 226 -28 11 0 157 -28 11 0 94 -28 11 0 91 -28 11 0 203 -28 11 0 202 -28 11 0 201 -28 11 0 200 -28 11 0 199 -28 11 0 198 -28 11 0 197 -28 11 0 134 -28 11 0 133 -28 11 0 70 -28 11 0 92 -28 11 0 93 -28 11 0
Substitution: 0 7 'ss01' Oacute.vn
Substitution: 0 7 'salt' Oacute.vn
Substitution: 0 12 'locl' Oacute.vn
EndChar
StartChar: Ocircumflex
Encoding: 212 212 217
Width: 736
Flags: HW
TeX: 888 0 32767 32767
HStem: -22 65<194.1 532.1> 652 64<207.1 517.8> 727 173<273 336>
VStem: 55 90<139.3 582.6> 212 311<727 727> 590 89<128.9 594.3>
Fore
212 727 m 1
 336 900 l 1
 398 900 l 1
 523 727 l 1
 462 727 l 1
 367 849 l 1
 273 727 l 1
 212 727 l 1
EndSplineSet
Refer: 84 79 S 1 0 0 1 0 0 2
KernsSLIFO: 226 -28 11 0 157 -28 11 0 94 -28 11 0 91 -28 11 0 203 -28 11 0 202 -28 11 0 201 -28 11 0 200 -28 11 0 199 -28 11 0 198 -28 11 0 197 -28 11 0 134 -28 11 0 133 -28 11 0 70 -28 11 0 92 -28 11 0 93 -28 11 0
Substitution: 0 7 'ss01' Ocircumflex.vn
Substitution: 0 7 'salt' Ocircumflex.vn
Substitution: 0 12 'locl' Ocircumflex.vn
EndChar
StartChar: Otilde
Encoding: 213 213 218
Width: 736
Flags: HW
TeX: 888 0 32767 32767
HStem: -22 65<194.1 532.1> 652 64<207.1 517.8> 727 61<414.623 451.12>
VStem: 55 90<139.3 582.6> 200 62<727 792> 473 61<822.7 889> 590 89<128.9 594.3>
Fore
200 727 m 1
 203 777 209 836 250 870 c 0
 259 879 276 889 296 889 c 0
 312 889 330 882 348 864 c 0
 364 847 396 788 433 788 c 0
 438.6 788 445.772 790.386 447 791 c 0
 472 808 471 830 473 889 c 1
 534 889 l 1
 532 838 525 779 485 745 c 0
 476 737 459 727 438 727 c 0
 423 727 405 733 387 751 c 0
 367 773 338 827 302 827 c 0
 300 827 297 827 295 826 c 1
 287 824 l 1
 280 820 l 1
 267 804 263 797 262 727 c 1
 200 727 l 1
EndSplineSet
Refer: 84 79 S 1 0 0 1 0 -0 2
KernsSLIFO: 226 -28 11 0 157 -28 11 0 94 -28 11 0 91 -28 11 0 203 -28 11 0 202 -28 11 0 201 -28 11 0 200 -28 11 0 199 -28 11 0 198 -28 11 0 197 -28 11 0 134 -28 11 0 133 -28 11 0 70 -28 11 0 92 -28 11 0 93 -28 11 0
Substitution: 0 7 'ss01' Otilde.vn
Substitution: 0 7 'salt' Otilde.vn
Substitution: 0 12 'locl' Otilde.vn
EndChar
StartChar: OE
Encoding: 338 338 220
Width: 972
Flags: HW
TeX: 694 0 32767 32767
HStem: -22 61<164.1 427.2> -0 70<558 929> 330 62<558 887> 628 66<558 915> 655 61<302.5 435.7>
VStem: 27 87<153.9 593.3> 471 87<70 330 392 621>
Fore
27 345 m 0
 27 547 175 716 359 716 c 0xae
 418 716 455 694 527 694 c 2
 915 694 l 1
 915 628 l 1
 858 628 l 1
 834 629 l 1
 595 629 l 1
 558 630 l 1
 558 392 l 1
 887 392 l 1
 887 330 l 1
 558 330 l 1
 558 70 l 1
 644 70 l 1
 668 71 l 1
 861 71 l 1
 883 72 l 1
 929 72 l 1
 929 -0 l 1
 505 -0 l 2x76
 455 -3 411 -22 357 -22 c 0
 187 -22 27 131 27 345 c 0
114 358 m 0xae
 114 201 210 39 363 39 c 0
 456 39 471 77 471 229 c 2
 471 471 l 2
 471 621 453 652 370 655 c 2
 351 655 l 2
 235 649 114 539 114 358 c 0xae
EndSplineSet
EndChar
StartChar: Oslash
Encoding: 216 216 221
Width: 778
Flags: HW
TeX: 746 48 32767 32767
HStem: -22 61<318.8 532> 655 61<226.8 450.4>
VStem: 55 86<237.4 606.3> 635 86<87.6 506.2>
Fore
55 345 m 0
 55 546 201 716 388 716 c 0
 449 716 497 699 541 675 c 1
 589 759 l 1
 590 759 l 1
 645 727 l 1
 593 637 l 1
 666 576 721 469 721 345 c 0
 721 147 577 -22 388 -22 c 0
 327 -22 279 -5 235 19 c 1
 187 -65 l 1
 132 -33 l 1
 183 56 l 1
 96 130 55 240 55 345 c 0
141 344 m 0
 141 262 163 179 218 117 c 1
 508 619 l 1
 472 641 436 655 388 655 c 0
 264 655 141 546 141 344 c 0
268 75 m 1
 306 54 335 39 389 39 c 0
 499 39 635 132 635 346 c 0
 635 484 576 554 558 576 c 1
 557 576 l 1
 268 75 l 1
EndSplineSet
KernsSLIFO: 226 -28 11 0 157 -28 11 0 94 -28 11 0 91 -28 11 0 203 -28 11 0 202 -28 11 0 201 -28 11 0 200 -28 11 0 199 -28 11 0 198 -28 11 0 197 -28 11 0 134 -28 11 0 133 -28 11 0 70 -28 11 0 92 -28 11 0 93 -28 11 0
EndChar
StartChar: Uacute
Encoding: 218 218 223
Width: 687
Flags: HW
TeX: 850 0 32767 32767
HStem: -22 56<266.7 426.6> 674 20<94 184 514 593>
VStem: 94 89<27.9 694> 259 268<760 850> 515 78<24.2 694>
Fore
259 760 m 1
 416 850 409 850 429 850 c 2xf0
 527 850 l 1
 369 771 l 1
 347 761 l 1
 332 760 l 1
 259 760 l 1
EndSplineSet
Refer: 90 85 S 1 0 0 1 0 0 2
Substitution: 0 7 'ss01' Uacute.vn
Substitution: 0 7 'salt' Uacute.vn
Substitution: 0 12 'locl' Uacute.vn
EndChar
StartChar: Ucircumflex
Encoding: 219 219 224
Width: 687
Flags: HW
TeX: 888 0 32767 32767
HStem: -22 56<266.7 426.6> 674 20<94 184 514 593> 727 173<252 315>
VStem: 94 89<27.9 694> 190 312<727 727> 515 78<24.2 694>
Fore
190 727 m 1
 315 900 l 1
 372 900 l 1
 502 727 l 1
 440 727 l 1
 346 849 l 1
 252 727 l 1
 190 727 l 1
EndSplineSet
Refer: 90 85 S 1 0 0 1 0 0 2
EndChar
StartChar: Yacute
Encoding: 221 221 226
Width: 667
Flags: HW
TeX: 850 0 32767 32767
HStem: 0 21<289 376> 674 20<2 107 574 662>
VStem: 248 268<760 850> 289 87<0 278>
Fore
248 760 m 1
 405 850 398 850 418 850 c 2xe0
 516 850 l 1
 358 771 l 1
 336 761 l 1
 321 760 l 1
 248 760 l 1
EndSplineSet
Refer: 94 89 S 1 0 0 1 0 0 2
KernsSLIFO: 1747 -83 11 0 1746 -83 11 0 203 -83 11 0 202 -83 11 0 201 -83 11 0 200 -83 11 0 199 -83 11 0 198 -83 11 0 197 -83 11 0 134 -83 11 0 133 -83 11 0 70 -83 11 0 127 -83 11 0 125 -83 11 0 124 -83 11 0 123 -83 11 0 120 -83 11 0 117 -83 11 0 108 -83 11 0 105 -83 11 0 104 -83 11 0 30 -83 11 0 115 -83 11 0 122 -83 11 0 102 -83 11 0 119 -83 11 0 116 -83 11 0 106 -83 11 0
Substitution: 0 7 'ss01' Yacute.vn
Substitution: 0 7 'salt' Yacute.vn
Substitution: 0 12 'locl' Yacute.vn
Position: 0 0 'ITLC' dx=0 dy=0 dh=24 dv=0
EndChar
StartChar: Thorn
Encoding: 222 222 227
Width: 583
Flags: HW
TeX: 694 0 32767 32767
HStem: 0 21G<96 180> 180 56<180 308> 511 56<181 444> 674 20G<96 180>
VStem: 96 85<0 180 236 511 567 694> 445 81<301.5 444.5>
Fore
96 0 m 1
 96 694 l 1
 180 694 l 1
 180 567 l 1
 302 567 l 2
 469 567 526 451 526 374 c 0
 526 289 460 180 308 180 c 2
 180 180 l 1
 180 0 l 1
 96 0 l 1
180 236 m 1
 282 236 l 2
 401 236 445 318 445 373 c 0
 445 428 402 511 262 511 c 2
 181 511 l 1
 180 473 l 1
 180 236 l 1
EndSplineSet
EndChar
StartChar: Germandbls
Encoding: 61699 61699 228
Width: 1111
Flags: HW
TeX: 694 0 32767 32767
HStem: -22 69<162.5 387.1 717.2 942.1> 649 67<161.7 382.4 726.8 937.4>
VStem: 55 80<468.3 607.7> 419 80<89.3 247.9> 610 80<466.3 615.8> 975 79<89.3 247.9>
Fore
44 47 m 1
 59 130 l 1
 107 91 175 47 274 47 c 0
 361 47 419 110 419 179 c 0
 419 232 383.811 278.524 333 299 c 0
 266 326 151 320 84 421 c 0
 68 446 55 480 55 519 c 0
 55 615 139 716 281 716 c 0
 359 716 408 699 465 668 c 1
 450 585 l 1
 401 624 359 649 280 649 c 0
 189 649 135 590 135 531 c 0
 135 482 171 443 214 425 c 0
 243 413 329 397 365 383 c 0
 429 356 499 289 499 189 c 0
 499 81 410 -22 273 -22 c 0
 188 -22 111 5 44 47 c 1
599 47 m 1
 614 130 l 1
 663 91 731 47 829 47 c 0
 916 47 975 110 975 179 c 0
 975 232 940 279 889 299 c 0
 865 309 789.013 325.044 765 332 c 0
 692.039 353.134 611 417 610 519 c 0
 610 617 695 716 836 716 c 0
 917 716 969 696 1020 668 c 1
 1006 585 l 1
 956 624 914 649 836 649 c 0
 752 649 690 596 690 530 c 0
 690 481 727 442 770 425 c 0
 799 413 885 397 920 383 c 0
 985 356 1054 289 1054 189 c 0
 1054 81 966 -22 829 -22 c 0
 743 -22 666 5 599 47 c 1
EndSplineSet
EndChar
StartChar: acircumflex
Encoding: 226 226 231
Width: 480
Flags: HW
TeX: 638 0 32767 32767
HStem: -11 62<141.1 219.1> 193 52<227.1 322> 401 60<148.9 263.253> 509 141<144 208>
VStem: 44 73<65.9 195.9> 83 311<509 509> 322 78<0 35 46.8 193>
Fore
83 509 m 1
 208 650 l 1
 292 650 l 1
 394 509 l 1
 333 509 l 1
 239 608 l 1xf4
 144 509 l 1
 83 509 l 1
EndSplineSet
Refer: 102 97 S 1 0 0 1 0 -0 2
KernsSLIFO: 124 -28 11 0 258 -28 11 0 189 -28 11 0 126 -28 11 0 119 -28 11 0
Substitution: 0 7 'ss01' acircumflex.vn
Substitution: 0 7 'salt' acircumflex.vn
Substitution: 0 12 'locl' acircumflex.vn
EndChar
StartChar: aring
Encoding: 229 229 234
Width: 480
Flags: HW
TeX: 638 0 32767 32767
HStem: -11 62<141.1 219.1> 193 52<227.1 322> 401 60<148.9 263.253> 476 33<180.8 296.5> 606 33<193.5 296.2>
VStem: 44 73<65.9 195.9> 127 56<532.3 596> 294 56<532 582.7> 322 78<0 35 46.8 193>
Fore
127 558 m 0
 127 603 178 639 239 639 c 0
 297 639 350 604 350 557 c 0
 350 512 300 476 238 476 c 0
 180 476 127 511 127 558 c 0
183 557 m 0
 183 538 194 509 238 509 c 0
 283 509 294 538 294 558 c 0
 294 577 283 606 239 606 c 0xff
 204 606 183 587 183 557 c 0
EndSplineSet
Refer: 102 97 S 1 0 0 1 0 0 2
KernsSLIFO: 124 -28 11 0 258 -28 11 0 189 -28 11 0 126 -28 11 0 119 -28 11 0
EndChar
StartChar: ae
Encoding: 230 230 235
Width: 722
Flags: HW
TeX: 441 0 32767 32767
HStem: -11 62<123.9 261.7 499.8 619.7> 191 56<246.6 322> 220 55<405 634> 399 62<152.1 298 464.3 557.575>
VStem: 46 73<81.2 198.2>
AnchorPoint: "below" 370 0 basechar 0
AnchorPoint: "above" 365 461 basechar 0
Fore
46 114 m 0
 46 204 173 244 321 247 c 1xd8
 321 279 l 1
 320 305 l 2
 316 358 283 401 233 401 c 0
 158 401 116 373 82 350 c 1
 76 417 l 1
 128 446 171 461 234 461 c 0
 335 461 372 384 375 383 c 1
 411 429 466 461 527 461 c 0
 593 461 693 422 693 220 c 1
 399 220 l 1xb8
 401 201 403 117 477 70 c 0
 489 63 510 51 544 51 c 0
 609 51 652 81 682 106 c 1
 688 40 l 1
 648 11 602 -11 543 -11 c 0
 477 -11 422 18 379 66 c 1
 336 4 238 -11 159 -11 c 0
 69 -11 46 75 46 114 c 0
119 115 m 0
 119 89 144 51 211 51 c 0
 259 51 326 66 326 126 c 0
 326 139 323 185 322 191 c 1xd8
 264 191 119 179 119 115 c 0
405 275 m 1
 634 275 l 1
 615 394 549 399 528 399 c 0xb8
 479 399 422 357 405 275 c 1
EndSplineSet
EndChar
StartChar: ecircumflex
Encoding: 234 234 239
Width: 444
Flags: HW
TeX: 638 0 32767 32767
HStem: -11 62<144.1 333.9> 220 55<109 357> 399 62<137.2 273.7> 509 141<127 190>
VStem: 34 70<127.375 226> 66 311<509 509>
Fore
66 509 m 1
 190 650 l 1
 253 650 l 1
 377 509 l 1
 316 509 l 1
 221 608 l 1xf4
 127 509 l 1
 66 509 l 1
EndSplineSet
Refer: 106 101 S 1 0 0 1 -0 0 2
Substitution: 0 7 'ss01' ecircumflex.vn
Substitution: 0 7 'salt' ecircumflex.vn
Substitution: 0 12 'locl' ecircumflex.vn
EndChar
StartChar: eth
Encoding: 240 240 245
Width: 500
Flags: HW
TeX: 722 0 32767 32767
HStem: -11 64<142.4 343.9> 399 62<165.8 302.3>
VStem: 30 78<91.9 382.5> 390 79<164.5 353.4>
Fore
30 220 m 0
 30 345 122 461 249 461 c 0
 290 461 318 450 350 434 c 1
 314 508 282 541 238 584 c 1
 237 584 l 1
 142 529 l 1
 108 590 l 1
 177 630 l 1
 126 658 114 664 69 677 c 1
 122 722 l 1
 165 709 206 690 240 666 c 1
 338 722 l 1
 373 662 l 1
 300 620 l 1
 382 548 469 421 469 249 c 2
 469 236 l 2
 469 181 462 139 432 91 c 0
 391 27 322 -11 249 -11 c 0
 135 -11 30 85 30 220 c 0
108 231 m 0
 108 124 167 53 249 53 c 0
 334 53 390 128 390 226 c 0
 390 324 334 399 249 399 c 0
 185 399 108 352 108 231 c 0
EndSplineSet
EndChar
StartChar: oe
Encoding: 339 339 252
Width: 778
Flags: HW
TeX: 441 0 32767 32767
HStem: -11 62<137 320.3 556.1 676> 220 55<460 690> 399 62<161.7 286.5 519 613.575>
VStem: 30 73<89.3 389.6>
AnchorPoint: "below" 390 0 basechar 0
AnchorPoint: "above" 408 461 basechar 0
Fore
30 225 m 0
 30 352 122 461 241 461 c 0
 276 461 355 451 415 362 c 1
 450 419 515 461 582 461 c 0
 649 461 749 423 749 220 c 1
 455 220 l 1
 457 201 459.021 117.032 533 70 c 0
 544.003 63.0048 566 51 599 51 c 0
 665 51 708 81 738 106 c 1
 744 40 l 1
 704 10 658 -11 598 -11 c 0
 562 -11 480 -2 416 90 c 1
 377 28 311 -11 241 -11 c 0
 131 -11 30 88 30 225 c 0
103 231 m 0
 103 122 161 51 241 51 c 0
 302 51 377 100 377 231 c 0
 377 340 315 399 241 399 c 0
 180 399 103 353 103 231 c 0
460 275 m 1
 690 275 l 1
 671 394 605 399 584 399 c 0
 534 399 478 357 460 275 c 1
EndSplineSet
EndChar
StartChar: oslash
Encoding: 248 248 253
Width: 500
Flags: HW
TeX: 544 97 32767 32767
HStem: -11 62<212.275 340> 399 62<163.2 285.864>
VStem: 31 75<121.2 383.5> 392 75<66.9 319.1>
Fore
31 221 m 0
 31 346 123 461 249 461 c 0
 281 461 305 454 337 440 c 1
 402 556 l 1
 403 556 l 1
 456 526 l 1
 388 405 l 1
 424 369 467 314 467 221 c 0
 467 93 371 -11 249 -11 c 0
 214 -11 187 -2 163 8 c 1
 96 -112 l 1
 42 -82 l 1
 111 41 l 1
 69 77 31 140 31 221 c 0
106 220 m 0
 106 144 134 115 144 99 c 1
 306 386 l 1
 290 393 276 399 249 399 c 0
 183 399 106 347 106 220 c 0
194 62 m 1
 211 55 230 51 249 51 c 0
 319 51 392 102 392 219 c 0
 392 296 364 333 355 346 c 1
 354 346 l 1
 194 62 l 1
EndSplineSet
KernsSLIFO: 1747 28 11 0 1746 28 11 0 124 -28 11 0 258 -28 11 0 189 -28 11 0 126 -28 11 0 119 -28 11 0 118 28 11 0 236 28 11 0 168 28 11 0 167 28 11 0 104 28 11 0 105 28 11 0 125 -28 11 0 253 28 11 0 252 28 11 0 251 28 11 0 250 28 11 0 249 28 11 0 248 28 11 0 247 28 11 0 179 28 11 0 116 28 11 0 240 28 11 0 239 28 11 0 238 28 11 0 237 28 11 0 171 28 11 0 170 28 11 0 106 28 11 0
EndChar
StartChar: thorn
Encoding: 254 254 259
Width: 517
Flags: HW
TeX: 722 194 32767 32767
HStem: -195 21G<81 159> -11 61<217.3 347> 391 64<265 371.6> 702 20G<81 156>
VStem: 81 78<-195 46 94.8 334 396 722> 401 79<85.5 336.4>
Fore
81 -195 m 1
 81 722 l 1
 156 722 l 1
 156 396 l 1
 221 448 288 455 322 455 c 0
 416 455 480 344 480 224 c 0
 480 101 405 -11 294 -11 c 0
 235 -11 192 16 159 46 c 1
 159 -195 l 1
 81 -195 l 1
159 126 m 2
 159 102 197 50 256 50 c 0
 326 50 401 117 401 222 c 0
 401 310 347 391 265 391 c 0
 195 391 160 334 159 334 c 1
 159 126 l 2
EndSplineSet
EndChar
StartChar: germandbls
Encoding: 223 223 260
Width: 480
Flags: HW
TeX: 722 0 32767 32767
HStem: -11 63<260.5 378.1> 402 58.0219<285.557 343.647> 672 61<143.1 351.8>
VStem: 81 75<0 615.898> 212 71<277.7 407.8> 346 78<511.8 643.3> 375 71<84.9 150.6>
Fore
81 0 m 1
 81 564 l 2
 81 699 168 733 251 733 c 0
 332 733 424 700 424 569 c 0xfc
 424 525 416 413 317 402 c 0
 293 399 283 391 283 335 c 0
 283 258 299 283 358 263 c 0
 393 250 446 208 446 127 c 0
 446 45 401 -11 319 -11 c 0
 274 -11 241 6 212 34 c 1
 224 102 l 1
 229 96 260 52 317 52 c 0
 364 52 375 93 375 120 c 0xfa
 375 133 372 170 339 186 c 0
 314 198 286 191 254 220 c 0
 223 249 212 290 212 331 c 0
 212 399 240 452 303 460 c 0
 318.996 462.031 330 459 338 482 c 0
 345 505 346 535 346 564 c 0xfc
 346 625 329 672 253 672 c 0
 154 672 156 593 156 561 c 2
 156 0 l 1
 81 0 l 1
EndSplineSet
EndChar
StartChar: Grave
Encoding: 63182 63182 261
Width: 500
Flags: HW
TeX: 601 0 32767 32767
VStem: 65 268<510 601>
Fore
65 601 m 1
 163 601 l 2
 187 601 240 564 333 510 c 1
 256 510 l 2
 240 510 241 513 65 601 c 1
EndSplineSet
EndChar
StartChar: Acute
Encoding: 63177 63177 262
Width: 500
Flags: HW
TeX: 601 0 32767 32767
VStem: 165 268<510 600>
Fore
165 510 m 1
 322 601 315 601 335 601 c 2
 403 601 l 1
 433 600 l 1
 275 521 l 1
 253 511 l 1
 238 510 l 1
 165 510 l 1
EndSplineSet
EndChar
StartChar: Tilde
Encoding: 61429 61429 263
Width: 500
Flags: HW
TeX: 631 0 32767 32767
HStem: 477 162<104.6 144 231.6 261.9 355 395.4> 477 62<279.8 335.456> 576 62<166.404 261.9>
VStem: 83 61<477 586.2> 355 61<542.8 639>
Fore
83 477 m 1
 84 576 122 638 180 638 c 0x78
 243 638 255 546 311 539 c 0x78
 322 538 326 541 330 542 c 1
 337 547 l 1
 347 559 355 565 355 639 c 1
 416 639 l 1x98
 415 541 378 477 320 477 c 0
 252 477 245 576 183 576 c 0x78
 179 576 175 575 170 574 c 1
 157 566 144 561 144 477 c 1x98
 83 477 l 1
EndSplineSet
EndChar
StartChar: Ring
Encoding: 61427 61427 266
Width: 687
Flags: HW
TeX: 631 0 32767 32767
HStem: 416 61<286.1 400.5> 578 61<285.5 399.9>
VStem: 232 56<498.1 557.9> 398 56<497.1 556.9>
Fore
232 528 m 0
 232 594 286 639 343 639 c 0
 407 639 454 587 454 527 c 0
 454 470 409 416 343 416 c 0
 280 416 232 468 232 528 c 0
288 528 m 0
 288 505 299 477 342 477 c 0
 387 477 398 504 398 527 c 0
 398 550 387 578 344 578 c 0
 299 578 288 551 288 528 c 0
EndSplineSet
EndChar
StartChar: twelveudash
Encoding: 61700 61700 267
Width: 667
Flags: W
TeX: 444 0 32767 32767
HStem: 244 61<0 666>
Fore
0 244 m 1
 0 305 l 1
 666 305 l 1
 666 244 l 1
 0 244 l 1
EndSplineSet
Position: 0 1 'ITLC' dx=0 dy=0 dh=27 dv=0
EndChar
StartChar: threequartersemdash
Encoding: 63198 63198 268
Width: 750
Flags: W
TeX: 444 0 32767 32767
HStem: 244 61<0 750>
Fore
0 244 m 1
 0 305 l 1
 750 305 l 1
 750 244 l 1
 0 244 l 1
EndSplineSet
Position: 0 1 'ITLC' dx=0 dy=0 dh=27 dv=0
EndChar
StartChar: arrowleft
Encoding: 8592 8592 269
Width: 1000
Flags: HW
TeX: 369 -129 32767 32767
HStem: -10 21G<257 297> 230 40<159 936.93>
Fore
55 250 m 1
 161 298 238 396 257 510 c 1
 297 510 l 1
 288 452 258 355 159 270 c 1
 910 270 l 2
 936 270 944 261 942 247 c 0
 938 233 930 230 914 230 c 2
 159 230 l 1
 221 179 281 92 297 -10 c 1
 257 -10 l 1
 238 104 161 202 55 250 c 1
EndSplineSet
EndChar
StartChar: arrowright
Encoding: 8594 8594 270
Width: 1000
Flags: W
TeX: 369 -129 32767 32767
HStem: -10 21G<701 741> 230 40<62.3322 840>
Fore
56 249 m 0
 56 266 70 270 84 270 c 2
 840 270 l 1
 777 320 717 408 701 510 c 1
 741 510 l 1
 760 396 837 298 943 250 c 1
 837 202 760 104 741 -10 c 1
 701 -10 l 1
 710 48 740 145 840 230 c 1
 90 230 l 2
 75 230 56 230 56 249 c 0
EndSplineSet
EndChar
StartChar: uni0361.alt
Encoding: 61701 61701 271
Width: 239
Flags: HW
TeX: 722 0 32767 32767
HStem: 627 64<245.821 353.312>
VStem: 80 439<568 579.7 568 568>
Fore
80 568 m 1
 85 644 185 691 299 691 c 0
 421 691 496 641 514 594 c 0
 517 585 518 577 519 568 c 1
 440 568 l 1
 431 619 336 627 299 627 c 0
 264 627 167 619 158 568 c 1
 80 568 l 1
EndSplineSet
Position: 0 1 'ITLC' dx=0 dy=0 dh=288 dv=0
EndChar
StartChar: uni0361
Encoding: 865 865 272
Width: 0
Flags: HW
TeX: 971 0 32767 32767
HStem: 575 64<-47.6 130.5>
VStem: -215 78<477 558.313> 201 78<477 520.55>
Fore
-215 477 m 1
 -212 571 -104 639 31 639 c 0
 144 639 275 586 279 477 c 1
 201 477 l 1
 195 544 108 575 33 575 c 0
 -29 575 -131 552 -137 477 c 1
 -215 477 l 1
EndSplineSet
Position: 0 1 'ITLC' dx=0 dy=0 dh=316 dv=0
EndChar
StartChar: uni2040.alt
Encoding: 61702 61702 273
Width: 461
Flags: HW
TeX: 722 0 32767 32767
HStem: 627 64<177 279.7>
VStem: 320 79<558.661 622.986>
Fore
60 568 m 1
 64 652 154 691 229 691 c 0
 303 691 394 653 399 568 c 1
 320 568 l 1
 315 610 268 627 229 627 c 0
 189 627 144 610 138 568 c 1
 60 568 l 1
EndSplineSet
Position: 0 1 'ITLC' dx=0 dy=0 dh=288 dv=0
EndChar
StartChar: uni2040
Encoding: 8256 8256 274
Width: 461
Flags: HW
TeX: 722 0 32767 32767
HStem: 575 64<149.7 309.6>
VStem: 5 78<477 551.976> 376 79<477 531.6>
Fore
5 477 m 1
 9 592 138 639 230 639 c 0
 322 639 450 592 455 477 c 1
 376 477 l 1
 371 547 291 575 229 575 c 0
 168 575 89 546 83 477 c 1
 5 477 l 1
EndSplineSet
Position: 0 1 'ITLC' dx=0 dy=0 dh=316 dv=0
EndChar
StartChar: uni2422
Encoding: 9250 9250 275
Width: 517
Flags: HW
TeX: 722 0 32767 32767
HStem: -11 61<220.3 333.4> 394 61<266 336.2> 702 20G<81 157>
VStem: 81 78<0 46 107 368.1 397 454 599 722> 402 78<53.7 380>
Fore
-20 448 m 1
 81 534 l 1
 81 722 l 1
 157 722 l 1
 157 599 l 1
 285 707 l 1
 325 660 l 1
 157 518 l 1
 157 397 l 1
 221 448 285 455 316 455 c 0
 415 455 480 344 480 224 c 0
 480 93 399 -11 294 -11 c 0
 234 -11 193 16 160 46 c 1
 160 0 l 1
 81 0 l 1
 81 454 l 1
 20 401 l 1
 -20 448 l 1
159 320 m 0
 159 316 160 312 160 308 c 2
 160 133 l 2
 160 107 164 108 176 90 c 0
 199 61 229 50 258 50 c 0
 316 50 402 92 402 223 c 0
 402 356 320 394 266 394 c 0
 215 394 159 357 159 320 c 0
EndSplineSet
EndChar
StartChar: quotesingle
Encoding: 39 39 276
Width: 278
Flags: HW
TeX: 722 0 32767 32767
HStem: 702 20G<99 177>
VStem: 99 78<593.5 722> 107 62<363 497.625>
Fore
99 722 m 1
 177 722 l 1xc0
 171 465 l 1
 169 363 l 1
 169 362 l 1xa0
 108 362 l 1
 107 363 l 1xa0
 99 722 l 1
EndSplineSet
EndChar
StartChar: fraction
Encoding: 8260 8260 279
Width: 500
Flags: HW
TeX: 749 249 32767 32767
VStem: 56 387<-230 729>
Fore
56 -230 m 0
 56 -224 58 -220 59 -215 c 1
 400 723 l 2
 405 735 409 749 424 749 c 0
 434 749 443 740 443 729 c 0
 443 722 440 716 437 709 c 2
 99 -222 l 2
 96 -231 91 -249 75 -249 c 0
 65 -249 56 -241 56 -230 c 0
EndSplineSet
EndChar
StartChar: zerooldstyle
Encoding: 63280 63280 280
Width: 500
Flags: HW
TeX: 444 0 32767 32767
HStem: -22 61<151.5 388.1> 405 62<92.7 380>
VStem: 41 78<83 307.921> 380 78<166.019 322>
Fore
41 222 m 0
 41 399 129 467 250 467 c 0
 350 467 458 421 458 219 c 0
 458 28 356 -22 249 -22 c 0
 124 -22 41 46 41 222 c 0
119 213 m 2
 119 83 174 39 249 39 c 0
 398 39 376 213 380 215 c 1
 380 241 l 2
 377 322 365 405 249 405 c 0
 109 405 120 266 119 227 c 2
 119 213 l 2
EndSplineSet
EndChar
StartChar: oneoldstyle
Encoding: 63281 63281 281
Width: 500
Flags: HW
TeX: 444 0 32767 32767
HStem: 0 59<95 220 300 425> 341 59<90 174.515> 425 20G<280 300>
VStem: 220 80<59 357>
Fore
90 341 m 1
 90 400 l 1
 152 400 220 404 280 445 c 1
 300 445 l 1
 300 59 l 1
 425 59 l 1
 425 0 l 1
 95 0 l 1
 95 59 l 1
 220 59 l 1
 220 357 l 1
 183 346 148 341 90 341 c 1
EndSplineSet
EndChar
StartChar: twooldstyle
Encoding: 63282 63282 282
Width: 500
Flags: HW
TeX: 444 0 32767 32767
HStem: -0 70<119 449> 402 65<123.2 324.4>
VStem: 366 83<190.2 386.5>
Fore
41 358 m 1
 87 434 149 467 235 467 c 0
 359 467 449 402 449 304 c 0
 449 210 343 192 257 148 c 0
 243.065 140.871 229 133 119 70 c 1
 449 70 l 1
 449 -0 l 1
 44 -0 l 1
 44 65 l 1
 159 134 174 143 189 151 c 0
 259 187 366 216 366 302 c 0
 366 367 301 402 223 402 c 0
 145 402 112 360 93 311 c 1
 41 358 l 1
EndSplineSet
EndChar
StartChar: threeoldstyle
Encoding: 63283 63283 283
Width: 500
Flags: HW
TeX: 444 194 32767 32767
HStem: -217 62<200.405 339.9> 120 61<166 214.75> 408 59<183 320.1>
VStem: 347 82<241.6 389.8> 367 90<-119.4 75.6>
Fore
41 -118 m 1
 52 -57 l 1
 125 -149 217 -155 245 -155 c 0
 318 -155 367 -96 367 -18 c 0xe8
 367 56 324 120 240 120 c 2
 166 120 l 1
 166 181 l 1
 241 187 246 187 269 197 c 0
 308 215 347 259 347 317 c 0
 347 373 303 408 246 408 c 0
 193 408 140 380 108 335 c 0
 102 326 97 317 92 307 c 1
 55 361 l 1
 70 383 81 399 108 420 c 0
 148 450 198 467 248 467 c 0
 351 467 429 399 429 317 c 0xf0
 429 203 319 150 319 150 c 1
 404 124 457 54 457 -18 c 0
 457 -116 375 -217 246 -217 c 0
 183 -217 106 -194 41 -118 c 1
EndSplineSet
EndChar
StartChar: fouroldstyle
Encoding: 63284 63284 284
Width: 500
Flags: HW
TeX: 444 194 32767 32767
HStem: -0 61<107 292 372 471> 425 20G<278 372>
VStem: 292 80<-217 0> 298 74<61 115.6>
Fore
27 -0 m 1
 27 62 l 1
 278 445 l 1
 372 445 l 1
 372 61 l 1xd0
 471 61 l 1
 471 -0 l 1
 372 -0 l 1
 372 -217 l 1
 292 -217 l 1
 292 -0 l 1xe0
 27 -0 l 1
107 61 m 1
 298 61 l 1xd0
 298 407 l 1
 283 334 235 260 107 61 c 1
EndSplineSet
EndChar
StartChar: fiveoldstyle
Encoding: 63285 63285 285
Width: 500
Flags: HW
TeX: 444 194 32767 32767
HStem: -217 62<186.1 296.6> 161 62<217 323.6> 380 65<153 416>
VStem: 80 73<182 380> 360 89<-158.8 155.8>
Fore
50 -120 m 1
 84 -65 l 1
 127 -143 196 -155 229 -155 c 0
 281 -155 360 -121 360 5 c 0
 360 121 308 161 256 161 c 0
 226 161 177 146 147 83 c 1
 80 83 l 1
 80 445 l 1
 416 445 l 1
 416 380 l 1
 153 380 l 1
 153 182 l 1
 160 187 196 223 260 223 c 0
 363 223 449 127 449 4 c 0
 449 -127 343 -217 230 -217 c 0
 145 -217 82 -169 50 -120 c 1
EndSplineSet
EndChar
StartChar: sevenoldstyle
Encoding: 63287 63287 287
Width: 500
Flags: HW
TeX: 444 194 32767 32767
HStem: 375 70<41 389>
VStem: 151 85<-205 62.8>
Fore
41 374 m 1
 41 445 l 1
 457 445 l 1
 457 380 l 1
 311 216 236 1 236 -205 c 1
 151 -205 l 1
 151 54 270 254 389 375 c 1
 339 374 l 1
 41 374 l 1
EndSplineSet
EndChar
StartChar: nineoldstyle
Encoding: 63289 63289 289
Width: 500
Flags: HW
TeX: 444 194 32767 32767
HStem: -217 62<136.1 335> -8 62<203 290.1> 408 59<176.6 358.6>
VStem: 42 82<145.8 300.149> 371 86<101 237.012>
Fore
42 227 m 0
 42 301 61.0947 349.913 107 400 c 0
 149.087 445.92 194 467 252 467 c 0
 334 467 457 412 457 130 c 0
 457 66 446.723 -8.8458 406 -82 c 0
 389.89 -110.939 326 -217 205 -217 c 0
 152 -217 116 -203 72 -172 c 1
 103 -118 l 1
 116 -127 148 -155 205 -155 c 0
 305 -155 362 -53 373 74 c 1
 328 21 270 -8 203 -8 c 0
 152 -8 122 16 96 51 c 0
 55 107 42 161 42 227 c 0
124 229 m 0
 124 165 132 116 174 78 c 0
 193 61 218 54 243 54 c 0
 320 54 371 125 371 205 c 0
 371 213 371 222 370 230 c 1
 372 230 l 1
 367 299 343 408 252 408 c 0
 176 408 139 342 129 295 c 0
 124 273 124 252 124 229 c 0
EndSplineSet
EndChar
StartChar: angleleft
Encoding: 9001 9001 290
Width: 389
Flags: HW
TeX: 749 249 32767 32767
VStem: 111 221<250 730>
Fore
111 250 m 0
 111 255 113 260 114 265 c 1
 288 724 l 2
 294 736 298 749 312 749 c 0
 322 749 332 741 332 730 c 0
 332 725 330 720 328 715 c 2
 157 264 l 2
 153 254 151 251 157 237 c 2
 327 -212 l 2
 328 -216 331 -223 331 -229 c 0
 331 -239 324 -249 312 -249 c 0
 298 -249 293 -236 288 -224 c 2
 114 235 l 2
 112 240 111 245 111 250 c 0
EndSplineSet
EndChar
StartChar: minus
Encoding: 8722 8722 291
Width: 778
Flags: HW
TeX: 577 83 32767 32767
HStem: 220 61<51.8 714>
Fore
56 250 m 0
 56 262 62 281 96 281 c 2
 681 281 l 2
 716 281 721 260 721 250 c 0
 721 238 714 220 684 220 c 2
 93 220 l 2
 58 220 56 243 56 250 c 0
EndSplineSet
EndChar
StartChar: angleright
Encoding: 9002 9002 292
Width: 389
Flags: HW
TeX: 749 249 32767 32767
VStem: 234 43<234.59 266.148>
Fore
56 -230 m 1
 56 -223 59 -216 61 -209 c 2
 230 236 l 2
 232 240 234 245 234 250 c 0
 234 255 232 259 231 263 c 2
 60 713 l 2
 58 718 56 723 56 729 c 2
 56 734 l 1
 64 752 74 748 77 749 c 1
 87 747 83 747 90 742 c 1
 96 733 99 723 103 712 c 2
 273 265 l 2
 275 260 277 255 277 250 c 0
 277 245 275 240 273 235 c 2
 99 -223 l 2
 91 -244 89 -241 87 -245 c 1
 80 -248 l 2
 76 -249 75 -249 75 -249 c 1
 58 -249 56 -230 56 -230 c 1
EndSplineSet
EndChar
StartChar: uni2127
Encoding: 8487 8487 293
Width: 722
Flags: HW
TeX: 694 0 32767 32767
HStem: -22 61<209.2 510.8> 624 70<44 218 503 677>
VStem: 55 89<82.2 420.5> 576 90<82.2 417.9>
Fore
44 623 m 1
 44 694 l 1
 289 694 l 1
 287 524 144 395 144 233 c 0
 144 117 244 39 360 39 c 0
 476 39 576 117 576 233 c 0
 576 395 434 525 432 694 c 1
 677 694 l 1
 677 623 l 1
 634 623 l 1
 613 624 l 1
 503 624 l 1
 543 484 666 375 666 232 c 0
 666 95 534 -22 360 -22 c 0
 200 -22 55 83 55 232 c 0
 55 377 176 479 218 624 c 1
 108 624 l 1
 86 623 l 1
 44 623 l 1
EndSplineSet
EndChar
StartChar: circle
Encoding: 9675 9675 294
Width: 1111
Flags: HW
TeX: 749 249 32767 32767
HStem: -272 40<221.5 879.3> 732 40<227.1 886.2>
VStem: 55 40<-91.9 599.7> 1014 40<-102.3 591.9>
Fore
55 250 m 0
 55 535 276 772 555 772 c 0
 820 772 1054 548 1054 250 c 0
 1054 -28 841 -272 554 -272 c 0
 287 -272 55 -46 55 250 c 0
95 250 m 0
 95 -13 298 -232 553 -232 c 0
 804 -232 1014 -21 1014 250 c 0
 1014 513 810 732 556 732 c 0
 303 732 95 519 95 250 c 0
EndSplineSet
EndChar
StartChar: uni301A
Encoding: 12314 12314 296
Width: 403
Flags: HW
TeX: 749 249 32767 32767
HStem: -250 40<158 243 283 380> 710 40<158 243 283 380>
VStem: 118 40<-210 710> 243 40<-210 710>
Fore
118 -250 m 1
 118 750 l 1
 380 750 l 1
 380 710 l 1
 283 710 l 1
 283 -210 l 1
 380 -210 l 1
 380 -250 l 1
 118 -250 l 1
158 -210 m 1
 243 -210 l 1
 243 710 l 1
 158 710 l 1
 158 -210 l 1
EndSplineSet
EndChar
StartChar: uni301B
Encoding: 12315 12315 297
Width: 403
Flags: HW
TeX: 749 249 32767 32767
HStem: -250 40<22 119 159 244> 710 40<22 119 159 244>
VStem: 119 40<-210 710> 244 40<-210 710>
Fore
22 -210 m 1
 119 -210 l 1
 119 710 l 1
 22 710 l 1
 22 750 l 1
 284 750 l 1
 284 -250 l 1
 22 -250 l 1
 22 -210 l 1
159 -210 m 1
 244 -210 l 1
 244 710 l 1
 159 710 l 1
 159 -210 l 1
EndSplineSet
EndChar
StartChar: arrowup
Encoding: 8593 8593 298
Width: 500
Flags: HW
TeX: 722 222 32767 32767
HStem: 701 20G<249 250>
VStem: 230 40<-217.379 583>
Fore
28 442 m 1
 28 482 l 1
 63 493 84 498 120 522 c 0
 188 566 237 640 249 721 c 1
 250 721 l 1
 266 617 339 528 441 491 c 2
 472 482 l 1
 472 442 l 1
 338 475 285 564 270 583 c 1
 270 -188 l 2
 270 -203 269 -222 250 -222 c 0
 229 -222 230 -200 230 -194 c 2
 230 551 l 1
 229 583 l 1
 185 514 115 464 28 442 c 1
EndSplineSet
EndChar
StartChar: arrowdown
Encoding: 8595 8595 299
Width: 500
Flags: HW
TeX: 722 222 32767 32767
HStem: 702 20G<240.5 258>
VStem: 230 40<-169 -120.9 -83 715.99>
Fore
28 18 m 1
 28 58 l 1
 162 25 211 -60 230 -83 c 1
 230 691 l 2
 230 707 232 722 249 722 c 0
 267 722 270 706 270 694 c 2
 270 -83 l 1
 315 -14 385 36 472 58 c 1
 472 18 l 1
 351 -14 270 -113 270 -169 c 1
 263 -169 l 1
 258 -186 253 -203 250 -221 c 1
 249 -221 l 1
 247 -203 242 -186 237 -169 c 1
 230 -169 l 1
 230 -132 172 -20 28 18 c 1
EndSplineSet
EndChar
StartChar: grave.ts1
Encoding: 61703 61703 300
Width: 500
Flags: W
TeX: 722 0 32767 32767
HStem: 537 185<83 294>
VStem: 83 211<537 722>
Fore
83 722 m 1
 161 722 l 1
 294 537 l 1
 233 537 l 1
 83 722 l 1
EndSplineSet
EndChar
StartChar: uni22C6
Encoding: 8902 8902 301
Width: 500
Flags: HW
TeX: 472 -27 32767 32767
Fore
-2 309 m 1
 218 271 l 1
 250 491 l 1
 251 491 l 1
 283 271 l 1
 474 304 l 1
 503 308 l 1
 303 210 l 1
 407 12 l 1
 251 171 l 1
 250 171 l 1
 95 12 l 1
 198 210 l 1
 -2 309 l 1
EndSplineSet
EndChar
StartChar: uni26AE
Encoding: 9902 9902 302
Width: 500
Flags: HW
TeX: 472 -27 32767 32767
HStem: 28 70<-77.2 35.9 462.8 578.5> 402 70<-77.2 35.9 464.1 578.5>
VStem: -201 70<95 403.1> 89 76<92.7 407> 211 78<-114 614> 336 76<94.6 406> 631 70<96.9 405>
Fore
-201 250 m 0
 -201 370 -122 472 -20 472 c 0
 77 472 165 379 165 250 c 0
 165 129 84 28 -19 28 c 0
 -115 28 -201 122 -201 250 c 0
-131 251 m 0
 -131 131 -64 98 -20 98 c 0
 23 98 89 128 89 251 c 0
 89 371 23 402 -20 402 c 0
 -64 402 -131 368 -131 251 c 0
211 -114 m 1
 211 614 l 1
 289 614 l 1
 289 -114 l 1
 211 -114 l 1
336 250 m 0
 336 370 416 472 519 472 c 0
 615 472 701 378 701 250 c 0
 701 130 622 28 520 28 c 0
 423 28 336 121 336 250 c 0
412 248 m 0
 412 130 476 98 520 98 c 0
 565 98 631 132 631 249 c 0
 631 369 565 402 520 402 c 0
 477 402 412 372 412 248 c 0
EndSplineSet
EndChar
StartChar: uni271D
Encoding: 10013 10013 303
Width: 500
Flags: HW
TeX: 631 27 32767 32767
HStem: 366 66<55 210 289 444>
VStem: 210 79<-28 366 432 625>
Fore
55 364 m 1
 55 434 l 1
 210 432 l 1
 210 625 l 1
 289 625 l 1
 289 432 l 1
 444 434 l 1
 444 364 l 1
 289 366 l 1
 289 -28 l 1
 210 -28 l 1
 210 366 l 1
 55 364 l 1
EndSplineSet
EndChar
StartChar: leaf
Encoding: 61704 61704 304
Width: 1000
Flags: HW
TeX: 722 0 32767 32767
HStem: -47 24<141.6 527.7> 169 24<288 733> 385 24<588 902> 688 20G<537 538> 745 24<682.6 859.4>
VStem: -5.29191 23.2919<26.6452 254.933> 239 24<204 526> 538 24<421 708> 987 24.2549<596.511 698>
Fore
-11 9 m 0
 -11 27 -7 69 -3 98 c 0
 50 468 365 769 775 769 c 0
 848 769 925.936 756.784 989 738 c 0
 1005.98 732.942 1012 731 1012 712 c 0
 1012 691 1007 647 1004 621 c 0
 949 252 632 -47 228 -47 c 0
 141 -47 63 -31 11 -16 c 0
 -5 -11 -11 -9 -11 9 c 0
14 24 m 1
 239 186 l 1
 239 526 l 1
 137 429 41 271 18 76 c 2
 14 24 l 1
28 5 m 1
 94 -14 162 -23 230 -23 c 0
 459 -23 637 81 733 169 c 1
 274 169 l 2
 252.028 169 247 164 243 160 c 1
 85 46 l 2
 66 32 46 19 28 5 c 1
263 204 m 1
 538 403 l 1
 538 708 l 1
 537 708 l 1
 435 672 362 636 263 550 c 1
 263 204 l 1
288 193 m 1
 759 193 l 1
 835 268 881 343 902 385 c 1
 554 385 l 1
 288 193 l 1
562 421 m 1
 973 718 l 1
 907 736 839 745 771 745 c 0
 703 745 627 735 562 715 c 1
 562 421 l 1
588 409 m 1
 914 409 l 1
 969 521 982 623 987 698 c 1
 588 409 l 1
EndSplineSet
EndChar
StartChar: uni26AD
Encoding: 9901 9901 305
Width: 500
Flags: HW
TeX: 472 -27 32767 32767
HStem: 28 70<13.8 167.2 335.49 486.2> 402 70<15.1 164.587 332.5 487.2>
VStem: -90 70<131.7 369.6> 162 75<204.958 295.042> 263 76<203.159 296.81> 520 70<130.4 368.3>
Fore
-90 250 m 0
 -90 362 -5 472 124 472 c 0
 174 472 214 456 250 430 c 1
 279 451 323 472 377 472 c 0
 489 472 590 379 590 250 c 0
 590 137 505 28 377 28 c 0
 325 28 283 47 250 70 c 1
 221 49 177 28 123 28 c 0
 10 28 -90 122 -90 250 c 0
-20 250 m 0
 -20 159 39 98 123 98 c 0
 157 98 180 108 202 120 c 1
 185 148 162 187 162 250 c 0
 162 328 199 373 202 380 c 1
 174 396 153 402 123 402 c 0
 40 402 -20 342 -20 250 c 0
237 250 m 0
 237 226 241 202 250 180 c 1
 260 206 263 224 263 250 c 0
 263 277 260 293 250 320 c 1
 241 298 237 274 237 250 c 0
299 120 m 1
 326 104 347 98 377 98 c 0
 461 98 520 158 520 250 c 0
 520 341 462 402 378 402 c 0
 343 402 320 392 299 380 c 1
 316 350 339 313 339 250 c 0
 339 172 301 127 299 120 c 1
EndSplineSet
EndChar
StartChar: musicalnote
Encoding: 9834 9834 306
Width: 611
Flags: HW
TeX: 722 0 32767 32767
HStem: 701 20G<363 383>
VStem: 346 40<190 515>
Fore
55 108 m 0
 55 183 131 229 220 229 c 0
 295 229 336 198 346 190 c 1
 346 692 l 2
 346 719 360 721 366 721 c 0
 400 721 372.886 680.297 413 559 c 0
 455 432 555 279 555 137 c 0
 555 118 545 110 535 110 c 0
 527 110 519 116 516 125 c 0
 509 147 527 192 458 350 c 2
 412 452 l 1
 386 515 l 1
 386 140 l 2
 386 93 385 77 373 54 c 0
 347 2 287 -31 221 -31 c 0
 135 -31 55 26 55 108 c 0
EndSplineSet
EndChar
StartChar: tildelow
Encoding: 61705 61705 307
Width: 611
Flags: HW
TeX: 126 0 32767 32767
HStem: 0 62<315.8 425.451> 65 62<184.549 295.5>
VStem: 83 61<0 74.8899> 466 61<69.2541 132.425>
Fore
83 0 m 1
 86 81 148 127 210 127 c 0
 279 127 335 62 399 62 c 0
 418 62 461 71 466 127 c 1
 527 127 l 1
 525 54 471 0 401 0 c 0
 330 0 276 65 211 65 c 0
 192 65 149 56 144 0 c 1
 83 0 l 1
EndSplineSet
EndChar
StartChar: breve.ts1
Encoding: 61707 61707 309
Width: 611
Flags: HW
TeX: 722 0 32767 32767
HStem: 526 67<206.2 402.5> 702 20G<80 141 468 530>
VStem: 80 61<638.15 722> 468 62<636.2 722>
Fore
80 722 m 1
 141 722 l 1
 145 636 229 593 305 593 c 0
 380 593 464 634 468 722 c 1
 530 722 l 1
 527 597 415 526 305 526 c 0
 195 526 83 598 80 722 c 1
EndSplineSet
EndChar
StartChar: caron.ts1
Encoding: 61708 61708 310
Width: 611
Flags: HW
TeX: 722 0 32767 32767
HStem: 490 255<336 477>
VStem: 133 344<745 745>
Fore
133 745 m 1
 194 745 l 1
 305 556 l 1
 416 745 l 1
 477 745 l 1
 336 490 l 1
 274 490 l 1
 133 745 l 1
EndSplineSet
EndChar
StartChar: hungarumlaut.ts1
Encoding: 61709 61709 311
Width: 500
Flags: HW
TeX: 722 0 32767 32767
HStem: 537 185<336 416>
VStem: 108 308<537 722>
Fore
108 537 m 1
 172 722 l 1
 250 722 l 1
 169 537 l 1
 108 537 l 1
274 537 m 1
 338 722 l 1
 416 722 l 1
 336 537 l 1
 274 537 l 1
EndSplineSet
EndChar
StartChar: dblgrave.ts1
Encoding: 61710 61710 312
Width: 500
Flags: HW
TeX: 722 0 32767 32767
HStem: 537 185<249 391>
VStem: 83 308<537 722>
Fore
83 722 m 1
 161 722 l 1
 225 537 l 1
 163 537 l 1
 83 722 l 1
249 722 m 1
 328 722 l 1
 391 537 l 1
 330 537 l 1
 249 722 l 1
EndSplineSet
EndChar
StartChar: dagger
Encoding: 8224 8224 313
Width: 444
Flags: HW
TeX: 722 194 32767 32767
HStem: 405 78<54.1 133.898 309.399 390.2>
VStem: 183 78<-217 320.557 617.492 736.1>
Fore
55 444 m 0
 55 458 64 483 97 483 c 0
 133 483 154 475 198 470 c 1
 189 600 183 644 183 687 c 0
 183 727 209 733 222 733 c 0
 237 733 261 725 261 688 c 0
 261 660 246 470 246 470 c 1
 279 473 320 484 346 484 c 0
 380 484 388 458 388 445 c 0
 388 430 380 405 346 405 c 0
 326 405 256 418 246 419 c 1
 252 356 261 297 261 229 c 2
 261 -217 l 1
 183 -217 l 1
 183 239 l 2
 183 269 184 304 197 419 c 1
 164 414 113 405 98 405 c 0
 64 405 55 431 55 444 c 0
EndSplineSet
EndChar
StartChar: daggerdbl
Encoding: 8225 8225 314
Width: 444
Flags: HW
TeX: 722 194 32767 32767
HStem: -10 78<53.8 133.898 309.399 390.2> 459 79<53.8 133.898 309.399 390.2>
VStem: 183 78<-208.1 -100.201 157.533 248.1 260.6 369.375 628.201 736.1>
Fore
55 29 m 0
 55 44 64 68 98 68 c 0
 118 68 187 56 197 55 c 1
 193 124 183 178 183 213 c 0
 183 240 190 263 222 263 c 0
 235 263 261 257 261 218 c 0
 260 161 250 110 246 55 c 1
 279 60 330 68 346 68 c 0
 380 68 388 43 388 29 c 0
 388 15 380 -10 346 -10 c 0
 326 -10 256 3 246 4 c 1
 249 -33 261 -125 261 -161 c 0
 261 -199 233 -205 221 -205 c 0
 207 -205 183 -197 183 -160 c 0
 184 -103 194 -51 197 4 c 1
 164 -1 113 -10 98 -10 c 0
 64 -10 55 15 55 29 c 0
55 499 m 0
 55 512 64 538 98 538 c 0
 118 538 187 525 197 524 c 1
 195 561 183 653 183 689 c 0
 183 727 210 733 222 733 c 0
 237 733 261 725 261 688 c 0
 260 631 250 579 246 524 c 1
 279 529 330 538 346 538 c 0
 380 538 388 513 388 498 c 0
 388 485 380 459 346 459 c 0
 326 459 256 472 246 473 c 1
 249 436 261 345 261 308 c 0
 261 270 233 264 221 264 c 0
 207 264 183 272 183 310 c 0
 184 366 194 418 197 473 c 1
 164 468 113 459 98 459 c 0
 64 459 55 484 55 499 c 0
EndSplineSet
EndChar
StartChar: uni2016
Encoding: 8214 8214 315
Width: 500
Flags: HW
TeX: 749 249 32767 32767
VStem: 175 40<-244.212 737.508> 285 40<-244.923 738.07>
Fore
175 -220 m 2
 175 720 l 2
 175 731 177 749 196 749 c 0
 214 749 215 731 215 720 c 2
 215 -220 l 2
 215 -245 203 -249 195 -249 c 0
 176 -249 175 -231 175 -220 c 2
285 -220 m 2
 285 720 l 2
 285 731 286 749 305 749 c 0
 323 749 325 731 325 720 c 2
 325 -220 l 2
 325 -245 312 -249 304 -249 c 0
 286 -249 285 -231 285 -220 c 2
EndSplineSet
EndChar
StartChar: bullet
Encoding: 8226 8226 317
Width: 500
Flags: HW
TeX: 444 -55 32767 32767
HStem: 424 20G<193 304.5>
Fore
55 250 m 0
 55 353 137 444 249 444 c 0
 360 444 443 354 443 250 c 0
 443 147 361 56 249 56 c 0
 138 56 55 146 55 250 c 0
EndSplineSet
EndChar
StartChar: uni2103
Encoding: 8451 8451 318
Width: 861
Flags: HW
TeX: 694 0 32767 32767
HStem: -22 64<429.8 725.2> 472 41<56.4 160.4> 652 64<441.1 710> 654 40<61.6 159.1>
VStem: 0 40<536.2 636.3> 181 41<529.7 636.3> 288 90<137.4 566.4>
Fore
0 583 m 0
 0 644 50 694 111 694 c 0
 175 694 222 642 222 584 c 0
 222 522 172 472 111 472 c 0
 47 472 0 525 0 583 c 0
40 583 m 0
 40 547 69 513 111 513 c 0
 149 513 181 542 181 583 c 0
 181 624 148 654 111 654 c 0xde
 73 654 40 624 40 583 c 0
288 347 m 0xee
 288 541 420 716 619 716 c 0
 689 716 748 701 799 682 c 1
 785 599 l 1
 730 632 690 652 614 652 c 0
 481 652 378 516 378 348 c 0
 378 186 473 42 617 42 c 0
 719 42 754 70 804 103 c 1
 810 33 l 1
 740 -8 700 -22 616 -22 c 0
 419 -22 288 155 288 347 c 0xee
EndSplineSet
EndChar
StartChar: dollaroldstyle
Encoding: 63268 63268 319
Width: 611
Flags: HW
TeX: 749 27 32767 32767
HStem: -11 65<279 330> 635 20G<220 221> 668 65<279 330>
VStem: 55 73<467.1 632.2> 221 59<-28 -10 62 336 445 655 732 750> 330 59<-28 -10 70 305 415 662 733 750> 481 73<107.4 279>
Fore
44 61 m 1
 56 130 l 1
 109 98 152 75 221 62 c 1
 221 351 l 1
 153 370 55 429 55 536 c 0
 55 611 113 693 221 722 c 1
 221 750 l 1
 279 750 l 1
 279 732 l 1
 330 733 l 1
 330 750 l 1
 389 750 l 1
 389 727 l 1
 450 718 496 697 538 675 c 1
 526 609 l 1
 473 638 440 652 389 662 c 1
 389 400 l 1
 491 369 554 287 554 201 c 0
 554 121 499 36 389 1 c 1
 389 -28 l 1
 330 -28 l 1
 330 -10 l 1
 308 -11 l 1
 279 -10 l 1
 279 -28 l 1
 221 -28 l 1
 221 -4 l 1
 216 0 150 -1 44 61 c 1
128 549 m 0
 128 486 190 457 221 445 c 1
 221 655 l 1
 220 655 l 1
 194 643 128 613 128 549 c 0
279 55 m 1
 287 54 295 54 302 54 c 0
 311 54 321 54 330 55 c 1
 330 323 l 1
 280 336 l 1
 279 297 l 1
 279 55 l 1
279 428 m 1
 330 415 l 1
 330 668 l 1
 301 669 l 1
 279 668 l 1
 279 428 l 1
389 70 m 1
 429 86 481 126 481 188 c 0
 481 258 418 292 389 305 c 1
 389 70 l 1
EndSplineSet
EndChar
StartChar: centoldstyle
Encoding: 63394 63394 320
Width: 500
Flags: HW
TeX: 534 97 32767 32767
HStem: -11 64<239.732 366> 397 64<136.7 316>
VStem: 35 78<175.205 338.4>
Fore
35 222 m 0
 35 336 122 461 283 461 c 0
 289 461 319 461 343 458 c 1
 396 556 l 1
 397 556 l 1
 450 527 l 1
 405 443 l 1
 426 436 446 427 465 417 c 1
 454 351 l 1
 428 364 402 378 374 386 c 1
 201 71 l 1
 237 55 262 53 274 53 c 2
 280 53 l 2
 366 53 418 80 465 107 c 1
 471 40 l 1
 411 7 355 -11 280 -11 c 0
 258 -11 220 -10 170 13 c 1
 101 -112 l 1
 47 -83 l 1
 118 47 l 1
 37 116 35 201 35 222 c 0
113 224 m 0
 113 155 145 118 153 110 c 1
 309 396 l 1
 300 396 290 397 281 397 c 0
 170 397 113 312 113 224 c 0
EndSplineSet
EndChar
StartChar: colonmonetary
Encoding: 8353 8353 321
Width: 639
Flags: HW
TeX: 749 27 32767 32767
VStem: 66 90<165 574.5> 359 58<-28 -22 45 649 716 750>
Fore
66 347 m 0
 66 538 195 699 359 715 c 1
 359 750 l 1
 417 750 l 1
 417 716 l 1
 478 712 514 705 577 682 c 1
 562 599 l 1
 508 632 478 646 417 651 c 1
 417 43 l 1
 489 49 504 53 582 103 c 1
 588 33 l 1
 520 -7 486 -19 417 -22 c 1
 417 -28 l 1
 359 -28 l 1
 359 -21 l 1
 358 -20 l 1
 205 -5 66 144 66 347 c 0
156 347 m 0
 156 207 232 65 359 45 c 1
 359 649 l 1
 260 633 156 522 156 347 c 0
EndSplineSet
EndChar
StartChar: uni20A9
Encoding: 8361 8361 322
Width: 944
Flags: HW
TeX: 694 0 32767 32767
HStem: -0 21G<219 299 640 727> 158 62<-1.59295 154 252 286 364 576 670 706 791 948.9> 358 62<-18.6 95 199 339 420 519 615 761 850 954> 674 20G<15 101 436 517 858 930>
Fore
-15 188 m 0
 -15 218 11 220 25 220 c 2
 154 220 l 1
 114 358 l 1
 22 358 l 2
 -12 359 -15 380 -15 389 c 0
 -15 401 -9 420 23 420 c 2
 95 420 l 1
 15 694 l 1
 101 694 l 1
 181 420 l 1
 357 420 l 1
 436 694 l 1
 517 694 l 1
 597 420 l 1
 778 420 l 1
 858 694 l 1
 930 694 l 1
 850 420 l 1
 922 420 l 2
 956 420 961 398 961 389 c 0
 961 377 954 359 924 358 c 2
 832 358 l 1
 791 220 l 1
 919 220 l 2
 942 220 961 213 961 188 c 0
 961 177 954 158 924 158 c 2
 773 158 l 1
 727 -0 l 1
 640 -0 l 1
 594 158 l 1
 345 158 l 1
 299 -0 l 1
 219 -0 l 1
 172 158 l 1
 22 158 l 2
 -10 158 -15 178 -15 188 c 0
199 358 m 1
 236 220 l 1
 302 220 l 1
 339 358 l 1
 199 358 l 1
252 158 m 1
 261 118 l 1
 269 70 l 1
 272 100 280 129 286 158 c 1
 252 158 l 1
364 220 m 1
 576 220 l 1
 537 358 l 1
 403 358 l 1
 364 220 l 1
420 420 m 1
 519 420 l 1
 503 481 474 583 470 624 c 1
 461 563 442 507 420 420 c 1
615 358 m 1
 653 220 l 1
 723 220 l 1
 761 358 l 1
 615 358 l 1
670 158 m 1
 679 116 l 1
 688 70 l 1
 691 101 700 130 706 158 c 1
 670 158 l 1
EndSplineSet
Position: 0 1 'ITLC' dx=0 dy=0 dh=13 dv=0
EndChar
StartChar: uni20A6
Encoding: 8358 8358 323
Width: 736
Flags: HW
TeX: 694 0 32767 32767
HStem: -0 21G<110 188 501 626> 158 62<-16.7188 110 188 390 506 549 626 760.427> 358 62<-16.7188 110 188 289 406 549 626 760.427> 674 20G<110 235 549 626>
VStem: 110 78<0 158 220 358 420 624> 549 77<70 158 220 358 420 694>
Fore
-44 189 m 0
 -44 203 -32 217 -17 219 c 0
 -11 220 -5 220 1 220 c 2
 110 220 l 1
 110 358 l 1
 -6 358 l 2
 -41 358 -44 381 -44 389 c 0
 -44 403 -32 417 -17 419 c 0
 -11 420 -5 420 1 420 c 2
 110 420 l 1
 110 694 l 1
 235 694 l 1
 374 420 l 1
 549 420 l 1
 549 694 l 1
 626 694 l 1
 626 420 l 1
 735 420 l 1
 752 419 l 2
 768 417 780 404 780 389 c 0
 780 360 752 358 740 358 c 2
 626 358 l 1
 626 220 l 1
 735 220 l 1
 752 219 l 2
 768 217 780 204 780 189 c 0
 780 160 752 158 740 158 c 2
 626 158 l 1
 626 -0 l 1
 501 -0 l 1
 421 158 l 1
 188 158 l 1
 188 -0 l 1
 110 -0 l 1
 110 158 l 1
 -6 158 l 2
 -41 158 -44 181 -44 189 c 0
188 220 m 1
 390 220 l 1
 320 358 l 1
 188 358 l 1
 188 220 l 1
188 420 m 1
 289 420 l 1
 188 624 l 1
 188 420 l 1
406 358 m 1
 475 220 l 1
 549 220 l 1
 549 358 l 1
 406 358 l 1
506 158 m 1
 549 70 l 1
 549 158 l 1
 506 158 l 1
EndSplineSet
EndChar
StartChar: uni20B2
Encoding: 8370 8370 324
Width: 778
Flags: HW
TeX: 749 27 32767 32767
HStem: -21 21G<414 415> 237 62<474 632>
VStem: 66 90<141.6 566.7> 415 59<-28 -22 44 237 299 650 716 750> 632 78<69 237>
Fore
66 347 m 0
 66 552 236 705 415 715 c 1
 415 750 l 1
 473 750 l 1
 473 716 l 1
 565 713 626 697 702 668 c 1
 687 585 l 1
 567 650 547 642 473 651 c 1
 473 299 l 1
 710 299 l 1
 710 26 l 1
 587 -19 509 -18 473 -22 c 1
 473 -28 l 1
 415 -28 l 1
 415 -21 l 1
 414 -21 l 2
 238 -11 66 138 66 347 c 0
156 347 m 0
 156 189 271 57 415 44 c 1
 415 650 l 1
 281 638 156 516 156 347 c 0
473 43 m 1
 537 47 570 52 632 69 c 1
 632 237 l 1
 474 237 l 1
 473 208 l 1
 473 43 l 1
EndSplineSet
EndChar
StartChar: peso
Encoding: 61711 61711 325
Width: 653
Flags: HW
TeX: 694 0 32767 32767
HStem: -0 21G<110 199> 158 62<-16.7188 110 199 420> 289 58<199 523.7> 638 56<197 414.9>
VStem: 110 87<0 158 220 289 347 638> 516 81<417.6 567.1>
Fore
-44 189 m 0
 -44 203 -32 217 -17 219 c 0
 -11 220 -5 220 1 220 c 2
 110 220 l 1
 110 694 l 1
 346 694 l 2
 399 694 448 688 499 656 c 0
 560 619 597 558 597 493 c 0
 597 413 533 288 349 288 c 0
 338 288 327 289 317 289 c 2
 199 289 l 1
 199 220 l 1
 387 220 l 2
 420 220 427 201 427 189 c 0
 427 177 420 158 389 158 c 2
 199 158 l 1
 199 -0 l 1
 110 -0 l 1
 110 158 l 1
 -5 158 l 2
 -40 158 -44 180 -44 189 c 0
196 347 m 1
 330 347 l 2
 479 347 516 435 516 493 c 0
 516 550 480 638 329 638 c 2
 197 638 l 1
 196 599 l 1
 196 347 l 1
EndSplineSet
EndChar
StartChar: lira
Encoding: 8356 8356 326
Width: 639
Flags: HW
TeX: 722 0 32767 32767
HStem: -11 62<130.121 177.172 405.9 520.3> 83 62<125.8 190.992> 158 62<143 237 316 424.578> 314 61<143 238 316 424.578> 702 61<377 461.5>
VStem: 238 78<220 314 375 585.724> 504 78<541 621.8> 532 78<39.7 145>
Fore
55 58 m 0
 55 110 113 145 183 145 c 0
 203 145 219 142 234 138 c 1
 237 158 l 1
 174 158 l 2
 143 158 136 176 136 188 c 0
 136 200 143 220 175 220 c 2
 238 220 l 1
 238 314 l 1
 174 314 l 2
 143 314 136 332 136 344 c 0
 136 356 143 376 175 376 c 0
 178 376 181 375 184 375 c 2
 238 375 l 1
 238 528 l 2
 238 702 344 763 415 763 c 0
 549 763 582 605 582 549 c 0
 582 511 557 507 547 507 c 0
 514 507 512 541 512 541 c 1
 504 541 l 1xfe
 503 675 451 702 416 702 c 0
 386 702 358 684 340 653 c 0
 320 617 316 580 316 532 c 2
 316 375 l 1
 407 375 l 2
 441 375 446 355 446 345 c 0
 446 330 436 320 425 316 c 0
 416 313 407 314 398 314 c 2
 316 314 l 1
 316 220 l 1
 407 220 l 2
 442 220 446 198 446 189 c 0
 446 171 433 163 425 160 c 0
 416 157 407 158 398 158 c 2
 315 158 l 1
 313 142 309 127 305 112 c 1
 322 105 423 50 480 50 c 0
 511 50 532 64 532 145 c 1
 610 145 l 1xfd
 607 48 532 -11 453 -11 c 0
 402 -11 367 5 269 51 c 1
 218 -8 156 -11 140 -11 c 0
 94 -11 55 17 55 58 c 0
130 61 m 0
 130 54 136 51 144 51 c 0
 175 51 202 76 202 76 c 1
 182 81 167 83 157 83 c 0xfc
 133 83 130 68 130 61 c 0
EndSplineSet
EndChar
StartChar: uni211E
Encoding: 8478 8478 327
Width: 646
Flags: HW
TeX: 694 0 32767 32767
HStem: 0 21G<95 182 527 617> 316 62<182 340> 638 56<182 515.9>
VStem: 95 87<0 316 378 638> 508 81<447.2 575.9>
Fore
95 0 m 1
 95 694 l 1
 321 694 l 2
 523 694 589 579 589 508 c 0
 589 437 536 360 418 326 c 1
 461 256 l 1
 591 367 l 1
 630 320 l 1
 493 203 l 1
 617 0 l 1
 527 0 l 1
 436 154 l 1
 435 154 l 1
 314 51 l 1
 275 98 l 1
 404 208 l 1
 340 316 l 1
 182 316 l 1
 182 0 l 1
 95 0 l 1
182 378 m 1
 296 378 l 2
 331 378 369.963 376.107 413 391 c 0
 479.943 414.166 508 461 508 507 c 0
 508 560 470 638 317 638 c 2
 182 638 l 1
 182 378 l 1
EndSplineSet
EndChar
StartChar: uni203D
Encoding: 8253 8253 328
Width: 472
Flags: HW
TeX: 722 0 32767 32767
HStem: 0 84<194 278> 702 20G<194 277>
VStem: 188 81<175 278> 194 84<0 84> 195 81<426 595 660 722> 338 78<458.2 564.1>
Fore
55 612 m 1
 92 635 138 655 195 660 c 1xcc
 194 722 l 1xd4
 277 722 l 1
 276 657 l 1
 403 636 416 553 416 516 c 0
 416 437 359 406 339 388 c 0
 262.149 318.834 270 278 270 278 c 1
 269 175 l 1
 188 175 l 1
 188 201 l 2xe4
 188 280 199 288 200 310 c 2
 195 598 l 1
 166 593 136 591 78 549 c 1
 55 612 l 1
273 426 m 1
 310 458 338 472 338 518 c 0xcc
 338 580 289 591 276 595 c 1
 275 568 l 1
 273 426 l 1
EndSplineSet
Refer: 51 46 S 1 0 0 1 98 0 2
EndChar
StartChar: uni2E18
Encoding: 11800 11800 329
Width: 472
Flags: HW
TeX: 534 194 32767 32767
HStem: -195 21G<194 277> 444 84<194 278>
VStem: 55 78<-48.8 78.9> 188 81<263.116 353> 194 84<444 528> 195 80<-195 -132 -67 74>
Fore
55 11 m 0
 55 91 98.1655 114.848 122 141 c 0
 194 220 186 302 188 317 c 2
 188 353 l 1
 269 353 l 1xf0
 275 -67 l 1xe4
 324 -57 350 -47 393 -21 c 1
 416 -85 l 1
 369 -109 328 -122 276 -130 c 1
 277 -195 l 1
 194 -195 l 1xe8
 195 -132 l 1
 74 -121 55 -35 55 11 c 0
133 10 m 0xe4
 133 -54 169 -65 195 -70 c 1
 199 122 l 1
 157 67 133 63 133 10 c 0xe4
EndSplineSet
Refer: 51 46 S 1 0 0 1 98 444 2
EndChar
StartChar: dong
Encoding: 8363 8363 330
Width: 517
Flags: HW
TeX: 749 0 32767 32767
HStem: -40 40<65.9205 553.3> 17 61<177.8 292.8> 422 61<200 274.3> 579 59<167 358 434 535>
VStem: 35 78<83.9 420.3> 355 79<28 80 117.8 370.674> 358 76<429 579 638 750>
Fore
35 249 m 0
 35 381 113 483 213 483 c 0
 275 483 323 457 358 429 c 1
 358 579 l 1
 167 579 l 1
 167 638 l 1
 358 638 l 1
 358 750 l 1
 434 750 l 1
 434 638 l 1
 535 638 l 1
 535 579 l 1
 434 579 l 1xfa
 434 28 l 1
 355 28 l 1
 355 80 l 1
 321 47 273 17 207 17 c 0
 109 17 35 122 35 249 c 0
55 -18 m 1
 60 -1 71 0 83 0 c 2
 526 0 l 2
 549 0 553 -12 553 -20 c 0
 553 -31 547 -40 526 -40 c 2
 82 -40 l 2
 53 -40 56 -21 55 -18 c 1
113 250 m 0
 113 118 194 78 248 78 c 0xfc
 307 78 355 128 355 162 c 2
 355 353 l 2
 355 368 353 375 334 392 c 0
 304 421 271 422 260 422 c 2
 258 422 l 2
 200 422 113 381 113 250 c 0
EndSplineSet
EndChar
StartChar: trademark
Encoding: 8482 8482 331
Width: 667
Flags: HW
TeX: 749 0 32767 32767
HStem: 689 61<17.3113 127 205 309.163>
VStem: 127 78<374.019 689> 350 78<392 560> 571 79<368.6 560>
Fore
1 716 m 1
 1 723 l 1
 7 749 34 750 44 750 c 2
 283 750 l 2
 296 750 309 750 320 741 c 0
 329 735 332 727 332 720 c 0
 332 708 324 688 287 688 c 0
 282 688 277 689 272 689 c 2
 205 689 l 1
 205 391 l 2
 205 361 184 353 166 353 c 0
 125 353 127 387 127 397 c 2
 127 689 l 1
 46 689 l 2
 0 689 3 715 1 716 c 1
350 392 m 1
 350 733 l 2
 351 751 356 772 389 772 c 0
 401 772 409 768 420 761 c 1
 426 751 l 1
 499 587 l 1
 500 587 l 1
 574 751 l 1
 580 761 l 1
 590 768 597 772 610 772 c 0
 653 772 649 734 650 733 c 1
 650 392 l 2
 648 374 643 353 610 353 c 0
 598 353 590 357 580 364 c 1
 573 375 571 377 571 397 c 2
 571 560 l 1
 537 484 534 463 500 463 c 0
 466 463 463 482 428 560 c 1
 428 398 l 2
 428 378 427 375 420 364 c 1
 409 357 401 353 389 353 c 0
 346 353 350 392 350 392 c 1
EndSplineSet
Position: 0 1 'ITLC' dx=0 dy=0 dh=524 dv=0
EndChar
StartChar: uni2031
Encoding: 8241 8241 332
Width: 1538
Flags: HW
TeX: 749 27 32767 32767
HStem: 300 61<605.2 683.2 957.2 1035.2 1309.2 1388.5> 689 61<161.2 239.2>
VStem: 55 75<402.6 693.8> 263 70<454.6 662.6> 499 75<13.6 303.5> 707 70<65.6 273.6> 851 75<12.3 306.1> 1060 69<65.6 273.6> 1204 75<13.6 304.8> 1412 69<100.4 272>
Fore
851 167 m 0
 851 274 914 361 991 361 c 0
 1056 361 1129 291 1129 166 c 0
 1129 59 1068 -28 991 -28 c 0
 923 -28 851 48 851 167 c 0
926 167 m 0
 926 27.8004 989.216 35.1551 995 34 c 1
 1029 38 1060 89 1060 167 c 0
 1060 249 1025 300 991 300 c 0
 965 300 926 274 926 167 c 0
1204 167 m 0
 1204 274 1267 361 1344 361 c 0
 1408 361 1481 291 1481 166 c 0
 1481 58 1419 -28 1344 -28 c 0
 1274 -28 1204 49 1204 167 c 0
1279 167 m 0
 1279 39 1332 36 1337 35 c 2
 1347 34 l 1
 1393 39 1412 116 1412 168 c 0
 1412 248 1378 300 1343 300 c 0
 1317 300 1279 273 1279 167 c 0
EndSplineSet
Refer: 42 37 S 1 0 0 1 0 0 2
EndChar
StartChar: uni2029
Encoding: 8233 8233 333
Width: 472
Flags: W
TeX: 722 194 32767 32767
HStem: -194 21G<329.5 350> 682 40<360 436.006>
VStem: 320 40<-187.807 244>
Fore
55 485 m 0
 55 568 93 722 245 722 c 2
 413 722 l 2
 425 722 443 721 443 702 c 1
 440 683 427 683 418 682 c 2
 360 682 l 1
 360 -159 l 2
 360 -174 359 -194 341 -194 c 0
 318 -194 321 -168 320 -165 c 1
 320 244 l 1
 176 256 55 343 55 485 c 0
EndSplineSet
EndChar
StartChar: uni0E3F
Encoding: 3647 3647 334
Width: 667
Flags: HW
TeX: 749 27 32767 32767
HStem: -0 56<180 274 332 389.846> 330 62<181 274> 638 56<181 274>
VStem: 96 84<56 330 392 638> 274 59<-28 0 56 330 393 637 694 750> 503 79<486.5 616.5> 528 82<96.7 246.2>
Fore
96 0 m 1
 96 694 l 1
 274 694 l 1
 274 750 l 1
 332 750 l 1
 332 694 l 1
 482 693 582 609 582 521 c 0xfc
 582 458 531 394 414 363 c 1
 522 346 610 277 610 188 c 0xfa
 610 110 538 22 408 3 c 0
 385 0 363 -0 340 -0 c 2
 332 -0 l 1
 332 -28 l 1
 274 -28 l 1
 274 0 l 1
 96 0 l 1
180 56 m 1
 274 56 l 1
 274 330 l 1
 181 330 l 1
 180 293 l 1
 180 56 l 1
180 392 m 1
 274 392 l 1
 274 638 l 1
 181 638 l 1
 180 603 l 1
 180 392 l 1
332 56 m 1
 449 57 528 118 528 189 c 0xfa
 528 233 484 321 333 330 c 1
 332 292 l 1
 332 56 l 1
332 393 m 1
 482 409 503 494 503 519 c 0xfc
 503 594 408 629 333 637 c 1
 332 602 l 1
 332 393 l 1
EndSplineSet
EndChar
StartChar: uni2116
Encoding: 8470 8470 335
Width: 819
Flags: HW
TeX: 694 0 32767 32767
HStem: -0 21G<95 173 333 458> 160 59<537 738> 267 65<611 674> 482 62<617.2 657.5> 674 20G<95 220 380 458>
VStem: 95 78<0 600.433> 380 78<70 694> 537 63<330.8 490.7> 675 63<355.877 490.6>
Fore
95 -0 m 1
 95 694 l 1
 220 694 l 1
 381 130 371 133 380 70 c 1
 380 694 l 1
 458 694 l 1
 458 -0 l 1
 333 -0 l 1
 224 391 l 2
 175 575 176 601 173 624 c 1
 173 -0 l 1
 95 -0 l 1
537 160 m 1
 537 219 l 1
 738 219 l 1
 738 160 l 1
 537 160 l 1
537 401 m 0
 537 477 581 544 637 544 c 0
 692 544 738 482 738 401 c 0
 738 324 691 267 637 267 c 0
 590 267 537 316 537 401 c 0
600 401 m 0
 600 347 617 332 637 332 c 2
 640 332 l 2
 674 335 675 379 675 397 c 0
 675 469 653 482 638 482 c 0
 622 482 600 470 600 401 c 0
EndSplineSet
EndChar
StartChar: uni2052
Encoding: 8274 8274 336
Width: 500
Flags: HW
TeX: 749 0 32767 32767
HStem: 0 124<309 428.8> 626 124<85 193.868>
VStem: 75 124<639.363 746.7> 300 124<12.7245 118.134>
Fore
56 20 m 0
 56 26 58 31 61 36 c 2
 398 723 l 2
 401 729 408 749 423 749 c 0
 433 749 443 740 443 730 c 0
 443 719 437 714 433 703 c 2
 99 23 l 2
 96 18 89 1 75 1 c 0
 65 1 56 10 56 20 c 0
75 655 m 2
 75 722 l 2
 75 741 84 750 102 750 c 2
 167 750 l 2
 184 750 199 749 199 722 c 2
 199 657 l 2
 199 642 196 626 170 626 c 2
 105 626 l 2
 85 626 75 632 75 655 c 2
300 31 m 2
 300 96 l 2
 300 114 309 124 327 124 c 2
 392 124 l 2
 422 124 424 112 424 94 c 2
 424 30 l 2
 424 15 421 0 395 0 c 2
 330 0 l 2
 301 0 300 14 300 31 c 2
EndSplineSet
EndChar
StartChar: estimated
Encoding: 8494 8494 337
Width: 669
Flags: HW
TeX: 694 0 32767 32767
HStem: -11 61<185.6 505.1> 361 56<118 561> 649 61<202.4 501.1>
VStem: 27 85<125.2 361>
Fore
27 351 m 0
 27 539 161 710 349 710 c 0
 466 710 640 651 640 361 c 1
 112 361 l 1
 112 354 l 2
 112 178 227 50 365 50 c 0
 493 50 586 89 629 106 c 1
 635 40 l 1
 565 14 473 -11 366 -11 c 0
 163 -11 27 163 27 351 c 0
118 417 m 1
 561 417 l 1
 548 553 476 649 348 649 c 0
 236 649 139 547 118 417 c 1
EndSplineSet
EndChar
StartChar: openbullet
Encoding: 9702 9702 338
Width: 500
Flags: HW
TeX: 444 -55 32767 32767
HStem: 56 40<129.4 366> 404 40<133.3 368.6>
VStem: 55 40<147.3 355.3> 403 40<144.7 352.7>
Fore
55 250 m 0
 55 353 137 444 249 444 c 0
 360 444 443 354 443 250 c 0
 443 147 361 56 249 56 c 0
 138 56 55 146 55 250 c 0
95 250 m 0
 95 171 157 96 249 96 c 0
 339 96 403 169 403 250 c 0
 403 329 341 404 249 404 c 0
 160 404 95 331 95 250 c 0
EndSplineSet
EndChar
StartChar: uni2120
Encoding: 8480 8480 339
Width: 667
Flags: HW
TeX: 749 0 32767 32767
HStem: 375 61<39.5242 262.5> 550 62<81.2 249.7> 689 61<95.2 290.81>
VStem: 16 78<608 686> 246 78<432.9 551.2> 349 78<392 560> 571 78<368.6 560>
Fore
16 649 m 0
 16 730 58 750 138 750 c 2
 266 750 l 2
 285 750 305.94 746.974 314 728 c 0
 319.955 713.981 311 707 310 704 c 1
 302 696 296 689 274 689 c 2
 129 689 l 2
 103 688 95 686 94 655 c 2
 94 647 l 2
 96 617 95 612 141 612 c 2
 194 612 l 2
 257 612 275 601 299 582 c 1
 320 555 324 538 324 494 c 0
 324 447 321 432 299 405 c 1
 276 386 257 375 194 375 c 2
 63 375 l 2
 29 375 16 389 17 408 c 1
 23 434 46 436 65 436 c 2
 191 436 l 2
 246 436 246 442 246 501 c 0
 246 549 235 551 186 551 c 0
 171 551 156 550 142 550 c 0
 66 550 16 565 16 649 c 0
349 392 m 1
 349 733 l 2
 351 751 355 772 388 772 c 0
 401 772 408 768 419 761 c 1
 425 751 l 1
 499 587 l 1
 500 587 l 1
 573 751 l 1
 579 761 l 1
 590 768 597 772 610 772 c 0
 652 772 648 734 649 733 c 1
 649 392 l 2
 647 374 643 353 610 353 c 0
 598 353 590 357 579 364 c 1
 572 375 571 377 571 397 c 2
 571 560 l 1
 537 484 533 463 499 463 c 0
 465 463 462 482 427 560 c 1
 427 398 l 2
 427 378 426 375 419 364 c 1
 408 357 401 353 388 353 c 0
 346 353 350 392 349 392 c 1
EndSplineSet
Position: 0 1 'ITLC' dx=0 dy=0 dh=524 dv=0
EndChar
StartChar: uni2045
Encoding: 8261 8261 340
Width: 361
Flags: HW
TeX: 749 249 32767 32767
HStem: -311 61<201.7 307> 219 62<236.8 307> 689 61<214.315 307>
VStem: 71 78<-194.5 123.266 269.6 685>
Fore
71 90 m 2
 71 218 183 247 232 250 c 1
 182 254 71 282 71 410 c 2
 71 626 l 2
 71 700 127 750 307 750 c 1
 307 689 l 1
 260 689 l 2
 215 689 149 685 149 625 c 2
 149 410 l 2
 149 302 253 281 307 281 c 1
 307 219 l 1
 244 219 179 193 157 140 c 0
 150 123 149 106 149 89 c 2
 149 -123 l 2
 149 -178 171 -250 256 -250 c 0
 307 -250 l 1
 307 -311 l 1
 226 -310 71 -273 71 -123 c 2
 71 90 l 2
EndSplineSet
EndChar
StartChar: uni2046
Encoding: 8262 8262 341
Width: 361
Flags: HW
TeX: 749 249 32767 32767
HStem: -250 61<52 144.242> 219 62<52 118.3> 689 61<52 182.2>
VStem: 210 78<-185 233 365.577 678>
CounterMasks: 1 e0
Fore
52 -189 m 1
 99 -189 l 2
 143 -189 210 -185 210 -125 c 2
 210 90 l 2
 210 200 103 219 52 219 c 1
 52 281 l 1
 117 281 184 310 204 365 c 0
 209 379 210 395 210 410 c 2
 210 625 l 2
 210 678 163 689 99 689 c 2
 52 689 l 1
 52 750 l 1
 235 749 288 700 288 625 c 2
 288 410 l 2
 288 282 177 254 127 250 c 1
 176 247 288 218 288 90 c 2
 288 -125 l 2
 288 -200 233 -250 52 -250 c 1
 52 -189 l 1
EndSplineSet
EndChar
StartChar: cent
Encoding: 162 162 342
Width: 500
Flags: HW
TeX: 534 97 32767 32767
VStem: 35 78<108.6 316.6> 247 59<-97 -10 56 394 460 547>
Fore
35 222 m 0
 35 330 112 441 247 459 c 1
 247 547 l 1
 306 547 l 1
 306 460 l 1
 370 458 400 449 465 417 c 1
 454 351 l 1
 405 376 381 392 306 396 c 1
 306 54 l 1
 371 60 408 74 465 107 c 1
 471 40 l 1
 419 11 373 -5 306 -10 c 1
 306 -97 l 1
 247 -97 l 1
 247 -9 l 1
 130 5 35 100 35 222 c 0
113 223 m 0
 113 135 168 70 247 56 c 1
 247 394 l 1
 151 377 113 295 113 223 c 0
EndSplineSet
EndChar
StartChar: currency
Encoding: 164 164 343
Width: 757
Flags: HW
TeX: 577 0 32767 32767
HStem: -11 40<271.4 470.3> 543 40<285.7 461.2>
VStem: 81 40<202.8 378.3> 635 40<179.4 378.3>
Fore
46 -29 m 0
 46 -27 47 -25 47 -22 c 1
 52 -9 67 2 155 90 c 1
 155 91 l 1
 103 149 81 222 81 286 c 0
 81 357 107 428 155 481 c 1
 155 482 l 1
 62 574 46 586 46 600 c 0
 46 607 54 618 65 618 c 2
 68 618 l 2
 76 618 78 614 183 510 c 1
 236 557 307 583 378 583 c 0
 442 583 515 561 573 510 c 1
 574 510 l 1
 678 615 680 618 691 618 c 0
 698 618 711 614 711 596 c 0
 711 588 707 586 602 481 c 1
 649 427 675 357 675 286 c 0
 675 204 644 141 602 90 c 1
 716 -23 710 -14 710 -28 c 0
 711 -36 706 -38 705 -41 c 1
 698 -45 695 -47 693 -47 c 0
 691 -47 689 -46 686 -46 c 1
 674 -40 662 -26 574 62 c 1
 573 62 l 1
 520 15 449 -11 378 -11 c 0
 296 -11 233 20 183 62 c 1
 75 -46 78 -46 64 -46 c 0
 54 -46 46 -34 46 -29 c 0
121 286 m 0
 121 147 233 29 378 29 c 0
 516 29 635 139 635 286 c 0
 635 425 523 543 379 543 c 0
 239 543 121 431 121 286 c 0
EndSplineSet
EndChar
StartChar: yen
Encoding: 165 165 344
Width: 667
Flags: HW
TeX: 694 0 32767 32767
HStem: -0 21G<290 377> 158 62<-3.71802 290 377 670.672> 358 62<-15.3746 193 337 348 475 682.306> 674 20G<3 109 576 664>
VStem: 290 87<0 158 220 278>
Fore
-27 189 m 0
 -27 218 1 220 13 220 c 2
 290 220 l 1
 290 278 l 1
 235 358 l 1
 16 358 l 2
 0 358 -27 359 -27 388 c 0
 -27 401 -21 419 14 419 c 2
 22 419 l 2
 24 419 27 419 29 420 c 1
 193 420 l 1
 3 694 l 1
 109 694 l 1
 296 420 l 1
 388 420 l 1
 576 694 l 1
 664 694 l 1
 475 420 l 1
 653 420 l 2
 688 420 694 401 694 388 c 0
 694 359 667 358 652 358 c 2
 433 358 l 1
 377 278 l 1
 377 220 l 1
 650 220 l 2
 657 220 664 220 671 218 c 0
 684 214 694 202 694 189 c 0
 694 175 685 163 672 160 c 0
 665 158 658 158 651 158 c 2
 377 158 l 1
 377 -0 l 1
 290 -0 l 1
 290 158 l 1
 16 158 l 2
 9 158 2 158 -4 160 c 0
 -17 163 -27 175 -27 189 c 0
337 358 m 1
 342 348 l 1
 348 358 l 1
 337 358 l 1
EndSplineSet
Position: 0 1 'ITLC' dx=0 dy=0 dh=24 dv=0
EndChar
StartChar: brokenbar
Encoding: 166 166 345
Width: 167
Flags: HW
TeX: 749 249 32767 32767
VStem: 63 40<-222 142 358 737.73>
Fore
63 141 m 2
 63 165 75 169 83 169 c 0
 104 169 103 142 103 142 c 1
 103 -221 l 2
 103 -245 91 -249 83 -249 c 0
 62 -249 63 -222 63 -222 c 1
 63 141 l 2
63 358 m 1
 63 721 l 2
 63 744 75 749 83 749 c 0
 104 749 103 723 103 722 c 2
 103 360 l 2
 103 335 91 331 83 331 c 0
 62 331 63 358 63 358 c 1
EndSplineSet
EndChar
StartChar: copyright
Encoding: 169 169 347
Width: 1111
Flags: HW
TeX: 749 249 32767 32767
HStem: -272 40<221.5 879.3> -22 64<422.6 729.4> 444 64<448.2 698.5> 732 40<227.1 886.2>
VStem: 55 40<-91.9 599.7> 288 89<116.9 388.6> 1014 40<-102.3 591.9>
Fore
288 243 m 0
 288 385 429 508 627 508 c 0
 682 508 722 500 771 484 c 1
 757 401 l 1
 722 423 694 444 625 444 c 0
 489 444 377 355 377 243 c 0
 377 146 470 42 628 42 c 0
 706 42 730 59 776 86 c 1
 782 17 l 1
 732 -9 706 -22 626 -22 c 0
 430 -22 288 102 288 243 c 0
EndSplineSet
Refer: 294 9675 S 1 0 0 1 0 0 2
EndChar
StartChar: ordfeminine
Encoding: 170 170 348
Width: 444
Flags: HW
TeX: 749 0 32767 32767
HStem: 274 61<32 406.6> 364 62<130 232> 503 51<191.089 266> 707 59<139.7 268.3>
VStem: 266 79<554 646>
Fore
25 304 m 0
 25 316 32 335 65 335 c 2
 378 335 l 2
 400 335 419 329 419 304 c 0
 419 293 413 274 380 274 c 2
 75 274 l 2
 71 274 67 273 63 273 c 0
 30 273 25 296 25 304 c 0
44 465 m 0
 44 549 232 554 266 554 c 1
 266 590 l 2
 266 646 253 707 202 707 c 0
 141 707 103 673 83 656 c 1
 77 724 l 1
 117 752 155 766 206 766 c 0
 261 766 345 728 345 588 c 2
 345 375 l 1
 269 375 l 1
 269 408 l 1
 256 399 209 364 130 364 c 0
 61 364 44 435 44 465 c 0
118 472 m 1
 115 440 147 426 180 426 c 0
 220 426 258 448 265 487 c 2
 266 503 l 1
 133 498 129 482 121 477 c 1
 118 472 l 1
EndSplineSet
EndChar
StartChar: copyleft
Encoding: 61713 61713 349
Width: 1111
Flags: HW
TeX: 749 249 32767 32767
HStem: -272 40<221.5 879.3> -22 64<380.3 677.3> 444 64<410.5 675.1> 732 40<227.1 886.2>
VStem: 55 40<-91.9 599.7> 732 89<109.1 375.6> 1014 40<-102.3 591.9>
Fore
327 17 m 1
 333 86 l 1
 379 59 403 42 481 42 c 0
 632 42 732 140 732 243 c 0
 732 345 631 444 484 444 c 0
 408 444 379 416 352 401 c 1
 338 484 l 1
 387 500 427 508 482 508 c 0
 685 508 821 380 821 243 c 0
 821 108 687 -22 483 -22 c 0
 404 -22 377 -9 327 17 c 1
EndSplineSet
Refer: 294 9675 S 1 0 0 1 0 0 2
EndChar
StartChar: logicalnot
Encoding: 172 172 350
Width: 667
Flags: W
TeX: 444 0 32767 32767
HStem: 312 40<61.3621 570>
VStem: 569.992 40.0076<47.2625 312>
Fore
56 332 m 0
 56 354 80 351 90 352 c 2
 583 352 l 2
 609 352 610 336 610 323 c 2
 610 71 l 2
 610 47 598 43 590 43 c 0
 569 43 570 65 570 73 c 2
 570 312 l 1
 88 312 l 2
 70 312 56 316 56 332 c 0
EndSplineSet
EndChar
StartChar: uni2117
Encoding: 8471 8471 351
Width: 1111
Flags: HW
TeX: 749 249 32767 32767
HStem: -272 40<221.5 879.3> 0 21G<345 431> 185 58<431 722> 430 56<432 729.7> 732 40<227.1 886.2>
VStem: 55 40<-91.9 599.7> 345 86<0 185 243 430> 751 81<287.6 396.8> 1014 40<-102.3 591.9>
Fore
345 0 m 1
 345 486 l 1
 582 486 l 2
 768 486 832 396 832 337 c 0
 832 276 767 184 584 184 c 0
 574 184 565 185 555 185 c 2
 431 185 l 1
 431 0 l 1
 345 0 l 1
431 243 m 1
 552 243 l 2
 722 243 751 299 751 337 c 0
 751 383 697 427 588 430 c 2
 432 430 l 1
 431 401 l 1
 431 243 l 1
EndSplineSet
Refer: 294 9675 S 1 0 0 1 0 0 2
EndChar
StartChar: registered
Encoding: 174 174 352
Width: 1111
Flags: HW
TeX: 749 249 32767 32767
HStem: -272 40<221.5 879.3> 0 21G<345 431 770 860> 212 62<431 594> 430 56<432 653.961> 732 40<227.1 886.2>
VStem: 55 40<-91.9 599.7> 345 87<0 212 274 430> 1014 40<-102.3 591.9>
Fore
345 0 m 1
 345 486 l 1
 569 486 l 2
 622 486 683 483 745 454 c 0
 806 425 832 388 832 352 c 0
 832 285 754 239 671 221 c 1
 860 0 l 1
 770 0 l 1
 594 212 l 1
 431 212 l 1
 431 0 l 1
 345 0 l 1
431 274 m 1
 554 274 l 2
 614 274 653 275 693 291 c 0
 753 314 749 346 751 351 c 1
 747 390 717 430 553 430 c 2
 432 430 l 1
 431 373 l 1
 431 274 l 1
EndSplineSet
Refer: 294 9675 S 1 0 0 1 0 0 2
EndChar
StartChar: degree
Encoding: 176 176 354
Width: 333
Flags: HW
TeX: 694 0 32767 32767
HStem: 472 41<111.4 215.4> 654 40<116.6 220.6>
VStem: 55 40<536.2 636.3> 236 41<529.7 629.8>
Fore
55 583 m 0
 55 644 105 694 166 694 c 0
 230 694 277 642 277 583 c 0
 277 522 227 472 166 472 c 0
 102 472 55 524 55 583 c 0
95 583 m 0
 95 547 124 513 166 513 c 0
 204 513 236 542 236 583 c 0
 236 619 208 654 166 654 c 0
 128 654 95 624 95 583 c 0
EndSplineSet
EndChar
StartChar: plusminus
Encoding: 177 177 355
Width: 778
Flags: HW
TeX: 577 83 32767 32767
HStem: -0 40<61.9337 368 408 714.588> 313 40<65.75 368 408 715.735>
VStem: 368 40<40 313 353 655.25>
Fore
56 19 m 0
 56 38 73 40 83 40 c 2
 368 40 l 1
 368 313 l 1
 86 313 l 2
 72 313 56 314 56 333 c 0
 56 352 72 353 85 353 c 2
 368 353 l 1
 368 635 l 2
 368 649 369 665 388 665 c 0
 407 665 408 649 408 636 c 2
 408 353 l 1
 690 353 l 2
 703 353 721 351 721 333 c 0
 721 315 705 313 691 313 c 2
 408 313 l 1
 408 40 l 1
 695 40 l 2
 716 39 720 28 720 20 c 0
 720 1 701 0 692 -0 c 2
 84 -0 l 2
 58 0 56 14 56 19 c 0
EndSplineSet
EndChar
StartChar: twosuperior
Encoding: 178 178 356
Width: 444
Flags: HW
TeX: 749 0 32767 32767
HStem: 361 70<116 393> 708 64<112.1 282.4>
VStem: 310 83<528.4 688.3>
Fore
41 691 m 1
 87 748 134 772 207 772 c 0
 317 772 393 710 393 624 c 0
 393 545 303 530 232 495 c 0
 220 490 209 483 116 431 c 1
 265 431 l 1
 290 432 l 1
 393 432 l 1
 393 361 l 1
 49 361 l 1
 49 431 l 1
 138 484 150 491 161 497 c 0
 222 528 310 550 310 622 c 0
 310 673 262 708 194 708 c 0
 122 708 98 667 80 633 c 1
 41 691 l 1
EndSplineSet
EndChar
StartChar: threesuperior
Encoding: 179 179 357
Width: 444
Flags: HW
TeX: 749 0 32767 32767
HStem: 350 62<145.089 318.7> 535 62<166 205.975> 713 59<142.3 294.4>
VStem: 291 83<645.643 690.4> 312 89<445.4 502.6>
Fore
41 378 m 1
 50 439 l 1
 98 425 149 412 216 412 c 0xe8
 295 412 312 452 312 474 c 0xe8
 312 496 295 513 281 521 c 0
 259 534 233 535 207 535 c 2
 166 535 l 1
 166 597 l 1
 207 601 243 600 272 626 c 0
 283 637 291 651 291 667 c 0
 291 685 277 713 219 713 c 0
 160 713 121 688 88 661 c 1
 55 717 l 1
 100 750 154 772 219 772 c 0
 305 772 374 726 374 667 c 0xf0
 374 597 305 568 303 565 c 1
 337 555 401 527 401 473 c 0
 401 420 340 350 218 350 c 0
 165 350 109 357 41 378 c 1
EndSplineSet
EndChar
StartChar: acute.ts1
Encoding: 61714 61714 358
Width: 500
Flags: HW
TeX: 722 0 32767 32767
HStem: 537 185<266 416>
VStem: 205 211<537 722>
Fore
205 537 m 1
 338 722 l 1
 416 722 l 1
 266 537 l 1
 205 537 l 1
EndSplineSet
EndChar
StartChar: uni00B5
Encoding: 181 181 359
Width: 517
Flags: HW
TeX: 444 194 32767 32767
HStem: -195 21G<80 158> -11 56<174.3 256.2> 425 20G<80 158 358 436>
VStem: 80 78<-195 -9 67 445> 358 78<0 48 127.909 445>
Fore
80 -195 m 1
 80 445 l 1
 158 445 l 1
 158 110 l 2
 159 67 170 45 238 45 c 0
 313 45 352 94 357 136 c 0
 358 146 358 156 358 165 c 2
 358 445 l 1
 436 445 l 1
 436 0 l 1
 360 0 l 1
 360 48 l 1
 309 4 240 -11 186 -11 c 0
 177 -11 167 -10 158 -9 c 1
 158 -195 l 1
 80 -195 l 1
EndSplineSet
EndChar
StartChar: paragraph
Encoding: 182 182 360
Width: 611
Flags: HW
TeX: 722 194 32767 32767
HStem: -194 21G<358.5 378.5 470 483> 682 40<390 459 499 576.569>
VStem: 55 335<274.7 636.1> 350 40<-188.427 244> 459 40<-183.07 682>
Fore
55 484 m 0
 55 601 148 707 277 721 c 0
 291 722 304 722 318 722 c 2
 551 722 l 2
 568 722 582 718 582 702 c 0xe8
 582 695 578 683 556 682 c 2
 499 682 l 1
 499 -165 l 2
 499 -190 487 -194 479 -194 c 0
 461 -194 459 -176 459 -165 c 2
 459 682 l 1
 390 682 l 1
 390 -161 l 2
 390 -178 387 -194 370 -194 c 0
 347 -194 350 -167 350 -165 c 2
 350 244 l 1xd8
 217 251 55 323 55 484 c 0
EndSplineSet
EndChar
StartChar: periodcentered
Encoding: 183 183 361
Width: 236
Flags: W
TeX: 444 0 32767 32767
HStem: 175 89<73 163>
VStem: 73 90<175 264>
Fore
73 175 m 1
 73 264 l 1
 163 264 l 1
 163 175 l 1
 73 175 l 1
EndSplineSet
EndChar
StartChar: uni203B
Encoding: 8251 8251 362
Width: 648
Flags: HW
TeX: 534 0 32767 32767
HStem: -0 124<265.6 384> 207 123<59.9594 170 472.6 580.668> 413 124<265.6 384>
VStem: 55 124<210.3 318.983> 262 123<11.2983 118.638 425.028 531.569> 468 124<212.037 322>
CounterMasks: 1 fc
Fore
55 235 m 2
 55 303 l 2
 55 322 65 331 83 331 c 0
 84 331 85 330 85 330 c 1
 146 330 l 2
 177 330 179 318 179 302 c 2
 179 235 l 2
 179 216 170 207 152 207 c 2
 85 207 l 2
 68 207 55 209 55 235 c 2
56 19 m 0
 57 36 67 38 79 52 c 2
 295 269 l 1
 267 296 66 497 62 503 c 0
 58 508 56 513 56 517 c 0
 56 528 65 536 75 536 c 0
 87 536 96 525 106 514 c 2
 323 297 l 1
 324 297 l 1
 542 515 l 2
 552.029 524.971 560 536 572 536 c 0
 583 536 591 527 591 517 c 0
 591 504 578.975 496.025 568 485 c 2
 352 268 l 1
 569 51 l 2
 576.977 42.977 591 33 591 20 c 0
 591 8 582 1 572 1 c 0
 560 1 551 12 541 23 c 2
 324 240 l 1
 323 240 l 1
 105 22 l 2
 96.9771 14.023 87 1 75 1 c 0
 59 1 56 18 56 19 c 0
262 28 m 2
 262 96 l 2
 261 115 271 124 289 124 c 2
 354 124 l 2
 384 124 385 110 385 92 c 2
 385 29 l 2
 384 14 385 1 357 -0 c 2
 292 -0 l 2
 264 0 262 12 262 28 c 2
262 441 m 2
 262 509 l 2
 261 528 271 537 289 537 c 2
 354 537 l 2
 384 537 385 523 385 506 c 2
 385 443 l 2
 384 427 384 414 357 413 c 2
 292 413 l 2
 264 413 262 426 262 441 c 2
468 239 m 2
 468 303 l 2
 468 322 478 331 496 331 c 0
 497 331 498 330 499 330 c 2
 560 330 l 2
 577 330 592 329 592 302 c 2
 592 235 l 2
 592 216 583 207 566 207 c 2
 499 207 l 2
 470 207 468 219 468 239 c 2
EndSplineSet
EndChar
StartChar: onesuperior
Encoding: 185 185 363
Width: 444
Flags: HW
TeX: 749 0 32767 32767
HStem: 361 59<83 192 272 374> 639 58<69 165.2>
VStem: 192 80<420 665>
Fore
69 639 m 1
 69 697 l 1
 180 698 228 746 253 772 c 1
 272 772 l 1
 272 420 l 1
 374 420 l 1
 374 361 l 1
 83 361 l 1
 83 420 l 1
 192 420 l 1
 192 665 l 1
 181 660 143 639 69 639 c 1
EndSplineSet
EndChar
StartChar: ordmasculine
Encoding: 186 186 364
Width: 444
Flags: HW
TeX: 749 0 32767 32767
HStem: 274 61<32 406.6> 364 64<133.3 281.5> 705 61<160.9 305.2>
VStem: 30 79<456.9 694.9> 335 79<425.7 681.8>
Fore
25 304 m 0
 25 316 32 335 65 335 c 2
 378 335 l 2
 400 335 419 329 419 304 c 0
 419 293 413 274 380 274 c 2
 75 274 l 2
 71 274 67 273 63 273 c 0
 30 273 25 296 25 304 c 0
30 561 m 0
 30 664 108 766 222 766 c 0
 334 766 414 666 414 561 c 0
 414 456 332 364 222 364 c 0
 121 364 30 446 30 561 c 0
109 570 m 0
 109 483 154 428 223 428 c 0
 268 428 335 459 335 570 c 0
 335 656 286 705 222 705 c 0
 175 705 109 673 109 570 c 0
EndSplineSet
EndChar
StartChar: radical
Encoding: 8730 8730 365
Width: 472
Flags: HW
TeX: 749 209 32767 32767
HStem: 722 40<406 514.867>
Fore
21 94 m 1
 155 329 l 1
 203 82 l 1
 371 745 l 2
 377 760 386 762 401 762 c 2
 488 762 l 2
 507 762 521 759 521 743 c 0
 521 723 502 722 493 722 c 2
 406 722 l 1
 204 -77 l 2
 200 -94 198 -105 172 -105 c 2
 161 -105 l 1
 114 138 l 1
 65 51 l 1
 21 94 l 1
EndSplineSet
EndChar
StartChar: onequarter
Encoding: 188 188 366
Width: 444
Flags: HW
TeX: 749 194 32767 32767
HStem: -195 21G<237 317> -109 62<110 237 317 416> 258 40<14.4208 424.123> 338 58<82 192 272 374> 672 59<69 148.614>
VStem: 192 80<396 686> 237 80<-195 -109> 242 75<-47 13>
Fore
8 280 m 1
 13 297 25 298 35 298 c 2
 404 298 l 2
 419 298 429 297 434 283 c 1
 435 270 432 258 407 258 c 2
 36 258 l 2
 5 258 9 275 8 280 c 1
27 -47 m 1
 220 218 l 1
 317 218 l 1xf9
 317 -47 l 1xf9
 416 -47 l 1
 416 -109 l 1
 317 -109 l 1
 317 -195 l 1
 237 -195 l 1
 237 -109 l 1xfa
 27 -109 l 1
 27 -47 l 1
69 672 m 1
 69 731 l 1
 123 731 191 733 252 772 c 1
 272 772 l 1
 272 396 l 1
 374 396 l 1
 374 338 l 1
 82 338 l 1
 82 396 l 1
 192 396 l 1
 192 686 l 1xfc
 156 676 124 673 69 672 c 1
110 -47 m 1
 242 -47 l 1xf9
 242 180 l 1
 233 133 224 113 110 -47 c 1
EndSplineSet
Ligature: 0 1 'frac' one slash four
Ligature: 0 1 'frac' one fraction four
EndChar
StartChar: onehalf
Encoding: 189 189 367
Width: 444
Flags: HW
TeX: 749 194 32767 32767
HStem: -195 65<123 393> 181 59<113.4 257.7> 258 40<14.4208 424.123> 338 58<82 192 272 374> 672 59<69 148.614>
VStem: 192 80<396 686> 310 83<16.8 180.6>
Fore
8 280 m 1
 13 297 25 298 35 298 c 2
 404 298 l 2
 419 298 429 297 434 283 c 1
 435 270 432 258 407 258 c 2
 36 258 l 2
 5 258 9 275 8 280 c 1
41 168 m 1
 90 219 135 240 207 240 c 2
 208 240 l 2
 316 240 393 185 393 102 c 0
 393 20 309 -6 234 -53 c 2
 123 -130 l 1
 393 -130 l 1
 393 -195 l 1
 49 -195 l 1
 49 -136 l 1
 162 -53 l 2
 257 7 310 36 310 100 c 0
 310 162 243 181 194 181 c 0
 126 181 100 145 80 110 c 1
 41 168 l 1
69 672 m 1
 69 731 l 1
 123 731 191 733 252 772 c 1
 272 772 l 1
 272 396 l 1
 374 396 l 1
 374 338 l 1
 82 338 l 1
 82 396 l 1
 192 396 l 1
 192 686 l 1
 156 676 124 673 69 672 c 1
EndSplineSet
Ligature: 0 1 'frac' one slash two
Ligature: 0 1 'frac' one fraction two
EndChar
StartChar: threequarters
Encoding: 190 190 368
Width: 444
Flags: HW
TeX: 749 194 32767 32767
HStem: -195 21G<237 317> -109 62<110 237 317 416> 258 40<14.4208 424.123> 315 62<133.1 320.6> 520 61<166 215.653> 713 59<138.4 294.4>
VStem: 237 80<-195 -109> 242 75<-47 13> 291 83<630.1 687.3> 312 89<415.5 527.6>
Fore
8 280 m 1
 13 297 25 298 35 298 c 2
 404 298 l 2
 419 298 429 297 434 283 c 1
 435 270 432 258 407 258 c 2
 36 258 l 2
 5 258 9 275 8 280 c 1
27 -47 m 1
 220 218 l 1
 317 218 l 1xfd
 317 -47 l 1xfd
 416 -47 l 1
 416 -109 l 1
 317 -109 l 1
 317 -195 l 1
 237 -195 l 1
 237 -109 l 1xfe
 27 -109 l 1
 27 -47 l 1
41 340 m 1
 50 402 l 1
 94 391 144 377 214 377 c 0
 296 377 312 423 312 448 c 0xfc40
 312 515 236 520 212 520 c 2
 166 520 l 1
 166 581 l 1
 194 583 228.987 582.018 258 603 c 0
 275.992 616.011 291 637 291 660 c 0
 291 681 277 713 219 713 c 0
 157 713 117 687 88 664 c 1
 55 720 l 1
 99 750 153 772 219 772 c 0
 306 772 374 723 374 660 c 0xfc80
 374 587 299 550 299 550 c 1
 334 537 401 509 401 447 c 0
 401 402 355 315 215 315 c 0
 152 315 90 327 41 340 c 1
110 -47 m 1
 242 -47 l 1xfd
 242 180 l 1
 233 133 224 113 110 -47 c 1
EndSplineSet
Ligature: 0 1 'frac' three slash four
Ligature: 0 1 'frac' three fraction four
EndChar
StartChar: Euro.old
Encoding: 62028 62028 369
Width: 778
Flags: HW
TeX: 694 0 32767 32767
HStem: 0 66<453.633 721> 255 65<55 140 245 555> 402 64<55 141 250 555> 629 65<391.5 721>
VStem: 138 90<320 402>
Fore
55 255 m 1
 55 320 l 1
 140 320 l 1
 138 366 l 1
 141 402 l 1
 55 402 l 1
 55 466 l 1
 127 466 l 1
 157 467 l 1
 202 597 334 688 485 694 c 2
 721 694 l 1
 721 628 l 1
 673 629 l 1
 489 629 l 2
 364 624 283 542 250 467 c 1
 456 467 l 1
 481 468 l 1
 555 468 l 1
 555 402 l 1
 231 402 l 1
 229 388 228 374 228 360 c 0
 228 336 230 324 230 320 c 1
 555 320 l 1
 555 254 l 1
 483 254 l 1
 458 255 l 1
 245 255 l 1
 303 106 416 68 489 65 c 2
 646 66 l 1
 721 66 l 1
 721 0 l 1
 514 0 l 2
 483 1 464 -0 428 7 c 0
 299 33 195 125 154 255 c 1
 55 255 l 1
EndSplineSet
EndChar
StartChar: multiply
Encoding: 215 215 370
Width: 778
Flags: HW
TeX: 577 83 32767 32767
HStem: 9 481<166 610>
VStem: 148 481<28 472>
Fore
148 28 m 0
 148 41 163.024 51.9762 172 61 c 2
 360 250 l 1
 171 439 l 2
 146 465 158 452 148 467 c 1
 148 473 l 2
 148 480 156 490 167 490 c 0
 179 490 187 480 197 470 c 2
 389 278 l 1
 581 471 l 2
 591 480 598 490 610 490 c 0
 625 490 629 476 629 472 c 0
 629 470 628 469 628 466 c 1
 623 455 614 447 606 439 c 2
 417 250 l 1
 606 61 l 2
 631 35 621 45 628 33 c 1
 629 27 l 1
 629 18 620 10 610 10 c 0
 598 10 590 20 581 30 c 2
 388 222 l 1
 188 21 l 2
 178.267 13.0367 174.8 9 166 9 c 0
 158 9 148 19 148 28 c 0
EndSplineSet
EndChar
StartChar: divide
Encoding: 247 247 371
Width: 778
Flags: HW
TeX: 577 83 32767 32767
HStem: -34 123<335 457> 230 40<66.157 714.635> 411 123<337.153 444.868>
VStem: 326 124<-22.1238 83.1339 413.539 530.7>
CounterMasks: 1 e0
Fore
56 251 m 0
 56 268 72 270 85 270 c 2
 684 270 l 2
 699 270 720 271 720 250 c 0
 720 230 698 230 692 230 c 2
 83 230 l 2
 59 230 56 244 56 251 c 0
326 -6 m 2
 326 61 l 2
 326 80 335 89 353 89 c 2
 418 89 l 2
 448 89 450 77 450 59 c 0
 450 19.8 450.163 14.8918 450 10 c 0
 449 -20 451 -34 421 -34 c 2
 356 -34 l 2
 329 -34 326 -20 326 -6 c 2
326 439 m 2
 326 506 l 2
 326 525 335 534 353 534 c 2
 418 534 l 2
 435 534 450 533 450 506 c 0
 450 465.2 450.164 460.092 450 455 c 0
 449 424 451 412 422 411 c 2
 356 411 l 2
 340 411 326 413 326 439 c 2
EndSplineSet
EndChar
StartChar: uni0311
Encoding: 785 785 373
Width: 0
Flags: HW
TeX: 638 0 32767 32767
HStem: 583 67<-291.29 -210.123>
VStem: -420 61<510 575.524> -143 62<510 560.7>
AnchorPoint: "above-mark" -250 630 basemark 0
AnchorPoint: "above-mark" -250 460 mark 0
AnchorPoint: "above" -250 460 mark 0
Fore
-420 510 m 1
 -417 602 -331 650 -251 650 c 0
 -169 650 -85 602 -81 510 c 1
 -143 510 l 1
 -148 575 -225 583 -250 583 c 0
 -277 583 -353 575 -359 510 c 1
 -420 510 l 1
EndSplineSet
EndChar
StartChar: cyrbreve
Encoding: 63188 63188 375
Width: 500
Flags: HW
TeX: 638 0 32767 32767
HStem: 500 67<208.527 290.857>
VStem: 80 61<597.4 639> 358 61<581.079 644.694>
Fore
80 639 m 1
 141 639 l 1
 147 575 223 567 249 567 c 0
 277 567 352 575 358 639 c 1
 419 639 l 1
 416 546 329 500 250 500 c 0
 170 500 83 547 80 639 c 1
EndSplineSet
EndChar
StartChar: emdash.cyr
Encoding: 61715 61715 376
Width: 805
Flags: W
TeX: 444 0 32767 32767
HStem: 244 61<14 791>
Fore
14 244 m 1
 14 305 l 1
 791 305 l 1
 791 244 l 1
 14 244 l 1
EndSplineSet
Position: 0 2 'ITLC' dx=0 dy=0 dh=27 dv=0
EndChar
StartChar: afii10050
Encoding: 1168 1168 378
Width: 555
Flags: W
TeX: 888 0 32767 32767
HStem: 0 21G<94 184> 630 64<184 449>
VStem: 94 90<0 630> 449 64<694 889>
Fore
94 0 m 1
 94 694 l 1
 449 694 l 1
 449 889 l 1
 513 889 l 1
 513 630 l 1
 184 630 l 1
 184 0 l 1
 94 0 l 1
EndSplineSet
KernsSLIFO: 1745 -83 11 0 1732 -83 11 0 1731 -83 11 0 1730 -28 11 0 1729 -83 11 0 1728 -83 11 0 1363 -28 11 0 419 -83 11 0 501 -83 11 0 414 -83 11 0 481 -83 11 0 474 -83 11 0 490 -83 11 0 432 -83 11 0 424 -83 11 0 487 -83 11 0 435 -83 11 0 475 -83 11 0 423 -83 11 0 484 -83 11 0 470 -83 11 0 385 -56 11 0 449 -56 11 0 403 -28 11 0 395 -28 11 0 455 -28 11 0 394 -28 11 0 458 -28 11 0 452 -28 11 0 442 -83 11 0 390 -83 11 0 438 -83 11 0
EndChar
StartChar: uni0492
Encoding: 1170 1170 379
Width: 542
Flags: HW
TeX: 694 0 32767 32767
HStem: 0 21G<93 183> 332 58<18 93 183 298> 628 66<93 498>
VStem: 93 90<0 332 390 694>
Fore
18 332 m 1
 18 390 l 1
 93 390 l 1
 93 694 l 1
 498 694 l 1
 498 628 l 1
 183 630 l 5
 183 390 l 1
 298 390 l 1
 298 332 l 1
 183 332 l 1
 183 0 l 1
 93 0 l 1
 93 332 l 1
 18 332 l 1
EndSplineSet
KernsSLIFO: 1745 -83 11 0 1732 -83 11 0 1731 -83 11 0 1729 -83 11 0 1728 -83 11 0 419 -83 11 0 501 -83 11 0 414 -83 11 0 481 -83 11 0 474 -83 11 0 490 -83 11 0 432 -83 11 0 424 -83 11 0 487 -83 11 0 435 -83 11 0 475 -83 11 0 423 -83 11 0 484 -83 11 0 470 -83 11 0 385 -56 11 0 449 -56 11 0 442 -83 11 0 390 -83 11 0 438 -83 11 0
EndChar
StartChar: afii10051
Encoding: 1026 1026 380
Width: 819
Flags: W
TeX: 694 0 32767 32767
HStem: -22 61<511.267 665.5> 405 62<478.8 720.6> 630 64<35 295 384 644>
VStem: 295 89<0 287.405 378 630> 704 78<136.255 352>
Fore
35 628 m 1
 35 694 l 1
 644 694 l 1
 644 629 l 1
 384 630 l 1
 384 378 l 1
 405 401 465 467 587 467 c 0
 759 467 782 374 782 284 c 2
 782 196 l 2
 782 69.3039 699.6 -22 576 -22 c 0
 527 -22 500 -16 454 -0 c 1
 472 68 l 1
 502 52 524 39 581 39 c 0
 646 39 677 82 689 110 c 0
 703 140 704 173 704 206 c 2
 704 277 l 2
 704 352 678 405 536 405 c 0
 492 405 457 393 426 359 c 0
 390 319 384 275 384 234 c 2
 384 -0 l 1
 295 -0 l 1
 295 630 l 1
 35 628 l 1
EndSplineSet
KernsSLIFO: 1735 -28 11 0 1730 -28 11 0 1363 -28 11 0 430 -83 11 0 431 -83 11 0 493 -83 11 0 417 -28 11 0 496 -28 11 0 488 -28 11 0 396 -28 11 0 457 -28 11 0 398 -83 11 0 397 -83 11 0 401 -83 11 0 402 -83 11 0 461 -83 11 0 388 -83 11 0 381 -83 11 0 380 -83 11 0 464 -83 11 0 456 -83 11 0 403 -28 11 0 395 -28 11 0 455 -28 11 0 394 -28 11 0 458 -28 11 0 452 -28 11 0 399 -28 11 0 459 -28 11 0 383 -28 11 0 444 -28 11 0
EndChar
StartChar: afii10060
Encoding: 1035 1035 381
Width: 764
Flags: W
TeX: 694 0 32767 32767
HStem: -0 21G<260 349 582 660> 394 61<410.8 510.9> 629 65<35 260 349 629>
VStem: 260 89<0 320.6 382 629> 582 78<0 320.828>
Fore
35 628 m 1
 35 694 l 1
 629 694 l 1
 629 629 l 1
 349 630 l 1
 349 382 l 1
 387 423 433 455 507 455 c 0
 656 455 660 347 660 284 c 2
 660 -0 l 1
 582 -0 l 1
 582 281 l 2
 582 315 579 343 557 365 c 0
 537 384 501 394 468 394 c 0
 373 394 349 302 349 240 c 2
 349 -0 l 1
 260 -0 l 1
 260 629 l 1
 35 628 l 1
EndSplineSet
EndChar
StartChar: uni04BA
Encoding: 1210 1210 382
Width: 694
Flags: HW
TeX: 694 0 32767 32767
HStem: 0 21G<94 184 510 599> 461 61<273.1 406.8> 674 20G<94 184>
VStem: 510 89<0 365.22>
Fore
94 0 m 1
 94 694 l 1
 184 694 l 1
 184 439 l 1
 232 485 301 522 394 522 c 0
 592 522 599 388 599 302 c 2
 599 0 l 1
 510 0 l 1
 510 301 l 2
 509 337 510 383 477 419 c 0
 444 453 393 461 347 461 c 0
 282 461 184 413 184 240 c 2
 184 0 l 1
 94 0 l 1
EndSplineSet
KernsSLIFO: 1735 -28 11 0 1730 -28 11 0 1363 -28 11 0 430 -83 11 0 431 -83 11 0 493 -83 11 0 417 -28 11 0 496 -28 11 0 488 -28 11 0 396 -28 11 0 457 -28 11 0 398 -83 11 0 397 -83 11 0 401 -83 11 0 402 -83 11 0 461 -83 11 0 388 -83 11 0 381 -83 11 0 380 -83 11 0 464 -83 11 0 456 -83 11 0 403 -28 11 0 395 -28 11 0 455 -28 11 0 394 -28 11 0 458 -28 11 0 452 -28 11 0 399 -28 11 0 459 -28 11 0 383 -28 11 0 444 -28 11 0
EndChar
StartChar: uni0496
Encoding: 1174 1174 383
Width: 1111
Flags: HW
TeX: 694 194 32767 32767
HStem: -195 21G<1010 1074> -20 20G<974 1010> 0 21G<41 135 511 597> 674 20G<55 148 511 597 961 1054>
VStem: 511 86<0 228 323 694> 1010 64<-195 0>
Fore
41 0 m 1
 323 420 l 1
 55 694 l 1
 148 694 l 1
 511 323 l 1
 511 694 l 1
 597 694 l 1
 597 323 l 1
 961 694 l 1
 1054 694 l 1
 786 420 l 1
 1024 65 l 1
 1074 65 l 1
 1074 -195 l 1
 1010 -195 l 1
 1010 0 l 1
 974 0 l 1
 731 363 l 1
 597 228 l 1
 597 0 l 1
 511 0 l 1
 511 228 l 1
 378 363 l 1
 135 0 l 1
 41 0 l 1
EndSplineSet
KernsSLIFO: 1730 -28 11 0 1363 -28 11 0 417 -28 11 0 496 -28 11 0 488 -28 11 0 430 -28 11 0 431 -28 11 0 493 -28 11 0 403 -28 11 0 395 -28 11 0 455 -28 11 0 394 -28 11 0 458 -28 11 0 452 -28 11 0
EndChar
StartChar: uni0498
Encoding: 1176 1176 384
Width: 611
Flags: HW
TeX: 694 194 32767 32767
HStem: -43 20G<275 336> -22 56<151.8 438.8> 330 62<194 339.876> 660 56<164 402.5>
VStem: 462 79<485.8 673.3> 487 82<77 257.7>
Fore
50 77 m 1
 85 138 l 1
 138 78 174 34 301 34 c 0
 407 34 487 101 487 181 c 0xf4
 487 240 441 330 289 330 c 2
 194 330 l 1
 194 392 l 1
 262 392 l 2
 295 392 312.965 391.127 345 400 c 0
 388.952 412.174 462 451 462 529 c 0
 462 640 380 660 305 660 c 0
 176 660 128 592 99 563 c 1
 61 630 l 1
 133 687 197 716 307 716 c 0
 434 716 541 680 541 530 c 0xf8
 541 496 529 406 365 363 c 1
 503 340 569 255 569 182 c 0
 569 82 470 -22 300 -22 c 0
 186 -22 137 -1 50 77 c 1
201 -217 m 1
 275 -23 l 1
 336 -23 l 1xf0
 271 -217 l 1
 201 -217 l 1
EndSplineSet
EndChar
StartChar: afii10058
Encoding: 1033 1033 385
Width: 1037
Flags: HW
TeX: 694 0 32767 32767
HStem: -0 63<19 106.157> 0 56<616 780.469> 331 61<617 805.8> 630 64<288 527>
VStem: 224 64<481.633 694> 527 90<56 330 392 630> 899 82<122.5 262.9>
Fore
19 -0 m 1
 19 63 l 1
 57 63 l 2xbe
 84 63 128 59 162 128 c 0
 209 224 224 465 224 694 c 1
 616 694 l 1
 616 392 l 1
 746 392 l 2
 792 392 832 387 877 363 c 0
 934 330 981 270 981 195 c 0
 981 97 899 14 789 2 c 0
 775 0 761 0 747 0 c 2
 527 0 l 1x7e
 527 630 l 1
 288 630 l 1
 287 585 286.307 360.156 248 190 c 0
 211.337 27.1492 147 -0 80 -0 c 2xbe
 19 -0 l 1
616 56 m 1
 726 56 l 2
 852 56 899 139 899 194 c 0x7e
 899 247 858 331 720 331 c 0
 713 331 707 330 700 330 c 2
 617 330 l 1
 616 292 l 1
 616 56 l 1
EndSplineSet
KernsSLIFO: 1735 -28 11 0 1730 -28 11 0 1363 -28 11 0 430 -83 11 0 431 -83 11 0 493 -83 11 0 417 -28 11 0 496 -28 11 0 488 -28 11 0 396 -28 11 0 457 -28 11 0 398 -83 11 0 397 -83 11 0 401 -83 11 0 402 -83 11 0 461 -83 11 0 388 -83 11 0 381 -83 11 0 380 -83 11 0 464 -83 11 0 456 -83 11 0 403 -28 11 0 395 -28 11 0 455 -28 11 0 394 -28 11 0 458 -28 11 0 452 -28 11 0 399 -28 11 0 459 -28 11 0 383 -28 11 0 444 -28 11 0
EndChar
StartChar: uni049A
Encoding: 1178 1178 387
Width: 694
Flags: HW
TeX: 694 194 32767 32767
HStem: -195 21G<593 657> -20 20G<557 593> 0 21G<95 181> 674 20G<95 181 544 637>
VStem: 95 86<0 228 323 694> 593 64<-195 0>
Fore
95 0 m 1
 95 694 l 1
 181 694 l 1
 181 323 l 1
 544 694 l 1
 637 694 l 1
 369 420 l 1
 369 419 l 1
 607 65 l 1
 657 65 l 1
 657 -195 l 1
 593 -195 l 1
 593 0 l 1
 557 0 l 1
 314 363 l 1
 181 228 l 1
 181 0 l 1
 95 0 l 1
EndSplineSet
KernsSLIFO: 1730 -28 11 0 1363 -28 11 0 417 -28 11 0 496 -28 11 0 488 -28 11 0 430 -28 11 0 431 -28 11 0 493 -28 11 0 403 -28 11 0 395 -28 11 0 455 -28 11 0 394 -28 11 0 458 -28 11 0 452 -28 11 0
EndChar
StartChar: uni04A0
Encoding: 1184 1184 388
Width: 896
Flags: W
TeX: 694 0 32767 32767
HStem: -0 21G<296 382 759 852> 628 66<35 382>
VStem: 296 86<-0 694>
Fore
35 628 m 5
 35 694 l 1
 382 694 l 1
 382 323 l 1
 745 694 l 1
 839 694 l 1
 570 420 l 1
 570 419 l 1
 852 -0 l 1
 759 -0 l 1
 515 363 l 1
 382 228 l 1
 382 -0 l 1
 296 -0 l 1
 296 630 l 1
 35 628 l 5
EndSplineSet
KernsSLIFO: 1730 -28 11 0 1363 -28 11 0 417 -28 11 0 496 -28 11 0 488 -28 11 0 430 -28 11 0 431 -28 11 0 493 -28 11 0 403 -28 11 0 395 -28 11 0 455 -28 11 0 394 -28 11 0 458 -28 11 0 452 -28 11 0
EndChar
StartChar: uni049C
Encoding: 1180 1180 389
Width: 798
Flags: W
TeX: 694 0 32767 32767
HStem: 0 21G<95 181 659 755> 390 61<181 293 352 374> 674 20G<95 181 644 741>
VStem: 95 86<0 390 451 694> 293 59<240 390 451 587>
Fore
95 0 m 1
 95 694 l 1
 181 694 l 1
 181 451 l 1
 293 451 l 1
 293 587 l 1
 352 587 l 1
 352 451 l 1
 385 451 l 1
 644 694 l 1
 741 694 l 1
 449 420 l 1
 449 419 l 1
 755 0 l 1
 659 0 l 1
 374 390 l 1
 352 390 l 1
 352 240 l 1
 293 240 l 1
 293 390 l 1
 181 390 l 1
 181 0 l 1
 95 0 l 1
EndSplineSet
KernsSLIFO: 1730 -28 11 0 1363 -28 11 0 417 -28 11 0 496 -28 11 0 488 -28 11 0 430 -28 11 0 431 -28 11 0 493 -28 11 0 403 -28 11 0 395 -28 11 0 455 -28 11 0 394 -28 11 0 458 -28 11 0 452 -28 11 0
EndChar
StartChar: uni04A2
Encoding: 1186 1186 391
Width: 711
Flags: W
TeX: 694 194 32767 32767
HStem: -195 21G<610 674> -20 20G<510 610> 0 21G<94 184> 330 62<184 510> 674 20G<94 184 510 599>
VStem: 94 90<0 330 392 694> 510 89<62 330 392 694> 610 64<-195 0>
Fore
94 0 m 1
 94 694 l 1
 184 694 l 1
 184 392 l 1
 510 392 l 1
 510 694 l 1
 599 694 l 1
 599 62 l 1
 674 62 l 1
 674 -195 l 1
 610 -195 l 1
 610 0 l 1
 510 0 l 1
 510 330 l 1
 184 330 l 1
 184 0 l 1
 94 0 l 1
EndSplineSet
EndChar
StartChar: uni04A4
Encoding: 1188 1188 392
Width: 896
Flags: HW
TeX: 694 0 32767 32767
HStem: 0 21G<94 184 510 599> 330 62<184 510> 628 66<510 859>
VStem: 94 90<0 694> 510 89<0 694>
Fore
94 0 m 1
 94 694 l 1
 184 694 l 1
 184 392 l 1
 510 392 l 1
 510 694 l 1
 859 694 l 1
 859 628 l 1
 599 630 l 5
 599 0 l 1
 510 0 l 1
 510 330 l 1
 184 330 l 1
 184 0 l 1
 94 0 l 1
EndSplineSet
KernsSLIFO: 1745 -83 11 0 1732 -83 11 0 1731 -83 11 0 1729 -83 11 0 1728 -83 11 0 419 -83 11 0 501 -83 11 0 414 -83 11 0 481 -83 11 0 474 -83 11 0 490 -83 11 0 432 -83 11 0 424 -83 11 0 487 -83 11 0 435 -83 11 0 475 -83 11 0 423 -83 11 0 484 -83 11 0 470 -83 11 0 385 -56 11 0 449 -56 11 0 442 -83 11 0 390 -83 11 0 438 -83 11 0
EndChar
StartChar: uni04E8
Encoding: 1256 1256 394
Width: 736
Flags: HW
TeX: 694 0 32767 32767
HStem: -22 65<173.3 507.4> 330 62<146 589> 652 64<231.8 409.778>
VStem: 55 91<193.5 345>
AnchorPoint: "above" 368 716 basechar 0
Fore
55 345 m 0
 55 554 199 716 368 716 c 0
 534 716 679 555 679 345 c 0
 679 143 542 -22 367 -22 c 0
 204 -22 55 132 55 345 c 0
145 392 m 1
 589 392 l 1
 588 406 586 421 583 435 c 0
 566.062 533.807 502.816 623.796 410 647 c 0
 397 650 382 652 367 652 c 0
 263 652 185 566 158 465 c 0
 147.858 429.503 147.255 406.653 145 392 c 1
146 330 m 1
 146 225 218 43 367 43 c 0
 475 43 578 150 589 330 c 1
 146 330 l 1
EndSplineSet
KernsSLIFO: 1735 -28 11 0 1728 -28 11 0 419 -28 11 0 396 -28 11 0 457 -28 11 0 398 -28 11 0 397 -28 11 0 399 -28 11 0 459 -28 11 0 383 -28 11 0 444 -28 11 0 442 -28 11 0 390 -28 11 0 438 -28 11 0
EndChar
StartChar: uni04AA
Encoding: 1194 1194 395
Width: 639
Flags: HW
TeX: 694 194 32767 32767
HStem: -217 194<354 419> -22 64<207.8 503.2> 652 64<208.7 488.3>
VStem: 66 90<137.7 552.4> 284 135<-217 -23>
Fore
284 -217 m 1
 357 -23 l 1
 419 -23 l 1
 354 -217 l 1
 284 -217 l 1
EndSplineSet
Refer: 72 67 S 1 0 0 1 0 0 2
EndChar
StartChar: afii10062
Encoding: 1038 1038 396
Width: 667
Flags: HW
TeX: 888 0 32767 32767
HStem: 0 65<166 266.565> 674 20<14 109 572 652> 750 67<299.527 380.724>
VStem: 171 61<846.75 889> 449 61<829.467 894.607>
Fore
171 889 m 1
 232 889 l 1
 238 824 314 817 340 817 c 0
 366 817 443 824 449 889 c 1
 510 889 l 1
 507 796 420 750 340 750 c 0
 260 750 174 797 171 889 c 1
EndSplineSet
Refer: 457 1059 S 1 0 0 1 -0 -0 2
KernsSLIFO: 1745 -83 11 0 1732 -28 11 0 1731 -28 11 0 1730 -28 11 0 1729 -28 11 0 1728 -28 11 0 1363 -28 11 0 419 -83 11 0 501 -83 11 0 414 -83 11 0 481 -83 11 0 474 -83 11 0 432 -28 11 0 424 -28 11 0 487 -28 11 0 435 -28 11 0 475 -28 11 0 423 -28 11 0 484 -28 11 0 470 -28 11 0 403 -28 11 0 395 -28 11 0 455 -28 11 0 394 -28 11 0 458 -28 11 0 452 -28 11 0 385 -56 11 0 449 -56 11 0 442 -56 11 0 390 -28 11 0 438 -28 11 0
Position: 0 2 'ITLC' dx=0 dy=0 dh=13 dv=0
EndChar
StartChar: uni04B0
Encoding: 1200 1200 398
Width: 667
Flags: HW
TeX: 694 0 32767 32767
HStem: -0 21G<289 376> 219 59<152 289 376 512> 674 20G<2 107 574 662>
VStem: 289 87<0 219>
AnchorPoint: "above" 332 716 basechar 0
Fore
2 694 m 1
 107 694 l 1
 254 481 l 2
 298 415 326 376 341 348 c 1
 368 397 572 691 574 694 c 1
 662 694 l 1
 376 278 l 1
 512 278 l 1
 512 219 l 1
 376 219 l 1
 376 -0 l 1
 289 -0 l 1
 289 219 l 1
 152 219 l 1
 152 278 l 1
 289 278 l 1
 2 694 l 1
EndSplineSet
KernsSLIFO: 1745 -83 11 0 1732 -83 11 0 1731 -83 11 0 1729 -83 11 0 1728 -83 11 0 419 -83 11 0 501 -83 11 0 414 -83 11 0 481 -83 11 0 474 -83 11 0 435 -83 11 0 475 -83 11 0 423 -83 11 0 484 -83 11 0 470 -83 11 0 385 -56 11 0 449 -56 11 0 442 -83 11 0 390 -83 11 0 438 -83 11 0
Position: 0 2 'ITLC' dx=0 dy=0 dh=24 dv=0
EndChar
StartChar: uni04B2
Encoding: 1202 1202 399
Width: 667
Flags: HW
TeX: 694 194 32767 32767
HStem: -195 21G<588 652> -20 20G<547 588> 674 20G<28 133 514 610>
VStem: 588 64<-195 0>
Fore
14 -0 m 1
 282 365 l 1
 282 366 l 1
 28 694 l 1
 133 694 l 1
 326 433 l 1
 514 694 l 1
 610 694 l 1
 369 366 l 1
 369 365 l 1
 600 67 l 1
 652 67 l 1
 652 -195 l 1
 588 -195 l 1
 588 -0 l 1
 547 -0 l 1
 326 305 l 1
 110 -0 l 1
 14 -0 l 1
EndSplineSet
KernsSLIFO: 1730 -28 11 0 1363 -28 11 0 417 -28 11 0 496 -28 11 0 488 -28 11 0 430 -28 11 0 431 -28 11 0 493 -28 11 0 403 -28 11 0 395 -28 11 0 455 -28 11 0 394 -28 11 0 458 -28 11 0 452 -28 11 0
EndChar
StartChar: afii10145
Encoding: 1039 1039 400
Width: 694
Flags: W
TeX: 694 194 32767 32767
HStem: -195 21G<309 384> 0 67<184 309 384 510> 674 20G<94 184 510 599>
VStem: 94 90<67 694> 309 75<-195 0> 510 89<67 694>
Fore
94 0 m 1
 94 694 l 1
 184 694 l 1
 184 67 l 1
 510 67 l 1
 510 694 l 1
 599 694 l 1
 599 0 l 1
 384 0 l 1
 384 -195 l 1
 309 -195 l 1
 309 0 l 1
 94 0 l 1
EndSplineSet
EndChar
StartChar: uni04B8
Encoding: 1208 1208 401
Width: 694
Flags: W
TeX: 694 0 32767 32767
HStem: -0 21G<510 599> 304 59<223.3 318 376 510> 674 20G<94 184 510 599>
VStem: 94 90<370 694> 318 58<160 304 363 507> 510 89<0 304 363 694>
Fore
94 448 m 2
 94 694 l 1
 184 694 l 1
 184 455 l 2
 184 377 238 363 287 363 c 2
 318 363 l 1
 318 507 l 1
 376 507 l 1
 376 363 l 1
 510 363 l 1
 510 694 l 1
 599 694 l 1
 599 -0 l 1
 510 -0 l 1
 510 304 l 1
 376 304 l 1
 376 160 l 1
 318 160 l 1
 318 304 l 1
 286 304 l 2
 150 307 94 388 94 448 c 2
EndSplineSet
EndChar
StartChar: uni04B6
Encoding: 1206 1206 402
Width: 711
Flags: W
TeX: 694 194 32767 32767
HStem: -195 21G<605 669> -20 20G<510 605> 304 59<242.272 510> 674 20G<94 184 510 599>
VStem: 94 90<413.39 694> 510 89<62 304 363 694> 605 64<-195 0>
Fore
94 449 m 2
 94 694 l 1
 184 694 l 1
 184 455 l 2
 184 365 259 363 285 363 c 2
 510 363 l 1
 510 694 l 1
 599 694 l 1
 599 62 l 1
 669 62 l 1
 669 -195 l 1
 605 -195 l 1
 605 0 l 1
 510 0 l 1
 510 304 l 1
 288 304 l 2
 233 304 184.156 316.176 139 356 c 0
 99.1373 391.156 94 423 94 449 c 2
EndSplineSet
EndChar
StartChar: afii10053
Encoding: 1028 1028 403
Width: 639
Flags: W
TeX: 694 0 32767 32767
HStem: -22 64<208.7 503.2> 316 62<157 501> 652 64<208.7 488.3>
CounterMasks: 1 e0
AnchorPoint: "above" 396 716 basechar 0
Fore
66 347 m 0
 66 541 198 716 396 716 c 0
 467 716 525 701 577 682 c 1
 562 599 l 1
 510 631 467 652 392 652 c 0
 251 652 165 507 157 378 c 1
 501 378 l 1
 501 316 l 1
 157 316 l 1
 165 186 251 42 392 42 c 0
 496 42 527 68 582 103 c 1
 588 33 l 1
 518 -8 478 -22 394 -22 c 0
 197 -22 66 155 66 347 c 0
EndSplineSet
EndChar
